<?xml version="1.0" encoding="utf-8" standalone="no"?>
<!DOCTYPE svg PUBLIC "-//W3C//DTD SVG 1.1//EN"
  "http://www.w3.org/Graphics/SVG/1.1/DTD/svg11.dtd">
<svg xmlns:xlink="http://www.w3.org/1999/xlink" width="900pt" height="432pt" viewBox="0 0 900 432" xmlns="http://www.w3.org/2000/svg" version="1.1">
 <metadata>
  <rdf:RDF xmlns:dc="http://purl.org/dc/elements/1.1/" xmlns:cc="http://creativecommons.org/ns#" xmlns:rdf="http://www.w3.org/1999/02/22-rdf-syntax-ns#">
   <cc:Work>
    <dc:type rdf:resource="http://purl.org/dc/dcmitype/StillImage"/>
    <dc:date>2024-09-09T20:26:43.023630</dc:date>
    <dc:format>image/svg+xml</dc:format>
    <dc:creator>
     <cc:Agent>
      <dc:title>Matplotlib v3.8.3, https://matplotlib.org/</dc:title>
     </cc:Agent>
    </dc:creator>
   </cc:Work>
  </rdf:RDF>
 </metadata>
 <defs>
  <style type="text/css">*{stroke-linejoin: round; stroke-linecap: butt}</style>
 </defs>
 <g id="figure_1">
  <g id="patch_1">
   <path d="M 0 432 
L 900 432 
L 900 0 
L 0 0 
z
" style="fill: #ffffff"/>
  </g>
  <g id="axes_1">
   <g id="patch_2">
    <path d="M 112.5 384.48 
L 810 384.48 
L 810 51.84 
L 112.5 51.84 
z
" style="fill: #ffffff"/>
   </g>
   <g id="PolyCollection_1">
    <defs>
     <path id="m451f2cec51" d="M 112.5 -200.984939 
L 112.5 -221.797895 
L 129.9375 -234.04081 
L 147.375 -246.283725 
L 164.8125 -264.648097 
L 182.25 -318.516923 
L 199.6875 -305.049717 
L 217.125 -296.479676 
L 234.5625 -287.909636 
L 252 -283.01247 
L 269.4375 -278.115304 
L 286.875 -270.769555 
L 304.3125 -264.648097 
L 321.75 -257.302348 
L 339.1875 -257.302348 
L 356.625 -263.423806 
L 374.0625 -258.52664 
L 391.5 -258.52664 
L 408.9375 -259.750931 
L 426.375 -257.302348 
L 443.8125 -258.52664 
L 461.25 -258.52664 
L 478.6875 -259.750931 
L 496.125 -262.199514 
L 513.5625 -273.218138 
L 531 -278.115304 
L 548.4375 -280.563887 
L 565.875 -292.806802 
L 583.3125 -290.358219 
L 600.75 -292.806802 
L 618.1875 -290.358219 
L 635.625 -291.58251 
L 653.0625 -296.479676 
L 670.5 -319.741215 
L 687.9375 -316.06834 
L 705.375 -312.395466 
L 722.8125 -306.274008 
L 740.25 -303.825425 
L 757.6875 -318.516923 
L 775.125 -365.04 
L 792.5625 -361.367126 
L 810 -356.46996 
L 810 -181.396275 
L 810 -181.396275 
L 792.5625 -181.396275 
L 775.125 -186.293441 
L 757.6875 -191.190607 
L 740.25 -192.414899 
L 722.8125 -197.312065 
L 705.375 -202.209231 
L 687.9375 -208.330688 
L 670.5 -209.55498 
L 653.0625 -209.55498 
L 635.625 -210.779271 
L 618.1875 -214.452146 
L 600.75 -212.003563 
L 583.3125 -210.779271 
L 565.875 -216.900729 
L 548.4375 -218.12502 
L 531 -220.573603 
L 513.5625 -220.573603 
L 496.125 -220.573603 
L 478.6875 -213.227854 
L 461.25 -210.779271 
L 443.8125 -207.106397 
L 426.375 -204.657814 
L 408.9375 -199.760648 
L 391.5 -197.312065 
L 374.0625 -193.63919 
L 356.625 -189.966316 
L 339.1875 -186.293441 
L 321.75 -182.620567 
L 304.3125 -178.947692 
L 286.875 -181.396275 
L 269.4375 -178.947692 
L 252 -177.723401 
L 234.5625 -177.723401 
L 217.125 -178.947692 
L 199.6875 -181.396275 
L 182.25 -183.844858 
L 164.8125 -186.293441 
L 147.375 -191.190607 
L 129.9375 -200.984939 
L 112.5 -200.984939 
z
"/>
    </defs>
    <g clip-path="url(#p6443e8d084)">
     <use xlink:href="#m451f2cec51" x="0" y="432" style="fill: #00bfbf; fill-opacity: 0.3"/>
    </g>
   </g>
   <g id="PolyCollection_2">
    <defs>
     <path id="m707c8d46fa" d="M 112.5 -105.490202 
L 112.5 -118.957409 
L 129.9375 -128.751741 
L 147.375 -129.976032 
L 164.8125 -129.976032 
L 182.25 -129.976032 
L 199.6875 -125.078866 
L 217.125 -125.078866 
L 234.5625 -120.1817 
L 252 -118.957409 
L 269.4375 -117.733117 
L 286.875 -117.733117 
L 304.3125 -115.284534 
L 321.75 -115.284534 
L 339.1875 -115.284534 
L 356.625 -115.284534 
L 374.0625 -115.284534 
L 391.5 -115.284534 
L 408.9375 -115.284534 
L 426.375 -116.508826 
L 443.8125 -115.284534 
L 461.25 -117.733117 
L 478.6875 -118.957409 
L 496.125 -118.957409 
L 513.5625 -116.508826 
L 531 -116.508826 
L 548.4375 -116.508826 
L 565.875 -115.284534 
L 583.3125 -115.284534 
L 600.75 -115.284534 
L 618.1875 -115.284534 
L 635.625 -114.060243 
L 653.0625 -116.508826 
L 670.5 -115.284534 
L 687.9375 -111.61166 
L 705.375 -110.387368 
L 722.8125 -111.61166 
L 740.25 -106.714494 
L 757.6875 -105.490202 
L 775.125 -105.490202 
L 792.5625 -104.265911 
L 810 -104.265911 
L 810 -84.677247 
L 810 -84.677247 
L 792.5625 -84.677247 
L 775.125 -85.901538 
L 757.6875 -87.12583 
L 740.25 -88.350121 
L 722.8125 -89.574413 
L 705.375 -90.798704 
L 687.9375 -92.022996 
L 670.5 -93.247287 
L 653.0625 -92.022996 
L 635.625 -93.247287 
L 618.1875 -94.471579 
L 600.75 -94.471579 
L 583.3125 -94.471579 
L 565.875 -96.920162 
L 548.4375 -96.920162 
L 531 -98.144453 
L 513.5625 -98.144453 
L 496.125 -99.368745 
L 478.6875 -99.368745 
L 461.25 -99.368745 
L 443.8125 -99.368745 
L 426.375 -99.368745 
L 408.9375 -100.593036 
L 391.5 -100.593036 
L 374.0625 -100.593036 
L 356.625 -101.817328 
L 339.1875 -100.593036 
L 321.75 -101.817328 
L 304.3125 -103.041619 
L 286.875 -103.041619 
L 269.4375 -103.041619 
L 252 -103.041619 
L 234.5625 -104.265911 
L 217.125 -104.265911 
L 199.6875 -104.265911 
L 182.25 -104.265911 
L 164.8125 -104.265911 
L 147.375 -105.490202 
L 129.9375 -106.714494 
L 112.5 -105.490202 
z
"/>
    </defs>
    <g clip-path="url(#p6443e8d084)">
     <use xlink:href="#m707c8d46fa" x="0" y="432" style="fill: #6495ed; fill-opacity: 0.3"/>
    </g>
   </g>
   <g id="PolyCollection_3">
    <defs>
     <path id="meb97c4ea0b" d="M 112.5 -77.331498 
L 112.5 -94.471579 
L 129.9375 -98.144453 
L 147.375 -99.368745 
L 164.8125 -99.368745 
L 182.25 -98.144453 
L 199.6875 -96.920162 
L 217.125 -96.920162 
L 234.5625 -95.69587 
L 252 -95.69587 
L 269.4375 -93.247287 
L 286.875 -95.69587 
L 304.3125 -95.69587 
L 321.75 -95.69587 
L 339.1875 -95.69587 
L 356.625 -93.247287 
L 374.0625 -92.022996 
L 391.5 -92.022996 
L 408.9375 -89.574413 
L 426.375 -88.350121 
L 443.8125 -88.350121 
L 461.25 -87.12583 
L 478.6875 -85.901538 
L 496.125 -84.677247 
L 513.5625 -84.677247 
L 531 -83.452955 
L 548.4375 -82.228664 
L 565.875 -81.004372 
L 583.3125 -81.004372 
L 600.75 -82.228664 
L 618.1875 -81.004372 
L 635.625 -82.228664 
L 653.0625 -82.228664 
L 670.5 -82.228664 
L 687.9375 -82.228664 
L 705.375 -81.004372 
L 722.8125 -77.331498 
L 740.25 -77.331498 
L 757.6875 -78.555789 
L 775.125 -78.555789 
L 792.5625 -77.331498 
L 810 -76.107206 
L 810 -62.64 
L 810 -62.64 
L 792.5625 -62.64 
L 775.125 -62.64 
L 757.6875 -62.64 
L 740.25 -62.64 
L 722.8125 -62.64 
L 705.375 -63.864291 
L 687.9375 -63.864291 
L 670.5 -63.864291 
L 653.0625 -63.864291 
L 635.625 -63.864291 
L 618.1875 -63.864291 
L 600.75 -63.864291 
L 583.3125 -65.088583 
L 565.875 -65.088583 
L 548.4375 -65.088583 
L 531 -66.312874 
L 513.5625 -66.312874 
L 496.125 -66.312874 
L 478.6875 -67.537166 
L 461.25 -67.537166 
L 443.8125 -67.537166 
L 426.375 -68.761457 
L 408.9375 -68.761457 
L 391.5 -68.761457 
L 374.0625 -68.761457 
L 356.625 -69.985749 
L 339.1875 -69.985749 
L 321.75 -69.985749 
L 304.3125 -71.21004 
L 286.875 -71.21004 
L 269.4375 -72.434332 
L 252 -72.434332 
L 234.5625 -73.658623 
L 217.125 -74.882915 
L 199.6875 -74.882915 
L 182.25 -76.107206 
L 164.8125 -77.331498 
L 147.375 -77.331498 
L 129.9375 -78.555789 
L 112.5 -77.331498 
z
"/>
    </defs>
    <g clip-path="url(#p6443e8d084)">
     <use xlink:href="#meb97c4ea0b" x="0" y="432" style="fill: #dda0dd; fill-opacity: 0.3"/>
    </g>
   </g>
   <g id="matplotlib.axis_1">
    <g id="xtick_1">
     <g id="line2d_1">
      <defs>
       <path id="mbdd229ec8f" d="M 0 0 
L 0 3.5 
" style="stroke: #000000; stroke-width: 0.8"/>
      </defs>
      <g>
       <use xlink:href="#mbdd229ec8f" x="112.5" y="384.48" style="stroke: #000000; stroke-width: 0.8"/>
      </g>
     </g>
     <g id="text_1">
      <!-- 0 -->
      <g transform="translate(106.1375 406.676875) scale(0.2 -0.2)">
       <defs>
        <path id="DejaVuSans-30" d="M 2034 4250 
Q 1547 4250 1301 3770 
Q 1056 3291 1056 2328 
Q 1056 1369 1301 889 
Q 1547 409 2034 409 
Q 2525 409 2770 889 
Q 3016 1369 3016 2328 
Q 3016 3291 2770 3770 
Q 2525 4250 2034 4250 
z
M 2034 4750 
Q 2819 4750 3233 4129 
Q 3647 3509 3647 2328 
Q 3647 1150 3233 529 
Q 2819 -91 2034 -91 
Q 1250 -91 836 529 
Q 422 1150 422 2328 
Q 422 3509 836 4129 
Q 1250 4750 2034 4750 
z
" transform="scale(0.015625)"/>
       </defs>
       <use xlink:href="#DejaVuSans-30"/>
      </g>
     </g>
    </g>
    <g id="xtick_2">
     <g id="line2d_2">
      <g>
       <use xlink:href="#mbdd229ec8f" x="199.6875" y="384.48" style="stroke: #000000; stroke-width: 0.8"/>
      </g>
     </g>
     <g id="text_2">
      <!-- 5 -->
      <g transform="translate(193.325 406.676875) scale(0.2 -0.2)">
       <defs>
        <path id="DejaVuSans-35" d="M 691 4666 
L 3169 4666 
L 3169 4134 
L 1269 4134 
L 1269 2991 
Q 1406 3038 1543 3061 
Q 1681 3084 1819 3084 
Q 2600 3084 3056 2656 
Q 3513 2228 3513 1497 
Q 3513 744 3044 326 
Q 2575 -91 1722 -91 
Q 1428 -91 1123 -41 
Q 819 9 494 109 
L 494 744 
Q 775 591 1075 516 
Q 1375 441 1709 441 
Q 2250 441 2565 725 
Q 2881 1009 2881 1497 
Q 2881 1984 2565 2268 
Q 2250 2553 1709 2553 
Q 1456 2553 1204 2497 
Q 953 2441 691 2322 
L 691 4666 
z
" transform="scale(0.015625)"/>
       </defs>
       <use xlink:href="#DejaVuSans-35"/>
      </g>
     </g>
    </g>
    <g id="xtick_3">
     <g id="line2d_3">
      <g>
       <use xlink:href="#mbdd229ec8f" x="286.875" y="384.48" style="stroke: #000000; stroke-width: 0.8"/>
      </g>
     </g>
     <g id="text_3">
      <!-- 10 -->
      <g transform="translate(274.15 406.676875) scale(0.2 -0.2)">
       <defs>
        <path id="DejaVuSans-31" d="M 794 531 
L 1825 531 
L 1825 4091 
L 703 3866 
L 703 4441 
L 1819 4666 
L 2450 4666 
L 2450 531 
L 3481 531 
L 3481 0 
L 794 0 
L 794 531 
z
" transform="scale(0.015625)"/>
       </defs>
       <use xlink:href="#DejaVuSans-31"/>
       <use xlink:href="#DejaVuSans-30" x="63.623047"/>
      </g>
     </g>
    </g>
    <g id="xtick_4">
     <g id="line2d_4">
      <g>
       <use xlink:href="#mbdd229ec8f" x="374.0625" y="384.48" style="stroke: #000000; stroke-width: 0.8"/>
      </g>
     </g>
     <g id="text_4">
      <!-- 15 -->
      <g transform="translate(361.3375 406.676875) scale(0.2 -0.2)">
       <use xlink:href="#DejaVuSans-31"/>
       <use xlink:href="#DejaVuSans-35" x="63.623047"/>
      </g>
     </g>
    </g>
    <g id="xtick_5">
     <g id="line2d_5">
      <g>
       <use xlink:href="#mbdd229ec8f" x="461.25" y="384.48" style="stroke: #000000; stroke-width: 0.8"/>
      </g>
     </g>
     <g id="text_5">
      <!-- 20 -->
      <g transform="translate(448.525 406.676875) scale(0.2 -0.2)">
       <defs>
        <path id="DejaVuSans-32" d="M 1228 531 
L 3431 531 
L 3431 0 
L 469 0 
L 469 531 
Q 828 903 1448 1529 
Q 2069 2156 2228 2338 
Q 2531 2678 2651 2914 
Q 2772 3150 2772 3378 
Q 2772 3750 2511 3984 
Q 2250 4219 1831 4219 
Q 1534 4219 1204 4116 
Q 875 4013 500 3803 
L 500 4441 
Q 881 4594 1212 4672 
Q 1544 4750 1819 4750 
Q 2544 4750 2975 4387 
Q 3406 4025 3406 3419 
Q 3406 3131 3298 2873 
Q 3191 2616 2906 2266 
Q 2828 2175 2409 1742 
Q 1991 1309 1228 531 
z
" transform="scale(0.015625)"/>
       </defs>
       <use xlink:href="#DejaVuSans-32"/>
       <use xlink:href="#DejaVuSans-30" x="63.623047"/>
      </g>
     </g>
    </g>
    <g id="xtick_6">
     <g id="line2d_6">
      <g>
       <use xlink:href="#mbdd229ec8f" x="548.4375" y="384.48" style="stroke: #000000; stroke-width: 0.8"/>
      </g>
     </g>
     <g id="text_6">
      <!-- 25 -->
      <g transform="translate(535.7125 406.676875) scale(0.2 -0.2)">
       <use xlink:href="#DejaVuSans-32"/>
       <use xlink:href="#DejaVuSans-35" x="63.623047"/>
      </g>
     </g>
    </g>
    <g id="xtick_7">
     <g id="line2d_7">
      <g>
       <use xlink:href="#mbdd229ec8f" x="635.625" y="384.48" style="stroke: #000000; stroke-width: 0.8"/>
      </g>
     </g>
     <g id="text_7">
      <!-- 30 -->
      <g transform="translate(622.9 406.676875) scale(0.2 -0.2)">
       <defs>
        <path id="DejaVuSans-33" d="M 2597 2516 
Q 3050 2419 3304 2112 
Q 3559 1806 3559 1356 
Q 3559 666 3084 287 
Q 2609 -91 1734 -91 
Q 1441 -91 1130 -33 
Q 819 25 488 141 
L 488 750 
Q 750 597 1062 519 
Q 1375 441 1716 441 
Q 2309 441 2620 675 
Q 2931 909 2931 1356 
Q 2931 1769 2642 2001 
Q 2353 2234 1838 2234 
L 1294 2234 
L 1294 2753 
L 1863 2753 
Q 2328 2753 2575 2939 
Q 2822 3125 2822 3475 
Q 2822 3834 2567 4026 
Q 2313 4219 1838 4219 
Q 1578 4219 1281 4162 
Q 984 4106 628 3988 
L 628 4550 
Q 988 4650 1302 4700 
Q 1616 4750 1894 4750 
Q 2613 4750 3031 4423 
Q 3450 4097 3450 3541 
Q 3450 3153 3228 2886 
Q 3006 2619 2597 2516 
z
" transform="scale(0.015625)"/>
       </defs>
       <use xlink:href="#DejaVuSans-33"/>
       <use xlink:href="#DejaVuSans-30" x="63.623047"/>
      </g>
     </g>
    </g>
    <g id="xtick_8">
     <g id="line2d_8">
      <g>
       <use xlink:href="#mbdd229ec8f" x="722.8125" y="384.48" style="stroke: #000000; stroke-width: 0.8"/>
      </g>
     </g>
     <g id="text_8">
      <!-- 35 -->
      <g transform="translate(710.0875 406.676875) scale(0.2 -0.2)">
       <use xlink:href="#DejaVuSans-33"/>
       <use xlink:href="#DejaVuSans-35" x="63.623047"/>
      </g>
     </g>
    </g>
    <g id="xtick_9">
     <g id="line2d_9">
      <g>
       <use xlink:href="#mbdd229ec8f" x="810" y="384.48" style="stroke: #000000; stroke-width: 0.8"/>
      </g>
     </g>
     <g id="text_9">
      <!-- 40 -->
      <g transform="translate(797.275 406.676875) scale(0.2 -0.2)">
       <defs>
        <path id="DejaVuSans-34" d="M 2419 4116 
L 825 1625 
L 2419 1625 
L 2419 4116 
z
M 2253 4666 
L 3047 4666 
L 3047 1625 
L 3713 1625 
L 3713 1100 
L 3047 1100 
L 3047 0 
L 2419 0 
L 2419 1100 
L 313 1100 
L 313 1709 
L 2253 4666 
z
" transform="scale(0.015625)"/>
       </defs>
       <use xlink:href="#DejaVuSans-34"/>
       <use xlink:href="#DejaVuSans-30" x="63.623047"/>
      </g>
     </g>
    </g>
    <g id="text_10">
     <!-- Iterations -->
     <g transform="translate(413.623438 430.033125) scale(0.2 -0.2)">
      <defs>
       <path id="DejaVuSans-49" d="M 628 4666 
L 1259 4666 
L 1259 0 
L 628 0 
L 628 4666 
z
" transform="scale(0.015625)"/>
       <path id="DejaVuSans-74" d="M 1172 4494 
L 1172 3500 
L 2356 3500 
L 2356 3053 
L 1172 3053 
L 1172 1153 
Q 1172 725 1289 603 
Q 1406 481 1766 481 
L 2356 481 
L 2356 0 
L 1766 0 
Q 1100 0 847 248 
Q 594 497 594 1153 
L 594 3053 
L 172 3053 
L 172 3500 
L 594 3500 
L 594 4494 
L 1172 4494 
z
" transform="scale(0.015625)"/>
       <path id="DejaVuSans-65" d="M 3597 1894 
L 3597 1613 
L 953 1613 
Q 991 1019 1311 708 
Q 1631 397 2203 397 
Q 2534 397 2845 478 
Q 3156 559 3463 722 
L 3463 178 
Q 3153 47 2828 -22 
Q 2503 -91 2169 -91 
Q 1331 -91 842 396 
Q 353 884 353 1716 
Q 353 2575 817 3079 
Q 1281 3584 2069 3584 
Q 2775 3584 3186 3129 
Q 3597 2675 3597 1894 
z
M 3022 2063 
Q 3016 2534 2758 2815 
Q 2500 3097 2075 3097 
Q 1594 3097 1305 2825 
Q 1016 2553 972 2059 
L 3022 2063 
z
" transform="scale(0.015625)"/>
       <path id="DejaVuSans-72" d="M 2631 2963 
Q 2534 3019 2420 3045 
Q 2306 3072 2169 3072 
Q 1681 3072 1420 2755 
Q 1159 2438 1159 1844 
L 1159 0 
L 581 0 
L 581 3500 
L 1159 3500 
L 1159 2956 
Q 1341 3275 1631 3429 
Q 1922 3584 2338 3584 
Q 2397 3584 2469 3576 
Q 2541 3569 2628 3553 
L 2631 2963 
z
" transform="scale(0.015625)"/>
       <path id="DejaVuSans-61" d="M 2194 1759 
Q 1497 1759 1228 1600 
Q 959 1441 959 1056 
Q 959 750 1161 570 
Q 1363 391 1709 391 
Q 2188 391 2477 730 
Q 2766 1069 2766 1631 
L 2766 1759 
L 2194 1759 
z
M 3341 1997 
L 3341 0 
L 2766 0 
L 2766 531 
Q 2569 213 2275 61 
Q 1981 -91 1556 -91 
Q 1019 -91 701 211 
Q 384 513 384 1019 
Q 384 1609 779 1909 
Q 1175 2209 1959 2209 
L 2766 2209 
L 2766 2266 
Q 2766 2663 2505 2880 
Q 2244 3097 1772 3097 
Q 1472 3097 1187 3025 
Q 903 2953 641 2809 
L 641 3341 
Q 956 3463 1253 3523 
Q 1550 3584 1831 3584 
Q 2591 3584 2966 3190 
Q 3341 2797 3341 1997 
z
" transform="scale(0.015625)"/>
       <path id="DejaVuSans-69" d="M 603 3500 
L 1178 3500 
L 1178 0 
L 603 0 
L 603 3500 
z
M 603 4863 
L 1178 4863 
L 1178 4134 
L 603 4134 
L 603 4863 
z
" transform="scale(0.015625)"/>
       <path id="DejaVuSans-6f" d="M 1959 3097 
Q 1497 3097 1228 2736 
Q 959 2375 959 1747 
Q 959 1119 1226 758 
Q 1494 397 1959 397 
Q 2419 397 2687 759 
Q 2956 1122 2956 1747 
Q 2956 2369 2687 2733 
Q 2419 3097 1959 3097 
z
M 1959 3584 
Q 2709 3584 3137 3096 
Q 3566 2609 3566 1747 
Q 3566 888 3137 398 
Q 2709 -91 1959 -91 
Q 1206 -91 779 398 
Q 353 888 353 1747 
Q 353 2609 779 3096 
Q 1206 3584 1959 3584 
z
" transform="scale(0.015625)"/>
       <path id="DejaVuSans-6e" d="M 3513 2113 
L 3513 0 
L 2938 0 
L 2938 2094 
Q 2938 2591 2744 2837 
Q 2550 3084 2163 3084 
Q 1697 3084 1428 2787 
Q 1159 2491 1159 1978 
L 1159 0 
L 581 0 
L 581 3500 
L 1159 3500 
L 1159 2956 
Q 1366 3272 1645 3428 
Q 1925 3584 2291 3584 
Q 2894 3584 3203 3211 
Q 3513 2838 3513 2113 
z
" transform="scale(0.015625)"/>
       <path id="DejaVuSans-73" d="M 2834 3397 
L 2834 2853 
Q 2591 2978 2328 3040 
Q 2066 3103 1784 3103 
Q 1356 3103 1142 2972 
Q 928 2841 928 2578 
Q 928 2378 1081 2264 
Q 1234 2150 1697 2047 
L 1894 2003 
Q 2506 1872 2764 1633 
Q 3022 1394 3022 966 
Q 3022 478 2636 193 
Q 2250 -91 1575 -91 
Q 1294 -91 989 -36 
Q 684 19 347 128 
L 347 722 
Q 666 556 975 473 
Q 1284 391 1588 391 
Q 1994 391 2212 530 
Q 2431 669 2431 922 
Q 2431 1156 2273 1281 
Q 2116 1406 1581 1522 
L 1381 1569 
Q 847 1681 609 1914 
Q 372 2147 372 2553 
Q 372 3047 722 3315 
Q 1072 3584 1716 3584 
Q 2034 3584 2315 3537 
Q 2597 3491 2834 3397 
z
" transform="scale(0.015625)"/>
      </defs>
      <use xlink:href="#DejaVuSans-49"/>
      <use xlink:href="#DejaVuSans-74" x="29.492188"/>
      <use xlink:href="#DejaVuSans-65" x="68.701172"/>
      <use xlink:href="#DejaVuSans-72" x="130.224609"/>
      <use xlink:href="#DejaVuSans-61" x="171.337891"/>
      <use xlink:href="#DejaVuSans-74" x="232.617188"/>
      <use xlink:href="#DejaVuSans-69" x="271.826172"/>
      <use xlink:href="#DejaVuSans-6f" x="299.609375"/>
      <use xlink:href="#DejaVuSans-6e" x="360.791016"/>
      <use xlink:href="#DejaVuSans-73" x="424.169922"/>
     </g>
    </g>
   </g>
   <g id="matplotlib.axis_2">
    <g id="ytick_1">
     <g id="line2d_10">
      <defs>
       <path id="m85941d3001" d="M 0 0 
L -3.5 0 
" style="stroke: #000000; stroke-width: 0.8"/>
      </defs>
      <g>
       <use xlink:href="#m85941d3001" x="112.5" y="344.87417" style="stroke: #000000; stroke-width: 0.8"/>
      </g>
     </g>
     <g id="text_11">
      <!-- 100 -->
      <g transform="translate(67.325 352.472608) scale(0.2 -0.2)">
       <use xlink:href="#DejaVuSans-31"/>
       <use xlink:href="#DejaVuSans-30" x="63.623047"/>
       <use xlink:href="#DejaVuSans-30" x="127.246094"/>
      </g>
     </g>
    </g>
    <g id="ytick_2">
     <g id="line2d_11">
      <g>
       <use xlink:href="#m85941d3001" x="112.5" y="283.659595" style="stroke: #000000; stroke-width: 0.8"/>
      </g>
     </g>
     <g id="text_12">
      <!-- 150 -->
      <g transform="translate(67.325 291.258033) scale(0.2 -0.2)">
       <use xlink:href="#DejaVuSans-31"/>
       <use xlink:href="#DejaVuSans-35" x="63.623047"/>
       <use xlink:href="#DejaVuSans-30" x="127.246094"/>
      </g>
     </g>
    </g>
    <g id="ytick_3">
     <g id="line2d_12">
      <g>
       <use xlink:href="#m85941d3001" x="112.5" y="222.44502" style="stroke: #000000; stroke-width: 0.8"/>
      </g>
     </g>
     <g id="text_13">
      <!-- 200 -->
      <g transform="translate(67.325 230.043458) scale(0.2 -0.2)">
       <use xlink:href="#DejaVuSans-32"/>
       <use xlink:href="#DejaVuSans-30" x="63.623047"/>
       <use xlink:href="#DejaVuSans-30" x="127.246094"/>
      </g>
     </g>
    </g>
    <g id="ytick_4">
     <g id="line2d_13">
      <g>
       <use xlink:href="#m85941d3001" x="112.5" y="161.230445" style="stroke: #000000; stroke-width: 0.8"/>
      </g>
     </g>
     <g id="text_14">
      <!-- 250 -->
      <g transform="translate(67.325 168.828883) scale(0.2 -0.2)">
       <use xlink:href="#DejaVuSans-32"/>
       <use xlink:href="#DejaVuSans-35" x="63.623047"/>
       <use xlink:href="#DejaVuSans-30" x="127.246094"/>
      </g>
     </g>
    </g>
    <g id="ytick_5">
     <g id="line2d_14">
      <g>
       <use xlink:href="#m85941d3001" x="112.5" y="100.01587" style="stroke: #000000; stroke-width: 0.8"/>
      </g>
     </g>
     <g id="text_15">
      <!-- 300 -->
      <g transform="translate(67.325 107.614308) scale(0.2 -0.2)">
       <use xlink:href="#DejaVuSans-33"/>
       <use xlink:href="#DejaVuSans-30" x="63.623047"/>
       <use xlink:href="#DejaVuSans-30" x="127.246094"/>
      </g>
     </g>
    </g>
    <g id="text_16">
     <!-- Steps / 0.01s -->
     <g transform="translate(59.165625 283.339687) rotate(-90) scale(0.2 -0.2)">
      <defs>
       <path id="DejaVuSans-53" d="M 3425 4513 
L 3425 3897 
Q 3066 4069 2747 4153 
Q 2428 4238 2131 4238 
Q 1616 4238 1336 4038 
Q 1056 3838 1056 3469 
Q 1056 3159 1242 3001 
Q 1428 2844 1947 2747 
L 2328 2669 
Q 3034 2534 3370 2195 
Q 3706 1856 3706 1288 
Q 3706 609 3251 259 
Q 2797 -91 1919 -91 
Q 1588 -91 1214 -16 
Q 841 59 441 206 
L 441 856 
Q 825 641 1194 531 
Q 1563 422 1919 422 
Q 2459 422 2753 634 
Q 3047 847 3047 1241 
Q 3047 1584 2836 1778 
Q 2625 1972 2144 2069 
L 1759 2144 
Q 1053 2284 737 2584 
Q 422 2884 422 3419 
Q 422 4038 858 4394 
Q 1294 4750 2059 4750 
Q 2388 4750 2728 4690 
Q 3069 4631 3425 4513 
z
" transform="scale(0.015625)"/>
       <path id="DejaVuSans-70" d="M 1159 525 
L 1159 -1331 
L 581 -1331 
L 581 3500 
L 1159 3500 
L 1159 2969 
Q 1341 3281 1617 3432 
Q 1894 3584 2278 3584 
Q 2916 3584 3314 3078 
Q 3713 2572 3713 1747 
Q 3713 922 3314 415 
Q 2916 -91 2278 -91 
Q 1894 -91 1617 61 
Q 1341 213 1159 525 
z
M 3116 1747 
Q 3116 2381 2855 2742 
Q 2594 3103 2138 3103 
Q 1681 3103 1420 2742 
Q 1159 2381 1159 1747 
Q 1159 1113 1420 752 
Q 1681 391 2138 391 
Q 2594 391 2855 752 
Q 3116 1113 3116 1747 
z
" transform="scale(0.015625)"/>
       <path id="DejaVuSans-20" transform="scale(0.015625)"/>
       <path id="DejaVuSans-2f" d="M 1625 4666 
L 2156 4666 
L 531 -594 
L 0 -594 
L 1625 4666 
z
" transform="scale(0.015625)"/>
       <path id="DejaVuSans-2e" d="M 684 794 
L 1344 794 
L 1344 0 
L 684 0 
L 684 794 
z
" transform="scale(0.015625)"/>
      </defs>
      <use xlink:href="#DejaVuSans-53"/>
      <use xlink:href="#DejaVuSans-74" x="63.476562"/>
      <use xlink:href="#DejaVuSans-65" x="102.685547"/>
      <use xlink:href="#DejaVuSans-70" x="164.208984"/>
      <use xlink:href="#DejaVuSans-73" x="227.685547"/>
      <use xlink:href="#DejaVuSans-20" x="279.785156"/>
      <use xlink:href="#DejaVuSans-2f" x="311.572266"/>
      <use xlink:href="#DejaVuSans-20" x="345.263672"/>
      <use xlink:href="#DejaVuSans-30" x="377.050781"/>
      <use xlink:href="#DejaVuSans-2e" x="440.673828"/>
      <use xlink:href="#DejaVuSans-30" x="472.460938"/>
      <use xlink:href="#DejaVuSans-31" x="536.083984"/>
      <use xlink:href="#DejaVuSans-73" x="599.707031"/>
     </g>
    </g>
   </g>
   <g id="line2d_15">
    <path d="M 112.5 220.608583 
L 129.9375 214.487126 
L 147.375 213.262834 
L 164.8125 206.529231 
L 182.25 180.819109 
L 199.6875 188.777004 
L 217.125 194.286316 
L 234.5625 199.183482 
L 252 201.632065 
L 269.4375 203.468502 
L 286.875 205.917085 
L 304.3125 210.202105 
L 321.75 212.038543 
L 339.1875 210.202105 
L 356.625 205.304939 
L 374.0625 205.917085 
L 391.5 204.080648 
L 408.9375 202.244211 
L 426.375 201.019919 
L 443.8125 199.183482 
L 461.25 197.347045 
L 478.6875 195.510607 
L 496.125 190.613441 
L 513.5625 185.10413 
L 531 182.655547 
L 548.4375 182.655547 
L 565.875 177.146235 
L 583.3125 181.431255 
L 600.75 179.594818 
L 618.1875 179.594818 
L 635.625 180.819109 
L 653.0625 178.982672 
L 670.5 167.351903 
L 687.9375 169.800486 
L 705.375 174.697652 
L 722.8125 180.206964 
L 740.25 183.879838 
L 757.6875 177.146235 
L 775.125 156.333279 
L 792.5625 160.6183 
L 810 163.066883 
" clip-path="url(#p6443e8d084)" style="fill: none; stroke: #00bfbf; stroke-width: 1.5; stroke-linecap: square"/>
   </g>
   <g id="line2d_16">
    <path d="M 112.5 319.776194 
L 129.9375 314.266883 
L 147.375 314.266883 
L 164.8125 314.879028 
L 182.25 314.879028 
L 199.6875 317.327611 
L 217.125 317.327611 
L 234.5625 319.776194 
L 252 321.000486 
L 269.4375 321.612632 
L 286.875 321.612632 
L 304.3125 322.836923 
L 321.75 323.449069 
L 339.1875 324.061215 
L 356.625 323.449069 
L 374.0625 324.061215 
L 391.5 324.061215 
L 408.9375 324.061215 
L 426.375 324.061215 
L 443.8125 324.67336 
L 461.25 323.449069 
L 478.6875 322.836923 
L 496.125 322.836923 
L 513.5625 324.67336 
L 531 324.67336 
L 548.4375 325.285506 
L 565.875 325.897652 
L 583.3125 327.121943 
L 600.75 327.121943 
L 618.1875 327.121943 
L 635.625 328.346235 
L 653.0625 327.734089 
L 670.5 327.734089 
L 687.9375 330.182672 
L 705.375 331.406964 
L 722.8125 331.406964 
L 740.25 334.467692 
L 757.6875 335.691984 
L 775.125 336.30413 
L 792.5625 337.528421 
L 810 337.528421 
" clip-path="url(#p6443e8d084)" style="fill: none; stroke: #6495ed; stroke-width: 1.5; stroke-linecap: square"/>
   </g>
   <g id="line2d_17">
    <path d="M 112.5 346.098462 
L 129.9375 343.649879 
L 147.375 343.649879 
L 164.8125 343.649879 
L 182.25 344.87417 
L 199.6875 346.098462 
L 217.125 346.098462 
L 234.5625 347.322753 
L 252 347.934899 
L 269.4375 349.15919 
L 286.875 348.547045 
L 304.3125 348.547045 
L 321.75 349.15919 
L 339.1875 349.15919 
L 356.625 350.383482 
L 374.0625 351.607773 
L 391.5 351.607773 
L 408.9375 352.832065 
L 426.375 353.444211 
L 443.8125 354.056356 
L 461.25 354.668502 
L 478.6875 355.280648 
L 496.125 356.504939 
L 513.5625 356.504939 
L 531 357.117085 
L 548.4375 358.341377 
L 565.875 358.953522 
L 583.3125 358.953522 
L 600.75 358.953522 
L 618.1875 359.565668 
L 635.625 358.953522 
L 653.0625 358.953522 
L 670.5 358.953522 
L 687.9375 358.953522 
L 705.375 359.565668 
L 722.8125 362.014251 
L 740.25 362.014251 
L 757.6875 361.402105 
L 775.125 361.402105 
L 792.5625 362.014251 
L 810 362.626397 
" clip-path="url(#p6443e8d084)" style="fill: none; stroke: #dda0dd; stroke-width: 1.5; stroke-linecap: square"/>
   </g>
   <g id="patch_3">
    <path d="M 112.5 384.48 
L 112.5 51.84 
" style="fill: none; stroke: #000000; stroke-width: 0.8; stroke-linejoin: miter; stroke-linecap: square"/>
   </g>
   <g id="patch_4">
    <path d="M 810 384.48 
L 810 51.84 
" style="fill: none; stroke: #000000; stroke-width: 0.8; stroke-linejoin: miter; stroke-linecap: square"/>
   </g>
   <g id="patch_5">
    <path d="M 112.5 384.48 
L 810 384.48 
" style="fill: none; stroke: #000000; stroke-width: 0.8; stroke-linejoin: miter; stroke-linecap: square"/>
   </g>
   <g id="patch_6">
    <path d="M 112.5 51.84 
L 810 51.84 
" style="fill: none; stroke: #000000; stroke-width: 0.8; stroke-linejoin: miter; stroke-linecap: square"/>
   </g>
   <g id="legend_1">
    <g id="patch_7">
     <path d="M 123 129.891562 
L 332.533594 129.891562 
Q 335.533594 129.891562 335.533594 126.891562 
L 335.533594 62.34 
Q 335.533594 59.34 332.533594 59.34 
L 123 59.34 
Q 120 59.34 120 62.34 
L 120 126.891562 
Q 120 129.891562 123 129.891562 
z
" style="fill: #ffffff; opacity: 0.8; stroke: #cccccc; stroke-linejoin: miter"/>
    </g>
    <g id="line2d_18">
     <path d="M 126 71.487656 
L 141 71.487656 
L 156 71.487656 
" style="fill: none; stroke: #00bfbf; stroke-width: 1.5; stroke-linecap: square"/>
    </g>
    <g id="text_17">
     <!-- steps to convergence -->
     <g transform="translate(168 76.737656) scale(0.15 -0.15)">
      <defs>
       <path id="DejaVuSans-63" d="M 3122 3366 
L 3122 2828 
Q 2878 2963 2633 3030 
Q 2388 3097 2138 3097 
Q 1578 3097 1268 2742 
Q 959 2388 959 1747 
Q 959 1106 1268 751 
Q 1578 397 2138 397 
Q 2388 397 2633 464 
Q 2878 531 3122 666 
L 3122 134 
Q 2881 22 2623 -34 
Q 2366 -91 2075 -91 
Q 1284 -91 818 406 
Q 353 903 353 1747 
Q 353 2603 823 3093 
Q 1294 3584 2113 3584 
Q 2378 3584 2631 3529 
Q 2884 3475 3122 3366 
z
" transform="scale(0.015625)"/>
       <path id="DejaVuSans-76" d="M 191 3500 
L 800 3500 
L 1894 563 
L 2988 3500 
L 3597 3500 
L 2284 0 
L 1503 0 
L 191 3500 
z
" transform="scale(0.015625)"/>
       <path id="DejaVuSans-67" d="M 2906 1791 
Q 2906 2416 2648 2759 
Q 2391 3103 1925 3103 
Q 1463 3103 1205 2759 
Q 947 2416 947 1791 
Q 947 1169 1205 825 
Q 1463 481 1925 481 
Q 2391 481 2648 825 
Q 2906 1169 2906 1791 
z
M 3481 434 
Q 3481 -459 3084 -895 
Q 2688 -1331 1869 -1331 
Q 1566 -1331 1297 -1286 
Q 1028 -1241 775 -1147 
L 775 -588 
Q 1028 -725 1275 -790 
Q 1522 -856 1778 -856 
Q 2344 -856 2625 -561 
Q 2906 -266 2906 331 
L 2906 616 
Q 2728 306 2450 153 
Q 2172 0 1784 0 
Q 1141 0 747 490 
Q 353 981 353 1791 
Q 353 2603 747 3093 
Q 1141 3584 1784 3584 
Q 2172 3584 2450 3431 
Q 2728 3278 2906 2969 
L 2906 3500 
L 3481 3500 
L 3481 434 
z
" transform="scale(0.015625)"/>
      </defs>
      <use xlink:href="#DejaVuSans-73"/>
      <use xlink:href="#DejaVuSans-74" x="52.099609"/>
      <use xlink:href="#DejaVuSans-65" x="91.308594"/>
      <use xlink:href="#DejaVuSans-70" x="152.832031"/>
      <use xlink:href="#DejaVuSans-73" x="216.308594"/>
      <use xlink:href="#DejaVuSans-20" x="268.408203"/>
      <use xlink:href="#DejaVuSans-74" x="300.195312"/>
      <use xlink:href="#DejaVuSans-6f" x="339.404297"/>
      <use xlink:href="#DejaVuSans-20" x="400.585938"/>
      <use xlink:href="#DejaVuSans-63" x="432.373047"/>
      <use xlink:href="#DejaVuSans-6f" x="487.353516"/>
      <use xlink:href="#DejaVuSans-6e" x="548.535156"/>
      <use xlink:href="#DejaVuSans-76" x="611.914062"/>
      <use xlink:href="#DejaVuSans-65" x="671.09375"/>
      <use xlink:href="#DejaVuSans-72" x="732.617188"/>
      <use xlink:href="#DejaVuSans-67" x="771.980469"/>
      <use xlink:href="#DejaVuSans-65" x="835.457031"/>
      <use xlink:href="#DejaVuSans-6e" x="896.980469"/>
      <use xlink:href="#DejaVuSans-63" x="960.359375"/>
      <use xlink:href="#DejaVuSans-65" x="1015.339844"/>
     </g>
    </g>
    <g id="line2d_19">
     <path d="M 126 93.504844 
L 141 93.504844 
L 156 93.504844 
" style="fill: none; stroke: #6495ed; stroke-width: 1.5; stroke-linecap: square"/>
    </g>
    <g id="text_18">
     <!-- steps to unit ball -->
     <g transform="translate(168 98.754844) scale(0.15 -0.15)">
      <defs>
       <path id="DejaVuSans-75" d="M 544 1381 
L 544 3500 
L 1119 3500 
L 1119 1403 
Q 1119 906 1312 657 
Q 1506 409 1894 409 
Q 2359 409 2629 706 
Q 2900 1003 2900 1516 
L 2900 3500 
L 3475 3500 
L 3475 0 
L 2900 0 
L 2900 538 
Q 2691 219 2414 64 
Q 2138 -91 1772 -91 
Q 1169 -91 856 284 
Q 544 659 544 1381 
z
M 1991 3584 
L 1991 3584 
z
" transform="scale(0.015625)"/>
       <path id="DejaVuSans-62" d="M 3116 1747 
Q 3116 2381 2855 2742 
Q 2594 3103 2138 3103 
Q 1681 3103 1420 2742 
Q 1159 2381 1159 1747 
Q 1159 1113 1420 752 
Q 1681 391 2138 391 
Q 2594 391 2855 752 
Q 3116 1113 3116 1747 
z
M 1159 2969 
Q 1341 3281 1617 3432 
Q 1894 3584 2278 3584 
Q 2916 3584 3314 3078 
Q 3713 2572 3713 1747 
Q 3713 922 3314 415 
Q 2916 -91 2278 -91 
Q 1894 -91 1617 61 
Q 1341 213 1159 525 
L 1159 0 
L 581 0 
L 581 4863 
L 1159 4863 
L 1159 2969 
z
" transform="scale(0.015625)"/>
       <path id="DejaVuSans-6c" d="M 603 4863 
L 1178 4863 
L 1178 0 
L 603 0 
L 603 4863 
z
" transform="scale(0.015625)"/>
      </defs>
      <use xlink:href="#DejaVuSans-73"/>
      <use xlink:href="#DejaVuSans-74" x="52.099609"/>
      <use xlink:href="#DejaVuSans-65" x="91.308594"/>
      <use xlink:href="#DejaVuSans-70" x="152.832031"/>
      <use xlink:href="#DejaVuSans-73" x="216.308594"/>
      <use xlink:href="#DejaVuSans-20" x="268.408203"/>
      <use xlink:href="#DejaVuSans-74" x="300.195312"/>
      <use xlink:href="#DejaVuSans-6f" x="339.404297"/>
      <use xlink:href="#DejaVuSans-20" x="400.585938"/>
      <use xlink:href="#DejaVuSans-75" x="432.373047"/>
      <use xlink:href="#DejaVuSans-6e" x="495.751953"/>
      <use xlink:href="#DejaVuSans-69" x="559.130859"/>
      <use xlink:href="#DejaVuSans-74" x="586.914062"/>
      <use xlink:href="#DejaVuSans-20" x="626.123047"/>
      <use xlink:href="#DejaVuSans-62" x="657.910156"/>
      <use xlink:href="#DejaVuSans-61" x="721.386719"/>
      <use xlink:href="#DejaVuSans-6c" x="782.666016"/>
      <use xlink:href="#DejaVuSans-6c" x="810.449219"/>
     </g>
    </g>
    <g id="line2d_20">
     <path d="M 126 115.522031 
L 141 115.522031 
L 156 115.522031 
" style="fill: none; stroke: #dda0dd; stroke-width: 1.5; stroke-linecap: square"/>
    </g>
    <g id="text_19">
     <!-- steps to norm 2 ball -->
     <g transform="translate(168 120.772031) scale(0.15 -0.15)">
      <defs>
       <path id="DejaVuSans-6d" d="M 3328 2828 
Q 3544 3216 3844 3400 
Q 4144 3584 4550 3584 
Q 5097 3584 5394 3201 
Q 5691 2819 5691 2113 
L 5691 0 
L 5113 0 
L 5113 2094 
Q 5113 2597 4934 2840 
Q 4756 3084 4391 3084 
Q 3944 3084 3684 2787 
Q 3425 2491 3425 1978 
L 3425 0 
L 2847 0 
L 2847 2094 
Q 2847 2600 2669 2842 
Q 2491 3084 2119 3084 
Q 1678 3084 1418 2786 
Q 1159 2488 1159 1978 
L 1159 0 
L 581 0 
L 581 3500 
L 1159 3500 
L 1159 2956 
Q 1356 3278 1631 3431 
Q 1906 3584 2284 3584 
Q 2666 3584 2933 3390 
Q 3200 3197 3328 2828 
z
" transform="scale(0.015625)"/>
      </defs>
      <use xlink:href="#DejaVuSans-73"/>
      <use xlink:href="#DejaVuSans-74" x="52.099609"/>
      <use xlink:href="#DejaVuSans-65" x="91.308594"/>
      <use xlink:href="#DejaVuSans-70" x="152.832031"/>
      <use xlink:href="#DejaVuSans-73" x="216.308594"/>
      <use xlink:href="#DejaVuSans-20" x="268.408203"/>
      <use xlink:href="#DejaVuSans-74" x="300.195312"/>
      <use xlink:href="#DejaVuSans-6f" x="339.404297"/>
      <use xlink:href="#DejaVuSans-20" x="400.585938"/>
      <use xlink:href="#DejaVuSans-6e" x="432.373047"/>
      <use xlink:href="#DejaVuSans-6f" x="495.751953"/>
      <use xlink:href="#DejaVuSans-72" x="556.933594"/>
      <use xlink:href="#DejaVuSans-6d" x="596.296875"/>
      <use xlink:href="#DejaVuSans-20" x="693.708984"/>
      <use xlink:href="#DejaVuSans-32" x="725.496094"/>
      <use xlink:href="#DejaVuSans-20" x="789.119141"/>
      <use xlink:href="#DejaVuSans-62" x="820.90625"/>
      <use xlink:href="#DejaVuSans-61" x="884.382812"/>
      <use xlink:href="#DejaVuSans-6c" x="945.662109"/>
      <use xlink:href="#DejaVuSans-6c" x="973.445312"/>
     </g>
    </g>
   </g>
  </g>
  <g id="axes_2">
   <g id="PolyCollection_4">
    <defs>
     <path id="m032822a276" d="M 112.5 -253.082701 
L 112.5 -278.581139 
L 129.9375 -299.034893 
L 147.375 -304.86643 
L 164.8125 -310.158904 
L 182.25 -311.345383 
L 199.6875 -312.145848 
L 217.125 -311.600778 
L 234.5625 -317.917697 
L 252 -321.628861 
L 269.4375 -326.849467 
L 286.875 -328.500882 
L 304.3125 -331.982884 
L 321.75 -333.878396 
L 339.1875 -336.350392 
L 356.625 -337.906957 
L 374.0625 -340.395762 
L 391.5 -337.993374 
L 408.9375 -341.074868 
L 426.375 -337.070502 
L 443.8125 -335.512339 
L 461.25 -327.391451 
L 478.6875 -333.082449 
L 496.125 -321.253319 
L 513.5625 -321.992829 
L 531 -310.64087 
L 548.4375 -310.73572 
L 565.875 -295.350459 
L 583.3125 -282.85556 
L 600.75 -282.980943 
L 618.1875 -277.832921 
L 635.625 -288.027667 
L 653.0625 -293.660686 
L 670.5 -293.589149 
L 687.9375 -297.61523 
L 705.375 -310.96703 
L 722.8125 -323.385597 
L 740.25 -336.126522 
L 757.6875 -341.860012 
L 775.125 -351.778806 
L 792.5625 -358.990931 
L 810 -365.04 
L 810 -62.64 
L 810 -62.64 
L 792.5625 -93.806289 
L 775.125 -99.328971 
L 757.6875 -153.582272 
L 740.25 -192.075652 
L 722.8125 -212.669449 
L 705.375 -197.471464 
L 687.9375 -217.192762 
L 670.5 -217.346969 
L 653.0625 -205.817269 
L 635.625 -207.651274 
L 618.1875 -199.559155 
L 600.75 -204.076626 
L 583.3125 -197.250955 
L 565.875 -197.731378 
L 548.4375 -203.168855 
L 531 -203.922364 
L 513.5625 -208.696993 
L 496.125 -209.712511 
L 478.6875 -198.168151 
L 461.25 -199.943239 
L 443.8125 -196.25616 
L 426.375 -194.733546 
L 408.9375 -185.833411 
L 391.5 -190.836871 
L 374.0625 -190.988487 
L 356.625 -195.991727 
L 339.1875 -178.985089 
L 321.75 -184.001666 
L 304.3125 -181.87275 
L 286.875 -187.953729 
L 269.4375 -192.856442 
L 252 -199.553478 
L 234.5625 -200.506773 
L 217.125 -206.37248 
L 199.6875 -214.531341 
L 182.25 -222.953478 
L 164.8125 -231.918536 
L 147.375 -241.600894 
L 129.9375 -249.251721 
L 112.5 -253.082701 
z
"/>
    </defs>
    <g clip-path="url(#p6443e8d084)">
     <use xlink:href="#m032822a276" x="0" y="432" style="fill: #ffa500; fill-opacity: 0.3"/>
    </g>
   </g>
   <g id="matplotlib.axis_3">
    <g id="ytick_6">
     <g id="line2d_21">
      <defs>
       <path id="m17d0bc03eb" d="M 0 0 
L 3.5 0 
" style="stroke: #000000; stroke-width: 0.8"/>
      </defs>
      <g>
       <use xlink:href="#m17d0bc03eb" x="810" y="348.688549" style="stroke: #000000; stroke-width: 0.8"/>
      </g>
     </g>
     <g id="text_20">
      <!-- −110 -->
      <g transform="translate(817 356.286986) scale(0.2 -0.2)">
       <defs>
        <path id="DejaVuSans-2212" d="M 678 2272 
L 4684 2272 
L 4684 1741 
L 678 1741 
L 678 2272 
z
" transform="scale(0.015625)"/>
       </defs>
       <use xlink:href="#DejaVuSans-2212"/>
       <use xlink:href="#DejaVuSans-31" x="83.789062"/>
       <use xlink:href="#DejaVuSans-31" x="147.412109"/>
       <use xlink:href="#DejaVuSans-30" x="211.035156"/>
      </g>
     </g>
    </g>
    <g id="ytick_7">
     <g id="line2d_22">
      <g>
       <use xlink:href="#m17d0bc03eb" x="810" y="276.450459" style="stroke: #000000; stroke-width: 0.8"/>
      </g>
     </g>
     <g id="text_21">
      <!-- −100 -->
      <g transform="translate(817 284.048897) scale(0.2 -0.2)">
       <use xlink:href="#DejaVuSans-2212"/>
       <use xlink:href="#DejaVuSans-31" x="83.789062"/>
       <use xlink:href="#DejaVuSans-30" x="147.412109"/>
       <use xlink:href="#DejaVuSans-30" x="211.035156"/>
      </g>
     </g>
    </g>
    <g id="ytick_8">
     <g id="line2d_23">
      <g>
       <use xlink:href="#m17d0bc03eb" x="810" y="204.21237" style="stroke: #000000; stroke-width: 0.8"/>
      </g>
     </g>
     <g id="text_22">
      <!-- −90 -->
      <g transform="translate(817 211.810807) scale(0.2 -0.2)">
       <defs>
        <path id="DejaVuSans-39" d="M 703 97 
L 703 672 
Q 941 559 1184 500 
Q 1428 441 1663 441 
Q 2288 441 2617 861 
Q 2947 1281 2994 2138 
Q 2813 1869 2534 1725 
Q 2256 1581 1919 1581 
Q 1219 1581 811 2004 
Q 403 2428 403 3163 
Q 403 3881 828 4315 
Q 1253 4750 1959 4750 
Q 2769 4750 3195 4129 
Q 3622 3509 3622 2328 
Q 3622 1225 3098 567 
Q 2575 -91 1691 -91 
Q 1453 -91 1209 -44 
Q 966 3 703 97 
z
M 1959 2075 
Q 2384 2075 2632 2365 
Q 2881 2656 2881 3163 
Q 2881 3666 2632 3958 
Q 2384 4250 1959 4250 
Q 1534 4250 1286 3958 
Q 1038 3666 1038 3163 
Q 1038 2656 1286 2365 
Q 1534 2075 1959 2075 
z
" transform="scale(0.015625)"/>
       </defs>
       <use xlink:href="#DejaVuSans-2212"/>
       <use xlink:href="#DejaVuSans-39" x="83.789062"/>
       <use xlink:href="#DejaVuSans-30" x="147.412109"/>
      </g>
     </g>
    </g>
    <g id="ytick_9">
     <g id="line2d_24">
      <g>
       <use xlink:href="#m17d0bc03eb" x="810" y="131.97428" style="stroke: #000000; stroke-width: 0.8"/>
      </g>
     </g>
     <g id="text_23">
      <!-- −80 -->
      <g transform="translate(817 139.572718) scale(0.2 -0.2)">
       <defs>
        <path id="DejaVuSans-38" d="M 2034 2216 
Q 1584 2216 1326 1975 
Q 1069 1734 1069 1313 
Q 1069 891 1326 650 
Q 1584 409 2034 409 
Q 2484 409 2743 651 
Q 3003 894 3003 1313 
Q 3003 1734 2745 1975 
Q 2488 2216 2034 2216 
z
M 1403 2484 
Q 997 2584 770 2862 
Q 544 3141 544 3541 
Q 544 4100 942 4425 
Q 1341 4750 2034 4750 
Q 2731 4750 3128 4425 
Q 3525 4100 3525 3541 
Q 3525 3141 3298 2862 
Q 3072 2584 2669 2484 
Q 3125 2378 3379 2068 
Q 3634 1759 3634 1313 
Q 3634 634 3220 271 
Q 2806 -91 2034 -91 
Q 1263 -91 848 271 
Q 434 634 434 1313 
Q 434 1759 690 2068 
Q 947 2378 1403 2484 
z
M 1172 3481 
Q 1172 3119 1398 2916 
Q 1625 2713 2034 2713 
Q 2441 2713 2670 2916 
Q 2900 3119 2900 3481 
Q 2900 3844 2670 4047 
Q 2441 4250 2034 4250 
Q 1625 4250 1398 4047 
Q 1172 3844 1172 3481 
z
" transform="scale(0.015625)"/>
       </defs>
       <use xlink:href="#DejaVuSans-2212"/>
       <use xlink:href="#DejaVuSans-38" x="83.789062"/>
       <use xlink:href="#DejaVuSans-30" x="147.412109"/>
      </g>
     </g>
    </g>
    <g id="ytick_10">
     <g id="line2d_25">
      <g>
       <use xlink:href="#m17d0bc03eb" x="810" y="59.736191" style="stroke: #000000; stroke-width: 0.8"/>
      </g>
     </g>
     <g id="text_24">
      <!-- −70 -->
      <g transform="translate(817 67.334629) scale(0.2 -0.2)">
       <defs>
        <path id="DejaVuSans-37" d="M 525 4666 
L 3525 4666 
L 3525 4397 
L 1831 0 
L 1172 0 
L 2766 4134 
L 525 4134 
L 525 4666 
z
" transform="scale(0.015625)"/>
       </defs>
       <use xlink:href="#DejaVuSans-2212"/>
       <use xlink:href="#DejaVuSans-37" x="83.789062"/>
       <use xlink:href="#DejaVuSans-30" x="147.412109"/>
      </g>
     </g>
    </g>
    <g id="text_25">
     <!-- Rewards -->
     <g transform="translate(891.13125 260.611562) rotate(-90) scale(0.2 -0.2)">
      <defs>
       <path id="DejaVuSans-52" d="M 2841 2188 
Q 3044 2119 3236 1894 
Q 3428 1669 3622 1275 
L 4263 0 
L 3584 0 
L 2988 1197 
Q 2756 1666 2539 1819 
Q 2322 1972 1947 1972 
L 1259 1972 
L 1259 0 
L 628 0 
L 628 4666 
L 2053 4666 
Q 2853 4666 3247 4331 
Q 3641 3997 3641 3322 
Q 3641 2881 3436 2590 
Q 3231 2300 2841 2188 
z
M 1259 4147 
L 1259 2491 
L 2053 2491 
Q 2509 2491 2742 2702 
Q 2975 2913 2975 3322 
Q 2975 3731 2742 3939 
Q 2509 4147 2053 4147 
L 1259 4147 
z
" transform="scale(0.015625)"/>
       <path id="DejaVuSans-77" d="M 269 3500 
L 844 3500 
L 1563 769 
L 2278 3500 
L 2956 3500 
L 3675 769 
L 4391 3500 
L 4966 3500 
L 4050 0 
L 3372 0 
L 2619 2869 
L 1863 0 
L 1184 0 
L 269 3500 
z
" transform="scale(0.015625)"/>
       <path id="DejaVuSans-64" d="M 2906 2969 
L 2906 4863 
L 3481 4863 
L 3481 0 
L 2906 0 
L 2906 525 
Q 2725 213 2448 61 
Q 2172 -91 1784 -91 
Q 1150 -91 751 415 
Q 353 922 353 1747 
Q 353 2572 751 3078 
Q 1150 3584 1784 3584 
Q 2172 3584 2448 3432 
Q 2725 3281 2906 2969 
z
M 947 1747 
Q 947 1113 1208 752 
Q 1469 391 1925 391 
Q 2381 391 2643 752 
Q 2906 1113 2906 1747 
Q 2906 2381 2643 2742 
Q 2381 3103 1925 3103 
Q 1469 3103 1208 2742 
Q 947 2381 947 1747 
z
" transform="scale(0.015625)"/>
      </defs>
      <use xlink:href="#DejaVuSans-52"/>
      <use xlink:href="#DejaVuSans-65" x="64.982422"/>
      <use xlink:href="#DejaVuSans-77" x="126.505859"/>
      <use xlink:href="#DejaVuSans-61" x="208.292969"/>
      <use xlink:href="#DejaVuSans-72" x="269.572266"/>
      <use xlink:href="#DejaVuSans-64" x="308.935547"/>
      <use xlink:href="#DejaVuSans-73" x="372.412109"/>
     </g>
    </g>
   </g>
   <g id="line2d_26">
    <path d="M 112.5 162.556176 
L 129.9375 157.856693 
L 147.375 158.766338 
L 164.8125 160.96128 
L 182.25 164.85057 
L 199.6875 168.661405 
L 217.125 173.013371 
L 234.5625 172.787765 
L 252 171.40883 
L 269.4375 172.147045 
L 286.875 173.772694 
L 304.3125 175.072183 
L 321.75 173.059969 
L 339.1875 174.33226 
L 356.625 165.050658 
L 374.0625 166.307875 
L 391.5 167.584878 
L 408.9375 168.54586 
L 426.375 166.097976 
L 443.8125 166.11575 
L 461.25 168.332655 
L 478.6875 166.3747 
L 496.125 166.517085 
L 513.5625 166.655089 
L 531 174.718383 
L 548.4375 175.047713 
L 565.875 185.459081 
L 583.3125 191.946742 
L 600.75 188.471216 
L 618.1875 193.303962 
L 635.625 184.16053 
L 653.0625 182.261023 
L 670.5 176.531941 
L 687.9375 174.596004 
L 705.375 177.780753 
L 722.8125 163.972477 
L 740.25 167.898913 
L 757.6875 184.278858 
L 775.125 206.446111 
L 792.5625 205.60139 
L 810 218.16 
" clip-path="url(#p6443e8d084)" style="fill: none; stroke: #ffa500; stroke-width: 1.5; stroke-linecap: square"/>
   </g>
   <g id="patch_8">
    <path d="M 112.5 384.48 
L 112.5 51.84 
" style="fill: none; stroke: #000000; stroke-width: 0.8; stroke-linejoin: miter; stroke-linecap: square"/>
   </g>
   <g id="patch_9">
    <path d="M 810 384.48 
L 810 51.84 
" style="fill: none; stroke: #000000; stroke-width: 0.8; stroke-linejoin: miter; stroke-linecap: square"/>
   </g>
   <g id="patch_10">
    <path d="M 112.5 384.48 
L 810 384.48 
" style="fill: none; stroke: #000000; stroke-width: 0.8; stroke-linejoin: miter; stroke-linecap: square"/>
   </g>
   <g id="patch_11">
    <path d="M 112.5 51.84 
L 810 51.84 
" style="fill: none; stroke: #000000; stroke-width: 0.8; stroke-linejoin: miter; stroke-linecap: square"/>
   </g>
   <g id="legend_2">
    <g id="patch_12">
     <path d="M 691.741406 85.857187 
L 799.5 85.857187 
Q 802.5 85.857187 802.5 82.857187 
L 802.5 62.34 
Q 802.5 59.34 799.5 59.34 
L 691.741406 59.34 
Q 688.741406 59.34 688.741406 62.34 
L 688.741406 82.857187 
Q 688.741406 85.857187 691.741406 85.857187 
z
" style="fill: #ffffff; opacity: 0.8; stroke: #cccccc; stroke-linejoin: miter"/>
    </g>
    <g id="line2d_27">
     <path d="M 694.741406 71.487656 
L 709.741406 71.487656 
L 724.741406 71.487656 
" style="fill: none; stroke: #ffa500; stroke-width: 1.5; stroke-linecap: square"/>
    </g>
    <g id="text_26">
     <!-- rewards -->
     <g transform="translate(736.741406 76.737656) scale(0.15 -0.15)">
      <use xlink:href="#DejaVuSans-72"/>
      <use xlink:href="#DejaVuSans-65" x="38.863281"/>
      <use xlink:href="#DejaVuSans-77" x="100.386719"/>
      <use xlink:href="#DejaVuSans-61" x="182.173828"/>
      <use xlink:href="#DejaVuSans-72" x="243.453125"/>
      <use xlink:href="#DejaVuSans-64" x="282.816406"/>
      <use xlink:href="#DejaVuSans-73" x="346.292969"/>
     </g>
    </g>
   </g>
  </g>
 </g>
 <defs>
  <clipPath id="p6443e8d084">
   <rect x="112.5" y="51.84" width="697.5" height="332.64"/>
  </clipPath>
 </defs>
</svg>
