<?xml version="1.0" encoding="utf-8" standalone="no"?>
<!DOCTYPE svg PUBLIC "-//W3C//DTD SVG 1.1//EN"
  "http://www.w3.org/Graphics/SVG/1.1/DTD/svg11.dtd">
<svg xmlns:xlink="http://www.w3.org/1999/xlink" width="900pt" height="432pt" viewBox="0 0 900 432" xmlns="http://www.w3.org/2000/svg" version="1.1">
 <metadata>
  <rdf:RDF xmlns:dc="http://purl.org/dc/elements/1.1/" xmlns:cc="http://creativecommons.org/ns#" xmlns:rdf="http://www.w3.org/1999/02/22-rdf-syntax-ns#">
   <cc:Work>
    <dc:type rdf:resource="http://purl.org/dc/dcmitype/StillImage"/>
    <dc:date>2024-09-06T11:34:10.902366</dc:date>
    <dc:format>image/svg+xml</dc:format>
    <dc:creator>
     <cc:Agent>
      <dc:title>Matplotlib v3.8.3, https://matplotlib.org/</dc:title>
     </cc:Agent>
    </dc:creator>
   </cc:Work>
  </rdf:RDF>
 </metadata>
 <defs>
  <style type="text/css">*{stroke-linejoin: round; stroke-linecap: butt}</style>
 </defs>
 <g id="figure_1">
  <g id="patch_1">
   <path d="M 0 432 
L 900 432 
L 900 0 
L 0 0 
z
" style="fill: #ffffff"/>
  </g>
  <g id="axes_1">
   <g id="patch_2">
    <path d="M 112.5 384.48 
L 810 384.48 
L 810 51.84 
L 112.5 51.84 
z
" style="fill: #ffffff"/>
   </g>
   <g id="PolyCollection_1">
    <defs>
     <path id="m029952ae04" d="M 112.5 -354.392113 
L 112.5 -354.392113 
L 129.9375 -365.04 
L 147.375 -305.411831 
L 164.8125 -320.318873 
L 182.25 -275.597746 
L 199.6875 -241.524507 
L 217.125 -233.006197 
L 234.5625 -222.35831 
L 252 -213.84 
L 269.4375 -243.654085 
L 286.875 -245.783662 
L 304.3125 -224.487887 
L 321.75 -239.39493 
L 339.1875 -233.006197 
L 356.625 -230.87662 
L 374.0625 -237.265352 
L 391.5 -237.265352 
L 408.9375 -241.524507 
L 426.375 -243.654085 
L 443.8125 -247.913239 
L 461.25 -245.783662 
L 478.6875 -243.654085 
L 496.125 -239.39493 
L 513.5625 -241.524507 
L 531 -241.524507 
L 548.4375 -247.913239 
L 565.875 -243.654085 
L 583.3125 -243.654085 
L 600.75 -241.524507 
L 618.1875 -241.524507 
L 635.625 -247.913239 
L 653.0625 -247.913239 
L 670.5 -247.913239 
L 687.9375 -247.913239 
L 705.375 -247.913239 
L 722.8125 -254.301972 
L 740.25 -245.783662 
L 757.6875 -247.913239 
L 775.125 -245.783662 
L 792.5625 -247.913239 
L 810 -245.783662 
L 810 -215.969577 
L 810 -215.969577 
L 792.5625 -218.099155 
L 775.125 -218.099155 
L 757.6875 -218.099155 
L 740.25 -215.969577 
L 722.8125 -215.969577 
L 705.375 -215.969577 
L 687.9375 -213.84 
L 670.5 -213.84 
L 653.0625 -213.84 
L 635.625 -211.710423 
L 618.1875 -209.580845 
L 600.75 -207.451268 
L 583.3125 -205.32169 
L 565.875 -201.062535 
L 548.4375 -203.192113 
L 531 -198.932958 
L 513.5625 -196.80338 
L 496.125 -192.544225 
L 478.6875 -179.766761 
L 461.25 -179.766761 
L 443.8125 -173.378028 
L 426.375 -156.341408 
L 408.9375 -160.600563 
L 391.5 -160.600563 
L 374.0625 -149.952676 
L 356.625 -147.823099 
L 339.1875 -147.823099 
L 321.75 -164.859718 
L 304.3125 -162.730141 
L 286.875 -160.600563 
L 269.4375 -154.211831 
L 252 -143.563944 
L 234.5625 -139.304789 
L 217.125 -143.563944 
L 199.6875 -156.341408 
L 182.25 -169.118873 
L 164.8125 -177.637183 
L 147.375 -156.341408 
L 129.9375 -186.155493 
L 112.5 -354.392113 
z
"/>
    </defs>
    <g clip-path="url(#p94a748a3ef)">
     <use xlink:href="#m029952ae04" x="0" y="432" style="fill: #00bfbf; fill-opacity: 0.3"/>
    </g>
   </g>
   <g id="PolyCollection_2">
    <defs>
     <path id="m80ba6b82c2" d="M 112.5 -192.544225 
L 112.5 -192.544225 
L 129.9375 -196.80338 
L 147.375 -164.859718 
L 164.8125 -149.952676 
L 182.25 -130.786479 
L 199.6875 -120.138592 
L 217.125 -120.138592 
L 234.5625 -122.268169 
L 252 -122.268169 
L 269.4375 -126.527324 
L 286.875 -130.786479 
L 304.3125 -130.786479 
L 321.75 -128.656901 
L 339.1875 -132.916056 
L 356.625 -132.916056 
L 374.0625 -137.175211 
L 391.5 -141.434366 
L 408.9375 -139.304789 
L 426.375 -143.563944 
L 443.8125 -141.434366 
L 461.25 -139.304789 
L 478.6875 -139.304789 
L 496.125 -137.175211 
L 513.5625 -139.304789 
L 531 -139.304789 
L 548.4375 -141.434366 
L 565.875 -139.304789 
L 583.3125 -139.304789 
L 600.75 -139.304789 
L 618.1875 -139.304789 
L 635.625 -141.434366 
L 653.0625 -141.434366 
L 670.5 -141.434366 
L 687.9375 -141.434366 
L 705.375 -141.434366 
L 722.8125 -141.434366 
L 740.25 -139.304789 
L 757.6875 -141.434366 
L 775.125 -141.434366 
L 792.5625 -141.434366 
L 810 -141.434366 
L 810 -109.490704 
L 810 -109.490704 
L 792.5625 -109.490704 
L 775.125 -109.490704 
L 757.6875 -109.490704 
L 740.25 -111.620282 
L 722.8125 -109.490704 
L 705.375 -111.620282 
L 687.9375 -109.490704 
L 670.5 -109.490704 
L 653.0625 -109.490704 
L 635.625 -111.620282 
L 618.1875 -109.490704 
L 600.75 -107.361127 
L 583.3125 -109.490704 
L 565.875 -107.361127 
L 548.4375 -105.231549 
L 531 -103.101972 
L 513.5625 -100.972394 
L 496.125 -98.842817 
L 478.6875 -90.324507 
L 461.25 -90.324507 
L 443.8125 -86.065352 
L 426.375 -73.287887 
L 408.9375 -77.547042 
L 391.5 -73.287887 
L 374.0625 -81.806197 
L 356.625 -81.806197 
L 339.1875 -94.583662 
L 321.75 -92.454085 
L 304.3125 -90.324507 
L 286.875 -90.324507 
L 269.4375 -86.065352 
L 252 -83.935775 
L 234.5625 -88.19493 
L 217.125 -90.324507 
L 199.6875 -98.842817 
L 182.25 -103.101972 
L 164.8125 -105.231549 
L 147.375 -118.009014 
L 129.9375 -143.563944 
L 112.5 -192.544225 
z
"/>
    </defs>
    <g clip-path="url(#p94a748a3ef)">
     <use xlink:href="#m80ba6b82c2" x="0" y="432" style="fill: #6495ed; fill-opacity: 0.3"/>
    </g>
   </g>
   <g id="PolyCollection_3">
    <defs>
     <path id="m8999a1a61a" d="M 112.5 -139.304789 
L 112.5 -139.304789 
L 129.9375 -156.341408 
L 147.375 -143.563944 
L 164.8125 -132.916056 
L 182.25 -122.268169 
L 199.6875 -105.231549 
L 217.125 -100.972394 
L 234.5625 -96.713239 
L 252 -96.713239 
L 269.4375 -100.972394 
L 286.875 -100.972394 
L 304.3125 -100.972394 
L 321.75 -103.101972 
L 339.1875 -100.972394 
L 356.625 -103.101972 
L 374.0625 -105.231549 
L 391.5 -107.361127 
L 408.9375 -107.361127 
L 426.375 -109.490704 
L 443.8125 -109.490704 
L 461.25 -107.361127 
L 478.6875 -105.231549 
L 496.125 -107.361127 
L 513.5625 -107.361127 
L 531 -107.361127 
L 548.4375 -109.490704 
L 565.875 -109.490704 
L 583.3125 -109.490704 
L 600.75 -107.361127 
L 618.1875 -107.361127 
L 635.625 -109.490704 
L 653.0625 -109.490704 
L 670.5 -109.490704 
L 687.9375 -109.490704 
L 705.375 -109.490704 
L 722.8125 -109.490704 
L 740.25 -109.490704 
L 757.6875 -107.361127 
L 775.125 -107.361127 
L 792.5625 -107.361127 
L 810 -107.361127 
L 810 -86.065352 
L 810 -86.065352 
L 792.5625 -86.065352 
L 775.125 -86.065352 
L 757.6875 -86.065352 
L 740.25 -86.065352 
L 722.8125 -86.065352 
L 705.375 -86.065352 
L 687.9375 -86.065352 
L 670.5 -86.065352 
L 653.0625 -86.065352 
L 635.625 -86.065352 
L 618.1875 -86.065352 
L 600.75 -83.935775 
L 583.3125 -86.065352 
L 565.875 -83.935775 
L 548.4375 -83.935775 
L 531 -81.806197 
L 513.5625 -79.67662 
L 496.125 -79.67662 
L 478.6875 -73.287887 
L 461.25 -73.287887 
L 443.8125 -69.028732 
L 426.375 -62.64 
L 408.9375 -66.899155 
L 391.5 -62.64 
L 374.0625 -69.028732 
L 356.625 -69.028732 
L 339.1875 -75.417465 
L 321.75 -75.417465 
L 304.3125 -73.287887 
L 286.875 -75.417465 
L 269.4375 -73.287887 
L 252 -73.287887 
L 234.5625 -75.417465 
L 217.125 -77.547042 
L 199.6875 -83.935775 
L 182.25 -88.19493 
L 164.8125 -90.324507 
L 147.375 -100.972394 
L 129.9375 -124.397746 
L 112.5 -139.304789 
z
"/>
    </defs>
    <g clip-path="url(#p94a748a3ef)">
     <use xlink:href="#m8999a1a61a" x="0" y="432" style="fill: #dda0dd; fill-opacity: 0.3"/>
    </g>
   </g>
   <g id="matplotlib.axis_1">
    <g id="xtick_1">
     <g id="line2d_1">
      <defs>
       <path id="m1a884be0e6" d="M 0 0 
L 0 3.5 
" style="stroke: #000000; stroke-width: 0.8"/>
      </defs>
      <g>
       <use xlink:href="#m1a884be0e6" x="112.5" y="384.48" style="stroke: #000000; stroke-width: 0.8"/>
      </g>
     </g>
     <g id="text_1">
      <!-- 0 -->
      <g transform="translate(106.1375 406.676875) scale(0.2 -0.2)">
       <defs>
        <path id="DejaVuSans-30" d="M 2034 4250 
Q 1547 4250 1301 3770 
Q 1056 3291 1056 2328 
Q 1056 1369 1301 889 
Q 1547 409 2034 409 
Q 2525 409 2770 889 
Q 3016 1369 3016 2328 
Q 3016 3291 2770 3770 
Q 2525 4250 2034 4250 
z
M 2034 4750 
Q 2819 4750 3233 4129 
Q 3647 3509 3647 2328 
Q 3647 1150 3233 529 
Q 2819 -91 2034 -91 
Q 1250 -91 836 529 
Q 422 1150 422 2328 
Q 422 3509 836 4129 
Q 1250 4750 2034 4750 
z
" transform="scale(0.015625)"/>
       </defs>
       <use xlink:href="#DejaVuSans-30"/>
      </g>
     </g>
    </g>
    <g id="xtick_2">
     <g id="line2d_2">
      <g>
       <use xlink:href="#m1a884be0e6" x="199.6875" y="384.48" style="stroke: #000000; stroke-width: 0.8"/>
      </g>
     </g>
     <g id="text_2">
      <!-- 5 -->
      <g transform="translate(193.325 406.676875) scale(0.2 -0.2)">
       <defs>
        <path id="DejaVuSans-35" d="M 691 4666 
L 3169 4666 
L 3169 4134 
L 1269 4134 
L 1269 2991 
Q 1406 3038 1543 3061 
Q 1681 3084 1819 3084 
Q 2600 3084 3056 2656 
Q 3513 2228 3513 1497 
Q 3513 744 3044 326 
Q 2575 -91 1722 -91 
Q 1428 -91 1123 -41 
Q 819 9 494 109 
L 494 744 
Q 775 591 1075 516 
Q 1375 441 1709 441 
Q 2250 441 2565 725 
Q 2881 1009 2881 1497 
Q 2881 1984 2565 2268 
Q 2250 2553 1709 2553 
Q 1456 2553 1204 2497 
Q 953 2441 691 2322 
L 691 4666 
z
" transform="scale(0.015625)"/>
       </defs>
       <use xlink:href="#DejaVuSans-35"/>
      </g>
     </g>
    </g>
    <g id="xtick_3">
     <g id="line2d_3">
      <g>
       <use xlink:href="#m1a884be0e6" x="286.875" y="384.48" style="stroke: #000000; stroke-width: 0.8"/>
      </g>
     </g>
     <g id="text_3">
      <!-- 10 -->
      <g transform="translate(274.15 406.676875) scale(0.2 -0.2)">
       <defs>
        <path id="DejaVuSans-31" d="M 794 531 
L 1825 531 
L 1825 4091 
L 703 3866 
L 703 4441 
L 1819 4666 
L 2450 4666 
L 2450 531 
L 3481 531 
L 3481 0 
L 794 0 
L 794 531 
z
" transform="scale(0.015625)"/>
       </defs>
       <use xlink:href="#DejaVuSans-31"/>
       <use xlink:href="#DejaVuSans-30" x="63.623047"/>
      </g>
     </g>
    </g>
    <g id="xtick_4">
     <g id="line2d_4">
      <g>
       <use xlink:href="#m1a884be0e6" x="374.0625" y="384.48" style="stroke: #000000; stroke-width: 0.8"/>
      </g>
     </g>
     <g id="text_4">
      <!-- 15 -->
      <g transform="translate(361.3375 406.676875) scale(0.2 -0.2)">
       <use xlink:href="#DejaVuSans-31"/>
       <use xlink:href="#DejaVuSans-35" x="63.623047"/>
      </g>
     </g>
    </g>
    <g id="xtick_5">
     <g id="line2d_5">
      <g>
       <use xlink:href="#m1a884be0e6" x="461.25" y="384.48" style="stroke: #000000; stroke-width: 0.8"/>
      </g>
     </g>
     <g id="text_5">
      <!-- 20 -->
      <g transform="translate(448.525 406.676875) scale(0.2 -0.2)">
       <defs>
        <path id="DejaVuSans-32" d="M 1228 531 
L 3431 531 
L 3431 0 
L 469 0 
L 469 531 
Q 828 903 1448 1529 
Q 2069 2156 2228 2338 
Q 2531 2678 2651 2914 
Q 2772 3150 2772 3378 
Q 2772 3750 2511 3984 
Q 2250 4219 1831 4219 
Q 1534 4219 1204 4116 
Q 875 4013 500 3803 
L 500 4441 
Q 881 4594 1212 4672 
Q 1544 4750 1819 4750 
Q 2544 4750 2975 4387 
Q 3406 4025 3406 3419 
Q 3406 3131 3298 2873 
Q 3191 2616 2906 2266 
Q 2828 2175 2409 1742 
Q 1991 1309 1228 531 
z
" transform="scale(0.015625)"/>
       </defs>
       <use xlink:href="#DejaVuSans-32"/>
       <use xlink:href="#DejaVuSans-30" x="63.623047"/>
      </g>
     </g>
    </g>
    <g id="xtick_6">
     <g id="line2d_6">
      <g>
       <use xlink:href="#m1a884be0e6" x="548.4375" y="384.48" style="stroke: #000000; stroke-width: 0.8"/>
      </g>
     </g>
     <g id="text_6">
      <!-- 25 -->
      <g transform="translate(535.7125 406.676875) scale(0.2 -0.2)">
       <use xlink:href="#DejaVuSans-32"/>
       <use xlink:href="#DejaVuSans-35" x="63.623047"/>
      </g>
     </g>
    </g>
    <g id="xtick_7">
     <g id="line2d_7">
      <g>
       <use xlink:href="#m1a884be0e6" x="635.625" y="384.48" style="stroke: #000000; stroke-width: 0.8"/>
      </g>
     </g>
     <g id="text_7">
      <!-- 30 -->
      <g transform="translate(622.9 406.676875) scale(0.2 -0.2)">
       <defs>
        <path id="DejaVuSans-33" d="M 2597 2516 
Q 3050 2419 3304 2112 
Q 3559 1806 3559 1356 
Q 3559 666 3084 287 
Q 2609 -91 1734 -91 
Q 1441 -91 1130 -33 
Q 819 25 488 141 
L 488 750 
Q 750 597 1062 519 
Q 1375 441 1716 441 
Q 2309 441 2620 675 
Q 2931 909 2931 1356 
Q 2931 1769 2642 2001 
Q 2353 2234 1838 2234 
L 1294 2234 
L 1294 2753 
L 1863 2753 
Q 2328 2753 2575 2939 
Q 2822 3125 2822 3475 
Q 2822 3834 2567 4026 
Q 2313 4219 1838 4219 
Q 1578 4219 1281 4162 
Q 984 4106 628 3988 
L 628 4550 
Q 988 4650 1302 4700 
Q 1616 4750 1894 4750 
Q 2613 4750 3031 4423 
Q 3450 4097 3450 3541 
Q 3450 3153 3228 2886 
Q 3006 2619 2597 2516 
z
" transform="scale(0.015625)"/>
       </defs>
       <use xlink:href="#DejaVuSans-33"/>
       <use xlink:href="#DejaVuSans-30" x="63.623047"/>
      </g>
     </g>
    </g>
    <g id="xtick_8">
     <g id="line2d_8">
      <g>
       <use xlink:href="#m1a884be0e6" x="722.8125" y="384.48" style="stroke: #000000; stroke-width: 0.8"/>
      </g>
     </g>
     <g id="text_8">
      <!-- 35 -->
      <g transform="translate(710.0875 406.676875) scale(0.2 -0.2)">
       <use xlink:href="#DejaVuSans-33"/>
       <use xlink:href="#DejaVuSans-35" x="63.623047"/>
      </g>
     </g>
    </g>
    <g id="xtick_9">
     <g id="line2d_9">
      <g>
       <use xlink:href="#m1a884be0e6" x="810" y="384.48" style="stroke: #000000; stroke-width: 0.8"/>
      </g>
     </g>
     <g id="text_9">
      <!-- 40 -->
      <g transform="translate(797.275 406.676875) scale(0.2 -0.2)">
       <defs>
        <path id="DejaVuSans-34" d="M 2419 4116 
L 825 1625 
L 2419 1625 
L 2419 4116 
z
M 2253 4666 
L 3047 4666 
L 3047 1625 
L 3713 1625 
L 3713 1100 
L 3047 1100 
L 3047 0 
L 2419 0 
L 2419 1100 
L 313 1100 
L 313 1709 
L 2253 4666 
z
" transform="scale(0.015625)"/>
       </defs>
       <use xlink:href="#DejaVuSans-34"/>
       <use xlink:href="#DejaVuSans-30" x="63.623047"/>
      </g>
     </g>
    </g>
    <g id="text_10">
     <!-- Iterations -->
     <g transform="translate(413.623438 430.033125) scale(0.2 -0.2)">
      <defs>
       <path id="DejaVuSans-49" d="M 628 4666 
L 1259 4666 
L 1259 0 
L 628 0 
L 628 4666 
z
" transform="scale(0.015625)"/>
       <path id="DejaVuSans-74" d="M 1172 4494 
L 1172 3500 
L 2356 3500 
L 2356 3053 
L 1172 3053 
L 1172 1153 
Q 1172 725 1289 603 
Q 1406 481 1766 481 
L 2356 481 
L 2356 0 
L 1766 0 
Q 1100 0 847 248 
Q 594 497 594 1153 
L 594 3053 
L 172 3053 
L 172 3500 
L 594 3500 
L 594 4494 
L 1172 4494 
z
" transform="scale(0.015625)"/>
       <path id="DejaVuSans-65" d="M 3597 1894 
L 3597 1613 
L 953 1613 
Q 991 1019 1311 708 
Q 1631 397 2203 397 
Q 2534 397 2845 478 
Q 3156 559 3463 722 
L 3463 178 
Q 3153 47 2828 -22 
Q 2503 -91 2169 -91 
Q 1331 -91 842 396 
Q 353 884 353 1716 
Q 353 2575 817 3079 
Q 1281 3584 2069 3584 
Q 2775 3584 3186 3129 
Q 3597 2675 3597 1894 
z
M 3022 2063 
Q 3016 2534 2758 2815 
Q 2500 3097 2075 3097 
Q 1594 3097 1305 2825 
Q 1016 2553 972 2059 
L 3022 2063 
z
" transform="scale(0.015625)"/>
       <path id="DejaVuSans-72" d="M 2631 2963 
Q 2534 3019 2420 3045 
Q 2306 3072 2169 3072 
Q 1681 3072 1420 2755 
Q 1159 2438 1159 1844 
L 1159 0 
L 581 0 
L 581 3500 
L 1159 3500 
L 1159 2956 
Q 1341 3275 1631 3429 
Q 1922 3584 2338 3584 
Q 2397 3584 2469 3576 
Q 2541 3569 2628 3553 
L 2631 2963 
z
" transform="scale(0.015625)"/>
       <path id="DejaVuSans-61" d="M 2194 1759 
Q 1497 1759 1228 1600 
Q 959 1441 959 1056 
Q 959 750 1161 570 
Q 1363 391 1709 391 
Q 2188 391 2477 730 
Q 2766 1069 2766 1631 
L 2766 1759 
L 2194 1759 
z
M 3341 1997 
L 3341 0 
L 2766 0 
L 2766 531 
Q 2569 213 2275 61 
Q 1981 -91 1556 -91 
Q 1019 -91 701 211 
Q 384 513 384 1019 
Q 384 1609 779 1909 
Q 1175 2209 1959 2209 
L 2766 2209 
L 2766 2266 
Q 2766 2663 2505 2880 
Q 2244 3097 1772 3097 
Q 1472 3097 1187 3025 
Q 903 2953 641 2809 
L 641 3341 
Q 956 3463 1253 3523 
Q 1550 3584 1831 3584 
Q 2591 3584 2966 3190 
Q 3341 2797 3341 1997 
z
" transform="scale(0.015625)"/>
       <path id="DejaVuSans-69" d="M 603 3500 
L 1178 3500 
L 1178 0 
L 603 0 
L 603 3500 
z
M 603 4863 
L 1178 4863 
L 1178 4134 
L 603 4134 
L 603 4863 
z
" transform="scale(0.015625)"/>
       <path id="DejaVuSans-6f" d="M 1959 3097 
Q 1497 3097 1228 2736 
Q 959 2375 959 1747 
Q 959 1119 1226 758 
Q 1494 397 1959 397 
Q 2419 397 2687 759 
Q 2956 1122 2956 1747 
Q 2956 2369 2687 2733 
Q 2419 3097 1959 3097 
z
M 1959 3584 
Q 2709 3584 3137 3096 
Q 3566 2609 3566 1747 
Q 3566 888 3137 398 
Q 2709 -91 1959 -91 
Q 1206 -91 779 398 
Q 353 888 353 1747 
Q 353 2609 779 3096 
Q 1206 3584 1959 3584 
z
" transform="scale(0.015625)"/>
       <path id="DejaVuSans-6e" d="M 3513 2113 
L 3513 0 
L 2938 0 
L 2938 2094 
Q 2938 2591 2744 2837 
Q 2550 3084 2163 3084 
Q 1697 3084 1428 2787 
Q 1159 2491 1159 1978 
L 1159 0 
L 581 0 
L 581 3500 
L 1159 3500 
L 1159 2956 
Q 1366 3272 1645 3428 
Q 1925 3584 2291 3584 
Q 2894 3584 3203 3211 
Q 3513 2838 3513 2113 
z
" transform="scale(0.015625)"/>
       <path id="DejaVuSans-73" d="M 2834 3397 
L 2834 2853 
Q 2591 2978 2328 3040 
Q 2066 3103 1784 3103 
Q 1356 3103 1142 2972 
Q 928 2841 928 2578 
Q 928 2378 1081 2264 
Q 1234 2150 1697 2047 
L 1894 2003 
Q 2506 1872 2764 1633 
Q 3022 1394 3022 966 
Q 3022 478 2636 193 
Q 2250 -91 1575 -91 
Q 1294 -91 989 -36 
Q 684 19 347 128 
L 347 722 
Q 666 556 975 473 
Q 1284 391 1588 391 
Q 1994 391 2212 530 
Q 2431 669 2431 922 
Q 2431 1156 2273 1281 
Q 2116 1406 1581 1522 
L 1381 1569 
Q 847 1681 609 1914 
Q 372 2147 372 2553 
Q 372 3047 722 3315 
Q 1072 3584 1716 3584 
Q 2034 3584 2315 3537 
Q 2597 3491 2834 3397 
z
" transform="scale(0.015625)"/>
      </defs>
      <use xlink:href="#DejaVuSans-49"/>
      <use xlink:href="#DejaVuSans-74" x="29.492188"/>
      <use xlink:href="#DejaVuSans-65" x="68.701172"/>
      <use xlink:href="#DejaVuSans-72" x="130.224609"/>
      <use xlink:href="#DejaVuSans-61" x="171.337891"/>
      <use xlink:href="#DejaVuSans-74" x="232.617188"/>
      <use xlink:href="#DejaVuSans-69" x="271.826172"/>
      <use xlink:href="#DejaVuSans-6f" x="299.609375"/>
      <use xlink:href="#DejaVuSans-6e" x="360.791016"/>
      <use xlink:href="#DejaVuSans-73" x="424.169922"/>
     </g>
    </g>
   </g>
   <g id="matplotlib.axis_2">
    <g id="ytick_1">
     <g id="line2d_10">
      <defs>
       <path id="m6e3686b4ad" d="M 0 0 
L -3.5 0 
" style="stroke: #000000; stroke-width: 0.8"/>
      </defs>
      <g>
       <use xlink:href="#m6e3686b4ad" x="112.5" y="369.36" style="stroke: #000000; stroke-width: 0.8"/>
      </g>
     </g>
     <g id="text_11">
      <!-- 60 -->
      <g transform="translate(80.05 376.958438) scale(0.2 -0.2)">
       <defs>
        <path id="DejaVuSans-36" d="M 2113 2584 
Q 1688 2584 1439 2293 
Q 1191 2003 1191 1497 
Q 1191 994 1439 701 
Q 1688 409 2113 409 
Q 2538 409 2786 701 
Q 3034 994 3034 1497 
Q 3034 2003 2786 2293 
Q 2538 2584 2113 2584 
z
M 3366 4563 
L 3366 3988 
Q 3128 4100 2886 4159 
Q 2644 4219 2406 4219 
Q 1781 4219 1451 3797 
Q 1122 3375 1075 2522 
Q 1259 2794 1537 2939 
Q 1816 3084 2150 3084 
Q 2853 3084 3261 2657 
Q 3669 2231 3669 1497 
Q 3669 778 3244 343 
Q 2819 -91 2113 -91 
Q 1303 -91 875 529 
Q 447 1150 447 2328 
Q 447 3434 972 4092 
Q 1497 4750 2381 4750 
Q 2619 4750 2861 4703 
Q 3103 4656 3366 4563 
z
" transform="scale(0.015625)"/>
       </defs>
       <use xlink:href="#DejaVuSans-36"/>
       <use xlink:href="#DejaVuSans-30" x="63.623047"/>
      </g>
     </g>
    </g>
    <g id="ytick_2">
     <g id="line2d_11">
      <g>
       <use xlink:href="#m6e3686b4ad" x="112.5" y="326.768451" style="stroke: #000000; stroke-width: 0.8"/>
      </g>
     </g>
     <g id="text_12">
      <!-- 80 -->
      <g transform="translate(80.05 334.366888) scale(0.2 -0.2)">
       <defs>
        <path id="DejaVuSans-38" d="M 2034 2216 
Q 1584 2216 1326 1975 
Q 1069 1734 1069 1313 
Q 1069 891 1326 650 
Q 1584 409 2034 409 
Q 2484 409 2743 651 
Q 3003 894 3003 1313 
Q 3003 1734 2745 1975 
Q 2488 2216 2034 2216 
z
M 1403 2484 
Q 997 2584 770 2862 
Q 544 3141 544 3541 
Q 544 4100 942 4425 
Q 1341 4750 2034 4750 
Q 2731 4750 3128 4425 
Q 3525 4100 3525 3541 
Q 3525 3141 3298 2862 
Q 3072 2584 2669 2484 
Q 3125 2378 3379 2068 
Q 3634 1759 3634 1313 
Q 3634 634 3220 271 
Q 2806 -91 2034 -91 
Q 1263 -91 848 271 
Q 434 634 434 1313 
Q 434 1759 690 2068 
Q 947 2378 1403 2484 
z
M 1172 3481 
Q 1172 3119 1398 2916 
Q 1625 2713 2034 2713 
Q 2441 2713 2670 2916 
Q 2900 3119 2900 3481 
Q 2900 3844 2670 4047 
Q 2441 4250 2034 4250 
Q 1625 4250 1398 4047 
Q 1172 3844 1172 3481 
z
" transform="scale(0.015625)"/>
       </defs>
       <use xlink:href="#DejaVuSans-38"/>
       <use xlink:href="#DejaVuSans-30" x="63.623047"/>
      </g>
     </g>
    </g>
    <g id="ytick_3">
     <g id="line2d_12">
      <g>
       <use xlink:href="#m6e3686b4ad" x="112.5" y="284.176901" style="stroke: #000000; stroke-width: 0.8"/>
      </g>
     </g>
     <g id="text_13">
      <!-- 100 -->
      <g transform="translate(67.325 291.775339) scale(0.2 -0.2)">
       <use xlink:href="#DejaVuSans-31"/>
       <use xlink:href="#DejaVuSans-30" x="63.623047"/>
       <use xlink:href="#DejaVuSans-30" x="127.246094"/>
      </g>
     </g>
    </g>
    <g id="ytick_4">
     <g id="line2d_13">
      <g>
       <use xlink:href="#m6e3686b4ad" x="112.5" y="241.585352" style="stroke: #000000; stroke-width: 0.8"/>
      </g>
     </g>
     <g id="text_14">
      <!-- 120 -->
      <g transform="translate(67.325 249.18379) scale(0.2 -0.2)">
       <use xlink:href="#DejaVuSans-31"/>
       <use xlink:href="#DejaVuSans-32" x="63.623047"/>
       <use xlink:href="#DejaVuSans-30" x="127.246094"/>
      </g>
     </g>
    </g>
    <g id="ytick_5">
     <g id="line2d_14">
      <g>
       <use xlink:href="#m6e3686b4ad" x="112.5" y="198.993803" style="stroke: #000000; stroke-width: 0.8"/>
      </g>
     </g>
     <g id="text_15">
      <!-- 140 -->
      <g transform="translate(67.325 206.59224) scale(0.2 -0.2)">
       <use xlink:href="#DejaVuSans-31"/>
       <use xlink:href="#DejaVuSans-34" x="63.623047"/>
       <use xlink:href="#DejaVuSans-30" x="127.246094"/>
      </g>
     </g>
    </g>
    <g id="ytick_6">
     <g id="line2d_15">
      <g>
       <use xlink:href="#m6e3686b4ad" x="112.5" y="156.402254" style="stroke: #000000; stroke-width: 0.8"/>
      </g>
     </g>
     <g id="text_16">
      <!-- 160 -->
      <g transform="translate(67.325 164.000691) scale(0.2 -0.2)">
       <use xlink:href="#DejaVuSans-31"/>
       <use xlink:href="#DejaVuSans-36" x="63.623047"/>
       <use xlink:href="#DejaVuSans-30" x="127.246094"/>
      </g>
     </g>
    </g>
    <g id="ytick_7">
     <g id="line2d_16">
      <g>
       <use xlink:href="#m6e3686b4ad" x="112.5" y="113.810704" style="stroke: #000000; stroke-width: 0.8"/>
      </g>
     </g>
     <g id="text_17">
      <!-- 180 -->
      <g transform="translate(67.325 121.409142) scale(0.2 -0.2)">
       <use xlink:href="#DejaVuSans-31"/>
       <use xlink:href="#DejaVuSans-38" x="63.623047"/>
       <use xlink:href="#DejaVuSans-30" x="127.246094"/>
      </g>
     </g>
    </g>
    <g id="ytick_8">
     <g id="line2d_17">
      <g>
       <use xlink:href="#m6e3686b4ad" x="112.5" y="71.219155" style="stroke: #000000; stroke-width: 0.8"/>
      </g>
     </g>
     <g id="text_18">
      <!-- 200 -->
      <g transform="translate(67.325 78.817592) scale(0.2 -0.2)">
       <use xlink:href="#DejaVuSans-32"/>
       <use xlink:href="#DejaVuSans-30" x="63.623047"/>
       <use xlink:href="#DejaVuSans-30" x="127.246094"/>
      </g>
     </g>
    </g>
    <g id="text_19">
     <!-- Steps / 0.01s -->
     <g transform="translate(59.165625 283.339687) rotate(-90) scale(0.2 -0.2)">
      <defs>
       <path id="DejaVuSans-53" d="M 3425 4513 
L 3425 3897 
Q 3066 4069 2747 4153 
Q 2428 4238 2131 4238 
Q 1616 4238 1336 4038 
Q 1056 3838 1056 3469 
Q 1056 3159 1242 3001 
Q 1428 2844 1947 2747 
L 2328 2669 
Q 3034 2534 3370 2195 
Q 3706 1856 3706 1288 
Q 3706 609 3251 259 
Q 2797 -91 1919 -91 
Q 1588 -91 1214 -16 
Q 841 59 441 206 
L 441 856 
Q 825 641 1194 531 
Q 1563 422 1919 422 
Q 2459 422 2753 634 
Q 3047 847 3047 1241 
Q 3047 1584 2836 1778 
Q 2625 1972 2144 2069 
L 1759 2144 
Q 1053 2284 737 2584 
Q 422 2884 422 3419 
Q 422 4038 858 4394 
Q 1294 4750 2059 4750 
Q 2388 4750 2728 4690 
Q 3069 4631 3425 4513 
z
" transform="scale(0.015625)"/>
       <path id="DejaVuSans-70" d="M 1159 525 
L 1159 -1331 
L 581 -1331 
L 581 3500 
L 1159 3500 
L 1159 2969 
Q 1341 3281 1617 3432 
Q 1894 3584 2278 3584 
Q 2916 3584 3314 3078 
Q 3713 2572 3713 1747 
Q 3713 922 3314 415 
Q 2916 -91 2278 -91 
Q 1894 -91 1617 61 
Q 1341 213 1159 525 
z
M 3116 1747 
Q 3116 2381 2855 2742 
Q 2594 3103 2138 3103 
Q 1681 3103 1420 2742 
Q 1159 2381 1159 1747 
Q 1159 1113 1420 752 
Q 1681 391 2138 391 
Q 2594 391 2855 752 
Q 3116 1113 3116 1747 
z
" transform="scale(0.015625)"/>
       <path id="DejaVuSans-20" transform="scale(0.015625)"/>
       <path id="DejaVuSans-2f" d="M 1625 4666 
L 2156 4666 
L 531 -594 
L 0 -594 
L 1625 4666 
z
" transform="scale(0.015625)"/>
       <path id="DejaVuSans-2e" d="M 684 794 
L 1344 794 
L 1344 0 
L 684 0 
L 684 794 
z
" transform="scale(0.015625)"/>
      </defs>
      <use xlink:href="#DejaVuSans-53"/>
      <use xlink:href="#DejaVuSans-74" x="63.476562"/>
      <use xlink:href="#DejaVuSans-65" x="102.685547"/>
      <use xlink:href="#DejaVuSans-70" x="164.208984"/>
      <use xlink:href="#DejaVuSans-73" x="227.685547"/>
      <use xlink:href="#DejaVuSans-20" x="279.785156"/>
      <use xlink:href="#DejaVuSans-2f" x="311.572266"/>
      <use xlink:href="#DejaVuSans-20" x="345.263672"/>
      <use xlink:href="#DejaVuSans-30" x="377.050781"/>
      <use xlink:href="#DejaVuSans-2e" x="440.673828"/>
      <use xlink:href="#DejaVuSans-30" x="472.460938"/>
      <use xlink:href="#DejaVuSans-31" x="536.083984"/>
      <use xlink:href="#DejaVuSans-73" x="599.707031"/>
     </g>
    </g>
   </g>
   <g id="line2d_18">
    <path d="M 112.5 77.607887 
L 129.9375 156.402254 
L 147.375 201.12338 
L 164.8125 183.021972 
L 182.25 209.64169 
L 199.6875 233.067042 
L 217.125 243.71493 
L 234.5625 251.168451 
L 252 253.298028 
L 269.4375 233.067042 
L 286.875 228.807887 
L 304.3125 238.390986 
L 321.75 229.872676 
L 339.1875 241.585352 
L 356.625 242.650141 
L 374.0625 238.390986 
L 391.5 233.067042 
L 408.9375 230.937465 
L 426.375 232.002254 
L 443.8125 221.354366 
L 461.25 219.224789 
L 478.6875 220.289577 
L 496.125 216.030423 
L 513.5625 212.836056 
L 531 211.771268 
L 548.4375 206.447324 
L 565.875 209.64169 
L 583.3125 207.512113 
L 600.75 207.512113 
L 618.1875 206.447324 
L 635.625 202.188169 
L 653.0625 201.12338 
L 670.5 201.12338 
L 687.9375 201.12338 
L 705.375 200.058592 
L 722.8125 196.864225 
L 740.25 201.12338 
L 757.6875 198.993803 
L 775.125 200.058592 
L 792.5625 198.993803 
L 810 201.12338 
" clip-path="url(#p94a748a3ef)" style="fill: none; stroke: #00bfbf; stroke-width: 1.5; stroke-linecap: square"/>
   </g>
   <g id="line2d_19">
    <path d="M 112.5 239.455775 
L 129.9375 261.816338 
L 147.375 290.565634 
L 164.8125 304.407887 
L 182.25 315.055775 
L 199.6875 322.509296 
L 217.125 326.768451 
L 234.5625 326.768451 
L 252 328.898028 
L 269.4375 325.703662 
L 286.875 321.444507 
L 304.3125 321.444507 
L 321.75 321.444507 
L 339.1875 318.250141 
L 356.625 324.638873 
L 374.0625 322.509296 
L 391.5 324.638873 
L 408.9375 323.574085 
L 426.375 323.574085 
L 443.8125 318.250141 
L 461.25 317.185352 
L 478.6875 317.185352 
L 496.125 313.990986 
L 513.5625 311.861408 
L 531 310.79662 
L 548.4375 308.667042 
L 565.875 308.667042 
L 583.3125 307.602254 
L 600.75 308.667042 
L 618.1875 307.602254 
L 635.625 305.472676 
L 653.0625 306.537465 
L 670.5 306.537465 
L 687.9375 306.537465 
L 705.375 305.472676 
L 722.8125 306.537465 
L 740.25 306.537465 
L 757.6875 306.537465 
L 775.125 306.537465 
L 792.5625 306.537465 
L 810 306.537465 
" clip-path="url(#p94a748a3ef)" style="fill: none; stroke: #6495ed; stroke-width: 1.5; stroke-linecap: square"/>
   </g>
   <g id="line2d_20">
    <path d="M 112.5 292.695211 
L 129.9375 291.630423 
L 147.375 309.731831 
L 164.8125 320.379718 
L 182.25 326.768451 
L 199.6875 337.416338 
L 217.125 342.740282 
L 234.5625 345.934648 
L 252 346.999437 
L 269.4375 344.869859 
L 286.875 343.80507 
L 304.3125 344.869859 
L 321.75 342.740282 
L 339.1875 343.80507 
L 356.625 345.934648 
L 374.0625 344.869859 
L 391.5 346.999437 
L 408.9375 344.869859 
L 426.375 345.934648 
L 443.8125 342.740282 
L 461.25 341.675493 
L 478.6875 342.740282 
L 496.125 338.481127 
L 513.5625 338.481127 
L 531 337.416338 
L 548.4375 335.286761 
L 565.875 335.286761 
L 583.3125 334.221972 
L 600.75 336.351549 
L 618.1875 335.286761 
L 635.625 334.221972 
L 653.0625 334.221972 
L 670.5 334.221972 
L 687.9375 334.221972 
L 705.375 334.221972 
L 722.8125 334.221972 
L 740.25 334.221972 
L 757.6875 335.286761 
L 775.125 335.286761 
L 792.5625 335.286761 
L 810 335.286761 
" clip-path="url(#p94a748a3ef)" style="fill: none; stroke: #dda0dd; stroke-width: 1.5; stroke-linecap: square"/>
   </g>
   <g id="patch_3">
    <path d="M 112.5 384.48 
L 112.5 51.84 
" style="fill: none; stroke: #000000; stroke-width: 0.8; stroke-linejoin: miter; stroke-linecap: square"/>
   </g>
   <g id="patch_4">
    <path d="M 810 384.48 
L 810 51.84 
" style="fill: none; stroke: #000000; stroke-width: 0.8; stroke-linejoin: miter; stroke-linecap: square"/>
   </g>
   <g id="patch_5">
    <path d="M 112.5 384.48 
L 810 384.48 
" style="fill: none; stroke: #000000; stroke-width: 0.8; stroke-linejoin: miter; stroke-linecap: square"/>
   </g>
   <g id="patch_6">
    <path d="M 112.5 51.84 
L 810 51.84 
" style="fill: none; stroke: #000000; stroke-width: 0.8; stroke-linejoin: miter; stroke-linecap: square"/>
   </g>
   <g id="legend_1">
    <g id="patch_7">
     <path d="M 589.966406 129.891562 
L 799.5 129.891562 
Q 802.5 129.891562 802.5 126.891562 
L 802.5 62.34 
Q 802.5 59.34 799.5 59.34 
L 589.966406 59.34 
Q 586.966406 59.34 586.966406 62.34 
L 586.966406 126.891562 
Q 586.966406 129.891562 589.966406 129.891562 
z
" style="fill: #ffffff; opacity: 0.8; stroke: #cccccc; stroke-linejoin: miter"/>
    </g>
    <g id="line2d_21">
     <path d="M 592.966406 71.487656 
L 607.966406 71.487656 
L 622.966406 71.487656 
" style="fill: none; stroke: #00bfbf; stroke-width: 1.5; stroke-linecap: square"/>
    </g>
    <g id="text_20">
     <!-- steps to convergence -->
     <g transform="translate(634.966406 76.737656) scale(0.15 -0.15)">
      <defs>
       <path id="DejaVuSans-63" d="M 3122 3366 
L 3122 2828 
Q 2878 2963 2633 3030 
Q 2388 3097 2138 3097 
Q 1578 3097 1268 2742 
Q 959 2388 959 1747 
Q 959 1106 1268 751 
Q 1578 397 2138 397 
Q 2388 397 2633 464 
Q 2878 531 3122 666 
L 3122 134 
Q 2881 22 2623 -34 
Q 2366 -91 2075 -91 
Q 1284 -91 818 406 
Q 353 903 353 1747 
Q 353 2603 823 3093 
Q 1294 3584 2113 3584 
Q 2378 3584 2631 3529 
Q 2884 3475 3122 3366 
z
" transform="scale(0.015625)"/>
       <path id="DejaVuSans-76" d="M 191 3500 
L 800 3500 
L 1894 563 
L 2988 3500 
L 3597 3500 
L 2284 0 
L 1503 0 
L 191 3500 
z
" transform="scale(0.015625)"/>
       <path id="DejaVuSans-67" d="M 2906 1791 
Q 2906 2416 2648 2759 
Q 2391 3103 1925 3103 
Q 1463 3103 1205 2759 
Q 947 2416 947 1791 
Q 947 1169 1205 825 
Q 1463 481 1925 481 
Q 2391 481 2648 825 
Q 2906 1169 2906 1791 
z
M 3481 434 
Q 3481 -459 3084 -895 
Q 2688 -1331 1869 -1331 
Q 1566 -1331 1297 -1286 
Q 1028 -1241 775 -1147 
L 775 -588 
Q 1028 -725 1275 -790 
Q 1522 -856 1778 -856 
Q 2344 -856 2625 -561 
Q 2906 -266 2906 331 
L 2906 616 
Q 2728 306 2450 153 
Q 2172 0 1784 0 
Q 1141 0 747 490 
Q 353 981 353 1791 
Q 353 2603 747 3093 
Q 1141 3584 1784 3584 
Q 2172 3584 2450 3431 
Q 2728 3278 2906 2969 
L 2906 3500 
L 3481 3500 
L 3481 434 
z
" transform="scale(0.015625)"/>
      </defs>
      <use xlink:href="#DejaVuSans-73"/>
      <use xlink:href="#DejaVuSans-74" x="52.099609"/>
      <use xlink:href="#DejaVuSans-65" x="91.308594"/>
      <use xlink:href="#DejaVuSans-70" x="152.832031"/>
      <use xlink:href="#DejaVuSans-73" x="216.308594"/>
      <use xlink:href="#DejaVuSans-20" x="268.408203"/>
      <use xlink:href="#DejaVuSans-74" x="300.195312"/>
      <use xlink:href="#DejaVuSans-6f" x="339.404297"/>
      <use xlink:href="#DejaVuSans-20" x="400.585938"/>
      <use xlink:href="#DejaVuSans-63" x="432.373047"/>
      <use xlink:href="#DejaVuSans-6f" x="487.353516"/>
      <use xlink:href="#DejaVuSans-6e" x="548.535156"/>
      <use xlink:href="#DejaVuSans-76" x="611.914062"/>
      <use xlink:href="#DejaVuSans-65" x="671.09375"/>
      <use xlink:href="#DejaVuSans-72" x="732.617188"/>
      <use xlink:href="#DejaVuSans-67" x="771.980469"/>
      <use xlink:href="#DejaVuSans-65" x="835.457031"/>
      <use xlink:href="#DejaVuSans-6e" x="896.980469"/>
      <use xlink:href="#DejaVuSans-63" x="960.359375"/>
      <use xlink:href="#DejaVuSans-65" x="1015.339844"/>
     </g>
    </g>
    <g id="line2d_22">
     <path d="M 592.966406 93.504844 
L 607.966406 93.504844 
L 622.966406 93.504844 
" style="fill: none; stroke: #6495ed; stroke-width: 1.5; stroke-linecap: square"/>
    </g>
    <g id="text_21">
     <!-- steps to unit ball -->
     <g transform="translate(634.966406 98.754844) scale(0.15 -0.15)">
      <defs>
       <path id="DejaVuSans-75" d="M 544 1381 
L 544 3500 
L 1119 3500 
L 1119 1403 
Q 1119 906 1312 657 
Q 1506 409 1894 409 
Q 2359 409 2629 706 
Q 2900 1003 2900 1516 
L 2900 3500 
L 3475 3500 
L 3475 0 
L 2900 0 
L 2900 538 
Q 2691 219 2414 64 
Q 2138 -91 1772 -91 
Q 1169 -91 856 284 
Q 544 659 544 1381 
z
M 1991 3584 
L 1991 3584 
z
" transform="scale(0.015625)"/>
       <path id="DejaVuSans-62" d="M 3116 1747 
Q 3116 2381 2855 2742 
Q 2594 3103 2138 3103 
Q 1681 3103 1420 2742 
Q 1159 2381 1159 1747 
Q 1159 1113 1420 752 
Q 1681 391 2138 391 
Q 2594 391 2855 752 
Q 3116 1113 3116 1747 
z
M 1159 2969 
Q 1341 3281 1617 3432 
Q 1894 3584 2278 3584 
Q 2916 3584 3314 3078 
Q 3713 2572 3713 1747 
Q 3713 922 3314 415 
Q 2916 -91 2278 -91 
Q 1894 -91 1617 61 
Q 1341 213 1159 525 
L 1159 0 
L 581 0 
L 581 4863 
L 1159 4863 
L 1159 2969 
z
" transform="scale(0.015625)"/>
       <path id="DejaVuSans-6c" d="M 603 4863 
L 1178 4863 
L 1178 0 
L 603 0 
L 603 4863 
z
" transform="scale(0.015625)"/>
      </defs>
      <use xlink:href="#DejaVuSans-73"/>
      <use xlink:href="#DejaVuSans-74" x="52.099609"/>
      <use xlink:href="#DejaVuSans-65" x="91.308594"/>
      <use xlink:href="#DejaVuSans-70" x="152.832031"/>
      <use xlink:href="#DejaVuSans-73" x="216.308594"/>
      <use xlink:href="#DejaVuSans-20" x="268.408203"/>
      <use xlink:href="#DejaVuSans-74" x="300.195312"/>
      <use xlink:href="#DejaVuSans-6f" x="339.404297"/>
      <use xlink:href="#DejaVuSans-20" x="400.585938"/>
      <use xlink:href="#DejaVuSans-75" x="432.373047"/>
      <use xlink:href="#DejaVuSans-6e" x="495.751953"/>
      <use xlink:href="#DejaVuSans-69" x="559.130859"/>
      <use xlink:href="#DejaVuSans-74" x="586.914062"/>
      <use xlink:href="#DejaVuSans-20" x="626.123047"/>
      <use xlink:href="#DejaVuSans-62" x="657.910156"/>
      <use xlink:href="#DejaVuSans-61" x="721.386719"/>
      <use xlink:href="#DejaVuSans-6c" x="782.666016"/>
      <use xlink:href="#DejaVuSans-6c" x="810.449219"/>
     </g>
    </g>
    <g id="line2d_23">
     <path d="M 592.966406 115.522031 
L 607.966406 115.522031 
L 622.966406 115.522031 
" style="fill: none; stroke: #dda0dd; stroke-width: 1.5; stroke-linecap: square"/>
    </g>
    <g id="text_22">
     <!-- steps to norm 2 ball -->
     <g transform="translate(634.966406 120.772031) scale(0.15 -0.15)">
      <defs>
       <path id="DejaVuSans-6d" d="M 3328 2828 
Q 3544 3216 3844 3400 
Q 4144 3584 4550 3584 
Q 5097 3584 5394 3201 
Q 5691 2819 5691 2113 
L 5691 0 
L 5113 0 
L 5113 2094 
Q 5113 2597 4934 2840 
Q 4756 3084 4391 3084 
Q 3944 3084 3684 2787 
Q 3425 2491 3425 1978 
L 3425 0 
L 2847 0 
L 2847 2094 
Q 2847 2600 2669 2842 
Q 2491 3084 2119 3084 
Q 1678 3084 1418 2786 
Q 1159 2488 1159 1978 
L 1159 0 
L 581 0 
L 581 3500 
L 1159 3500 
L 1159 2956 
Q 1356 3278 1631 3431 
Q 1906 3584 2284 3584 
Q 2666 3584 2933 3390 
Q 3200 3197 3328 2828 
z
" transform="scale(0.015625)"/>
      </defs>
      <use xlink:href="#DejaVuSans-73"/>
      <use xlink:href="#DejaVuSans-74" x="52.099609"/>
      <use xlink:href="#DejaVuSans-65" x="91.308594"/>
      <use xlink:href="#DejaVuSans-70" x="152.832031"/>
      <use xlink:href="#DejaVuSans-73" x="216.308594"/>
      <use xlink:href="#DejaVuSans-20" x="268.408203"/>
      <use xlink:href="#DejaVuSans-74" x="300.195312"/>
      <use xlink:href="#DejaVuSans-6f" x="339.404297"/>
      <use xlink:href="#DejaVuSans-20" x="400.585938"/>
      <use xlink:href="#DejaVuSans-6e" x="432.373047"/>
      <use xlink:href="#DejaVuSans-6f" x="495.751953"/>
      <use xlink:href="#DejaVuSans-72" x="556.933594"/>
      <use xlink:href="#DejaVuSans-6d" x="596.296875"/>
      <use xlink:href="#DejaVuSans-20" x="693.708984"/>
      <use xlink:href="#DejaVuSans-32" x="725.496094"/>
      <use xlink:href="#DejaVuSans-20" x="789.119141"/>
      <use xlink:href="#DejaVuSans-62" x="820.90625"/>
      <use xlink:href="#DejaVuSans-61" x="884.382812"/>
      <use xlink:href="#DejaVuSans-6c" x="945.662109"/>
      <use xlink:href="#DejaVuSans-6c" x="973.445312"/>
     </g>
    </g>
   </g>
  </g>
 </g>
 <defs>
  <clipPath id="p94a748a3ef">
   <rect x="112.5" y="51.84" width="697.5" height="332.64"/>
  </clipPath>
 </defs>
</svg>
