<?xml version="1.0" encoding="utf-8" standalone="no"?>
<!DOCTYPE svg PUBLIC "-//W3C//DTD SVG 1.1//EN"
  "http://www.w3.org/Graphics/SVG/1.1/DTD/svg11.dtd">
<svg xmlns:xlink="http://www.w3.org/1999/xlink" width="1152pt" height="576pt" viewBox="0 0 1152 576" xmlns="http://www.w3.org/2000/svg" version="1.1">
 <metadata>
  <rdf:RDF xmlns:dc="http://purl.org/dc/elements/1.1/" xmlns:cc="http://creativecommons.org/ns#" xmlns:rdf="http://www.w3.org/1999/02/22-rdf-syntax-ns#">
   <cc:Work>
    <dc:type rdf:resource="http://purl.org/dc/dcmitype/StillImage"/>
    <dc:date>2024-09-07T17:23:39.921263</dc:date>
    <dc:format>image/svg+xml</dc:format>
    <dc:creator>
     <cc:Agent>
      <dc:title>Matplotlib v3.8.3, https://matplotlib.org/</dc:title>
     </cc:Agent>
    </dc:creator>
   </cc:Work>
  </rdf:RDF>
 </metadata>
 <defs>
  <style type="text/css">*{stroke-linejoin: round; stroke-linecap: butt}</style>
 </defs>
 <g id="figure_1">
  <g id="patch_1">
   <path d="M 0 576 
L 1152 576 
L 1152 0 
L 0 0 
z
" style="fill: #ffffff"/>
  </g>
  <g id="axes_1">
   <g id="patch_2">
    <path d="M 144 497.009521 
L 549.818182 497.009521 
L 549.818182 84.750479 
L 144 84.750479 
z
" style="fill: #ffffff"/>
   </g>
   <g id="matplotlib.axis_1">
    <g id="xtick_1">
     <g id="line2d_1">
      <path d="M 209.027096 497.009521 
L 209.027096 84.750479 
" clip-path="url(#pcaf2e9175f)" style="fill: none; stroke: #cccccc; stroke-width: 1.5; stroke-linecap: round"/>
     </g>
     <g id="text_1">
      <!-- −2 -->
      <g style="fill: #262626" transform="translate(197.625534 523.825146) scale(0.2 -0.2)">
       <defs>
        <path id="ArialMT-2212" d="M 3381 1997 
L 356 1997 
L 356 2522 
L 3381 2522 
L 3381 1997 
z
" transform="scale(0.015625)"/>
        <path id="ArialMT-32" d="M 3222 541 
L 3222 0 
L 194 0 
Q 188 203 259 391 
Q 375 700 629 1000 
Q 884 1300 1366 1694 
Q 2113 2306 2375 2664 
Q 2638 3022 2638 3341 
Q 2638 3675 2398 3904 
Q 2159 4134 1775 4134 
Q 1369 4134 1125 3890 
Q 881 3647 878 3216 
L 300 3275 
Q 359 3922 746 4261 
Q 1134 4600 1788 4600 
Q 2447 4600 2831 4234 
Q 3216 3869 3216 3328 
Q 3216 3053 3103 2787 
Q 2991 2522 2730 2228 
Q 2469 1934 1863 1422 
Q 1356 997 1212 845 
Q 1069 694 975 541 
L 3222 541 
z
" transform="scale(0.015625)"/>
       </defs>
       <use xlink:href="#ArialMT-2212"/>
       <use xlink:href="#ArialMT-32" x="58.398438"/>
      </g>
     </g>
    </g>
    <g id="xtick_2">
     <g id="line2d_2">
      <path d="M 312.765538 497.009521 
L 312.765538 84.750479 
" clip-path="url(#pcaf2e9175f)" style="fill: none; stroke: #cccccc; stroke-width: 1.5; stroke-linecap: round"/>
     </g>
     <g id="text_2">
      <!-- −1 -->
      <g style="fill: #262626" transform="translate(301.363976 523.825146) scale(0.2 -0.2)">
       <defs>
        <path id="ArialMT-31" d="M 2384 0 
L 1822 0 
L 1822 3584 
Q 1619 3391 1289 3197 
Q 959 3003 697 2906 
L 697 3450 
Q 1169 3672 1522 3987 
Q 1875 4303 2022 4600 
L 2384 4600 
L 2384 0 
z
" transform="scale(0.015625)"/>
       </defs>
       <use xlink:href="#ArialMT-2212"/>
       <use xlink:href="#ArialMT-31" x="58.398438"/>
      </g>
     </g>
    </g>
    <g id="xtick_3">
     <g id="line2d_3">
      <path d="M 416.50398 497.009521 
L 416.50398 84.750479 
" clip-path="url(#pcaf2e9175f)" style="fill: none; stroke: #cccccc; stroke-width: 1.5; stroke-linecap: round"/>
     </g>
     <g id="text_3">
      <!-- 0 -->
      <g style="fill: #262626" transform="translate(410.943043 523.825146) scale(0.2 -0.2)">
       <defs>
        <path id="ArialMT-30" d="M 266 2259 
Q 266 3072 433 3567 
Q 600 4063 929 4331 
Q 1259 4600 1759 4600 
Q 2128 4600 2406 4451 
Q 2684 4303 2865 4023 
Q 3047 3744 3150 3342 
Q 3253 2941 3253 2259 
Q 3253 1453 3087 958 
Q 2922 463 2592 192 
Q 2263 -78 1759 -78 
Q 1097 -78 719 397 
Q 266 969 266 2259 
z
M 844 2259 
Q 844 1131 1108 757 
Q 1372 384 1759 384 
Q 2147 384 2411 759 
Q 2675 1134 2675 2259 
Q 2675 3391 2411 3762 
Q 2147 4134 1753 4134 
Q 1366 4134 1134 3806 
Q 844 3388 844 2259 
z
" transform="scale(0.015625)"/>
       </defs>
       <use xlink:href="#ArialMT-30"/>
      </g>
     </g>
    </g>
    <g id="xtick_4">
     <g id="line2d_4">
      <path d="M 520.242423 497.009521 
L 520.242423 84.750479 
" clip-path="url(#pcaf2e9175f)" style="fill: none; stroke: #cccccc; stroke-width: 1.5; stroke-linecap: round"/>
     </g>
     <g id="text_4">
      <!-- 1 -->
      <g style="fill: #262626" transform="translate(514.681485 523.825146) scale(0.2 -0.2)">
       <use xlink:href="#ArialMT-31"/>
      </g>
     </g>
    </g>
    <g id="text_5">
     <!-- $x (m)$ -->
     <g style="fill: #262626" transform="translate(323.409091 546.115771) scale(0.2 -0.2)">
      <defs>
       <path id="DejaVuSans-Oblique-78" d="M 3841 3500 
L 2234 1784 
L 3219 0 
L 2559 0 
L 1819 1388 
L 531 0 
L -166 0 
L 1556 1844 
L 641 3500 
L 1300 3500 
L 1972 2234 
L 3144 3500 
L 3841 3500 
z
" transform="scale(0.015625)"/>
       <path id="DejaVuSans-28" d="M 1984 4856 
Q 1566 4138 1362 3434 
Q 1159 2731 1159 2009 
Q 1159 1288 1364 580 
Q 1569 -128 1984 -844 
L 1484 -844 
Q 1016 -109 783 600 
Q 550 1309 550 2009 
Q 550 2706 781 3412 
Q 1013 4119 1484 4856 
L 1984 4856 
z
" transform="scale(0.015625)"/>
       <path id="DejaVuSans-Oblique-6d" d="M 5747 2113 
L 5338 0 
L 4763 0 
L 5166 2094 
Q 5191 2228 5203 2325 
Q 5216 2422 5216 2491 
Q 5216 2772 5059 2928 
Q 4903 3084 4622 3084 
Q 4203 3084 3875 2770 
Q 3547 2456 3450 1953 
L 3066 0 
L 2491 0 
L 2900 2094 
Q 2925 2209 2937 2307 
Q 2950 2406 2950 2484 
Q 2950 2769 2794 2926 
Q 2638 3084 2363 3084 
Q 1938 3084 1609 2770 
Q 1281 2456 1184 1953 
L 800 0 
L 225 0 
L 909 3500 
L 1484 3500 
L 1375 2956 
Q 1609 3263 1923 3423 
Q 2238 3584 2597 3584 
Q 2978 3584 3223 3384 
Q 3469 3184 3519 2828 
Q 3781 3197 4126 3390 
Q 4472 3584 4856 3584 
Q 5306 3584 5551 3325 
Q 5797 3066 5797 2591 
Q 5797 2488 5784 2364 
Q 5772 2241 5747 2113 
z
" transform="scale(0.015625)"/>
       <path id="DejaVuSans-29" d="M 513 4856 
L 1013 4856 
Q 1481 4119 1714 3412 
Q 1947 2706 1947 2009 
Q 1947 1309 1714 600 
Q 1481 -109 1013 -844 
L 513 -844 
Q 928 -128 1133 580 
Q 1338 1288 1338 2009 
Q 1338 2731 1133 3434 
Q 928 4138 513 4856 
z
" transform="scale(0.015625)"/>
      </defs>
      <use xlink:href="#DejaVuSans-Oblique-78" transform="translate(0 0.125)"/>
      <use xlink:href="#DejaVuSans-28" transform="translate(59.179688 0.125)"/>
      <use xlink:href="#DejaVuSans-Oblique-6d" transform="translate(98.193359 0.125)"/>
      <use xlink:href="#DejaVuSans-29" transform="translate(195.605469 0.125)"/>
     </g>
    </g>
   </g>
   <g id="matplotlib.axis_2">
    <g id="ytick_1">
     <g id="line2d_5">
      <path d="M 144 464.166906 
L 549.818182 464.166906 
" clip-path="url(#pcaf2e9175f)" style="fill: none; stroke: #cccccc; stroke-width: 1.5; stroke-linecap: round"/>
     </g>
     <g id="text_6">
      <!-- −0.5 -->
      <g style="fill: #262626" transform="translate(92.01875 471.324718) scale(0.2 -0.2)">
       <defs>
        <path id="ArialMT-2e" d="M 581 0 
L 581 641 
L 1222 641 
L 1222 0 
L 581 0 
z
" transform="scale(0.015625)"/>
        <path id="ArialMT-35" d="M 266 1200 
L 856 1250 
Q 922 819 1161 601 
Q 1400 384 1738 384 
Q 2144 384 2425 690 
Q 2706 997 2706 1503 
Q 2706 1984 2436 2262 
Q 2166 2541 1728 2541 
Q 1456 2541 1237 2417 
Q 1019 2294 894 2097 
L 366 2166 
L 809 4519 
L 3088 4519 
L 3088 3981 
L 1259 3981 
L 1013 2750 
Q 1425 3038 1878 3038 
Q 2478 3038 2890 2622 
Q 3303 2206 3303 1553 
Q 3303 931 2941 478 
Q 2500 -78 1738 -78 
Q 1113 -78 717 272 
Q 322 622 266 1200 
z
" transform="scale(0.015625)"/>
       </defs>
       <use xlink:href="#ArialMT-2212"/>
       <use xlink:href="#ArialMT-30" x="58.398438"/>
       <use xlink:href="#ArialMT-2e" x="114.013672"/>
       <use xlink:href="#ArialMT-35" x="141.796875"/>
      </g>
     </g>
    </g>
    <g id="ytick_2">
     <g id="line2d_6">
      <path d="M 144 412.297685 
L 549.818182 412.297685 
" clip-path="url(#pcaf2e9175f)" style="fill: none; stroke: #cccccc; stroke-width: 1.5; stroke-linecap: round"/>
     </g>
     <g id="text_7">
      <!-- 0.0 -->
      <g style="fill: #262626" transform="translate(103.7 419.455497) scale(0.2 -0.2)">
       <use xlink:href="#ArialMT-30"/>
       <use xlink:href="#ArialMT-2e" x="55.615234"/>
       <use xlink:href="#ArialMT-30" x="83.398438"/>
      </g>
     </g>
    </g>
    <g id="ytick_3">
     <g id="line2d_7">
      <path d="M 144 360.428464 
L 549.818182 360.428464 
" clip-path="url(#pcaf2e9175f)" style="fill: none; stroke: #cccccc; stroke-width: 1.5; stroke-linecap: round"/>
     </g>
     <g id="text_8">
      <!-- 0.5 -->
      <g style="fill: #262626" transform="translate(103.7 367.586276) scale(0.2 -0.2)">
       <use xlink:href="#ArialMT-30"/>
       <use xlink:href="#ArialMT-2e" x="55.615234"/>
       <use xlink:href="#ArialMT-35" x="83.398438"/>
      </g>
     </g>
    </g>
    <g id="ytick_4">
     <g id="line2d_8">
      <path d="M 144 308.559243 
L 549.818182 308.559243 
" clip-path="url(#pcaf2e9175f)" style="fill: none; stroke: #cccccc; stroke-width: 1.5; stroke-linecap: round"/>
     </g>
     <g id="text_9">
      <!-- 1.0 -->
      <g style="fill: #262626" transform="translate(103.7 315.717055) scale(0.2 -0.2)">
       <use xlink:href="#ArialMT-31"/>
       <use xlink:href="#ArialMT-2e" x="55.615234"/>
       <use xlink:href="#ArialMT-30" x="83.398438"/>
      </g>
     </g>
    </g>
    <g id="ytick_5">
     <g id="line2d_9">
      <path d="M 144 256.690022 
L 549.818182 256.690022 
" clip-path="url(#pcaf2e9175f)" style="fill: none; stroke: #cccccc; stroke-width: 1.5; stroke-linecap: round"/>
     </g>
     <g id="text_10">
      <!-- 1.5 -->
      <g style="fill: #262626" transform="translate(103.7 263.847834) scale(0.2 -0.2)">
       <use xlink:href="#ArialMT-31"/>
       <use xlink:href="#ArialMT-2e" x="55.615234"/>
       <use xlink:href="#ArialMT-35" x="83.398438"/>
      </g>
     </g>
    </g>
    <g id="ytick_6">
     <g id="line2d_10">
      <path d="M 144 204.820801 
L 549.818182 204.820801 
" clip-path="url(#pcaf2e9175f)" style="fill: none; stroke: #cccccc; stroke-width: 1.5; stroke-linecap: round"/>
     </g>
     <g id="text_11">
      <!-- 2.0 -->
      <g style="fill: #262626" transform="translate(103.7 211.978613) scale(0.2 -0.2)">
       <use xlink:href="#ArialMT-32"/>
       <use xlink:href="#ArialMT-2e" x="55.615234"/>
       <use xlink:href="#ArialMT-30" x="83.398438"/>
      </g>
     </g>
    </g>
    <g id="ytick_7">
     <g id="line2d_11">
      <path d="M 144 152.95158 
L 549.818182 152.95158 
" clip-path="url(#pcaf2e9175f)" style="fill: none; stroke: #cccccc; stroke-width: 1.5; stroke-linecap: round"/>
     </g>
     <g id="text_12">
      <!-- 2.5 -->
      <g style="fill: #262626" transform="translate(103.7 160.109392) scale(0.2 -0.2)">
       <use xlink:href="#ArialMT-32"/>
       <use xlink:href="#ArialMT-2e" x="55.615234"/>
       <use xlink:href="#ArialMT-35" x="83.398438"/>
      </g>
     </g>
    </g>
    <g id="ytick_8">
     <g id="line2d_12">
      <path d="M 144 101.082359 
L 549.818182 101.082359 
" clip-path="url(#pcaf2e9175f)" style="fill: none; stroke: #cccccc; stroke-width: 1.5; stroke-linecap: round"/>
     </g>
     <g id="text_13">
      <!-- 3.0 -->
      <g style="fill: #262626" transform="translate(103.7 108.240171) scale(0.2 -0.2)">
       <defs>
        <path id="ArialMT-33" d="M 269 1209 
L 831 1284 
Q 928 806 1161 595 
Q 1394 384 1728 384 
Q 2125 384 2398 659 
Q 2672 934 2672 1341 
Q 2672 1728 2419 1979 
Q 2166 2231 1775 2231 
Q 1616 2231 1378 2169 
L 1441 2663 
Q 1497 2656 1531 2656 
Q 1891 2656 2178 2843 
Q 2466 3031 2466 3422 
Q 2466 3731 2256 3934 
Q 2047 4138 1716 4138 
Q 1388 4138 1169 3931 
Q 950 3725 888 3313 
L 325 3413 
Q 428 3978 793 4289 
Q 1159 4600 1703 4600 
Q 2078 4600 2393 4439 
Q 2709 4278 2876 4000 
Q 3044 3722 3044 3409 
Q 3044 3113 2884 2869 
Q 2725 2625 2413 2481 
Q 2819 2388 3044 2092 
Q 3269 1797 3269 1353 
Q 3269 753 2831 336 
Q 2394 -81 1725 -81 
Q 1122 -81 723 278 
Q 325 638 269 1209 
z
" transform="scale(0.015625)"/>
       </defs>
       <use xlink:href="#ArialMT-33"/>
       <use xlink:href="#ArialMT-2e" x="55.615234"/>
       <use xlink:href="#ArialMT-30" x="83.398438"/>
      </g>
     </g>
    </g>
    <g id="text_14">
     <!-- $y (m)$ -->
     <g style="fill: #262626" transform="translate(83.81875 314.38) rotate(-90) scale(0.2 -0.2)">
      <defs>
       <path id="DejaVuSans-Oblique-79" d="M 1588 -325 
Q 1188 -997 936 -1164 
Q 684 -1331 294 -1331 
L -159 -1331 
L -63 -850 
L 269 -850 
Q 509 -850 678 -719 
Q 847 -588 1056 -206 
L 1234 128 
L 459 3500 
L 1069 3500 
L 1650 819 
L 3256 3500 
L 3859 3500 
L 1588 -325 
z
" transform="scale(0.015625)"/>
      </defs>
      <use xlink:href="#DejaVuSans-Oblique-79" transform="translate(0 0.125)"/>
      <use xlink:href="#DejaVuSans-28" transform="translate(59.179688 0.125)"/>
      <use xlink:href="#DejaVuSans-Oblique-6d" transform="translate(98.193359 0.125)"/>
      <use xlink:href="#DejaVuSans-29" transform="translate(195.605469 0.125)"/>
     </g>
    </g>
   </g>
   <g id="PathCollection_1">
    <defs>
     <path id="m70f5a462a8" d="M 0 4.5 
C 1.193414 4.5 2.338109 4.025852 3.181981 3.181981 
C 4.025852 2.338109 4.5 1.193414 4.5 0 
C 4.5 -1.193414 4.025852 -2.338109 3.181981 -3.181981 
C 2.338109 -4.025852 1.193414 -4.5 0 -4.5 
C -1.193414 -4.5 -2.338109 -4.025852 -3.181981 -3.181981 
C -4.025852 -2.338109 -4.5 -1.193414 -4.5 0 
C -4.5 1.193414 -4.025852 2.338109 -3.181981 3.181981 
C -2.338109 4.025852 -1.193414 4.5 0 4.5 
z
" style="stroke: #d65f5f; stroke-width: 1.5"/>
    </defs>
    <g clip-path="url(#pcaf2e9175f)">
     <use xlink:href="#m70f5a462a8" x="417.231117" y="411.897511" style="fill: #d65f5f; stroke: #d65f5f; stroke-width: 1.5"/>
    </g>
   </g>
   <g id="line2d_13">
    <path d="M 417.229892 411.895443 
L 422.241882 408.958833 
L 427.126151 405.814371 
L 431.874083 402.467603 
L 436.477306 398.924432 
L 440.9277 395.191107 
L 445.217415 391.274213 
L 449.338886 387.180658 
L 453.284844 382.917661 
L 457.048329 378.492743 
L 460.622703 373.913707 
L 464.001662 369.18863 
L 467.179246 364.325845 
L 470.149852 359.333929 
L 472.908238 354.221686 
L 475.449541 348.998134 
L 477.769278 343.672485 
L 479.863358 338.254132 
L 481.728088 332.752632 
L 483.360177 327.177687 
L 484.756749 321.539132 
L 485.915339 315.84691 
L 486.833905 310.111062 
L 487.510826 304.341703 
L 487.944908 298.54901 
L 488.135385 292.7432 
L 488.081922 286.934511 
L 487.784614 281.13319 
L 487.243983 275.349468 
L 486.460984 269.593546 
L 485.436999 263.875577 
L 484.173832 258.205645 
L 482.673712 252.593751 
L 480.939284 247.049792 
L 478.973609 241.583546 
L 476.780152 236.204655 
L 474.362782 230.922606 
L 471.725763 225.746715 
L 468.873746 220.68611 
L 465.811762 215.749718 
L 462.54521 210.946244 
L 459.079852 206.284161 
L 455.4218 201.771692 
L 451.577507 197.416795 
L 447.553751 193.227152 
L 443.357631 189.210151 
L 438.996547 185.372878 
L 434.47819 181.722101 
L 429.810531 178.264259 
L 425.001801 175.005449 
L 420.060482 171.951421 
L 414.995289 169.107561 
L 409.815156 166.478884 
L 404.529219 164.070027 
L 399.146802 161.885238 
L 393.677397 159.928371 
L 388.130651 158.202878 
L 382.516347 156.711801 
L 376.844387 155.45777 
L 371.124776 154.442997 
L 365.3676 153.669272 
L 359.583015 153.13796 
L 353.781222 152.849998 
L 347.972455 152.805893 
L 342.166959 153.005723 
L 336.374973 153.449137 
L 330.606712 154.135351 
L 324.872351 155.063156 
L 319.182003 156.230916 
L 313.545705 157.636569 
L 307.973397 159.277638 
L 302.474908 161.151228 
L 297.059936 163.254034 
L 291.738031 165.582348 
L 286.518579 168.132063 
L 281.410787 170.898682 
L 276.423663 173.877325 
L 271.566004 177.06274 
L 266.846376 180.449306 
L 262.273104 184.031053 
L 257.854255 187.801661 
L 253.597621 191.754482 
L 249.510711 195.882543 
L 245.600733 200.178563 
L 241.874582 204.634965 
L 238.338832 209.24389 
L 234.999717 213.997208 
L 231.863128 218.886536 
L 228.934596 223.90325 
L 226.219287 229.038502 
L 223.721989 234.283236 
L 221.447108 239.628199 
L 219.398656 245.063966 
L 217.580245 250.580949 
L 215.995083 256.169418 
L 214.645965 261.819515 
L 213.535271 267.521276 
L 212.664961 273.264645 
L 212.036569 279.03949 
L 211.651203 284.835628 
L 211.509543 290.642835 
L 211.611839 296.450869 
L 211.95791 302.249485 
L 212.547147 308.028458 
L 213.378509 313.777593 
L 214.450531 319.486751 
L 215.761322 325.145863 
L 217.308569 330.744947 
L 219.089545 336.274129 
L 221.101107 341.723655 
L 223.339709 347.083915 
L 225.8014 352.345454 
L 228.481841 357.498992 
L 231.376303 362.53544 
L 234.47968 367.445916 
L 237.786501 372.221757 
L 241.290931 376.854541 
L 244.986791 381.336096 
L 248.867562 385.658519 
L 252.926398 389.814186 
L 257.156142 393.795767 
L 261.549333 397.596239 
L 266.098223 401.2089 
L 270.794789 404.627379 
L 275.630746 407.845644 
L 280.597567 410.858022 
L 285.686489 413.659197 
L 290.888539 416.24423 
L 296.194541 418.608562 
L 301.595136 420.748022 
L 307.0808 422.658837 
L 312.641857 424.337637 
L 318.268498 425.781461 
L 323.9508 426.987762 
L 329.678741 427.954413 
L 335.442218 428.679708 
L 341.231066 429.162369 
L 347.035074 429.401544 
L 352.844007 429.396812 
L 358.647618 429.14818 
L 364.435672 428.656087 
L 370.197959 427.921402 
L 375.924317 426.94542 
L 381.604646 425.729862 
L 387.228928 424.276872 
L 392.787242 422.589013 
L 398.269784 420.669262 
L 403.666887 418.521005 
L 408.969029 416.148031 
L 414.16686 413.554525 
L 419.251212 410.745061 
L 424.213117 407.724595 
L 429.043825 404.498454 
L 433.734814 401.072328 
L 438.277811 397.45226 
L 438.914259 396.919643 
L 438.914259 396.919643 
" clip-path="url(#pcaf2e9175f)" style="fill: none; stroke-dasharray: 4,6.6; stroke-dashoffset: 0; stroke: #000000; stroke-width: 4"/>
   </g>
   <g id="line2d_14">
    <path d="M 417.231117 411.897511 
L 426.648186 406.583323 
L 433.841858 402.265575 
L 441.030734 397.711819 
L 448.242753 392.897723 
L 455.481298 387.789217 
L 462.003205 382.906622 
L 467.784579 378.314589 
L 473.525709 373.464476 
L 478.493596 368.994679 
L 483.387082 364.303049 
L 488.182949 359.381083 
L 492.856661 354.222408 
L 496.746133 349.609157 
L 500.510598 344.817902 
L 504.13333 339.848983 
L 507.597517 334.704208 
L 510.886426 329.386895 
L 513.983552 323.901886 
L 516.872776 318.255552 
L 519.1104 313.432675 
L 521.184185 308.508545 
L 523.085903 303.489178 
L 524.807773 298.381238 
L 526.342549 293.192 
L 527.683554 287.929303 
L 528.824724 282.601495 
L 529.760671 277.217382 
L 530.4867 271.786162 
L 530.998837 266.317359 
L 531.293869 260.820755 
L 531.369336 255.30632 
L 531.223555 249.78414 
L 530.855598 244.264348 
L 530.265309 238.757045 
L 529.453257 233.272248 
L 528.420735 227.819812 
L 527.169713 222.409377 
L 525.70281 217.050314 
L 524.023243 211.751674 
L 522.13481 206.522137 
L 520.041801 201.369989 
L 517.748963 196.303087 
L 515.26146 191.328831 
L 512.5848 186.454154 
L 509.724796 181.685507 
L 506.687516 177.028851 
L 503.479227 172.489665 
L 500.106331 168.072962 
L 496.575353 163.78328 
L 492.892889 159.624704 
L 489.06554 155.600907 
L 485.09994 151.715119 
L 481.002652 147.970222 
L 476.780208 144.368703 
L 472.439043 140.912739 
L 467.081849 136.960318 
L 461.573553 133.222854 
L 455.924621 129.702541 
L 450.145253 126.401096 
L 444.245352 123.319867 
L 438.234531 120.459865 
L 432.122112 117.821833 
L 425.917145 115.406279 
L 419.628416 113.213524 
L 413.264461 111.243742 
L 406.833598 109.496972 
L 400.343929 107.973192 
L 393.803383 106.672282 
L 387.219726 105.594081 
L 380.600591 104.738376 
L 373.9535 104.104917 
L 367.285879 103.693429 
L 360.605089 103.503604 
L 353.918441 103.535087 
L 347.233213 103.787484 
L 340.556667 104.260351 
L 333.896063 104.953182 
L 327.258672 105.865387 
L 320.651786 106.996291 
L 314.082722 108.345099 
L 307.558831 109.910906 
L 301.087502 111.692659 
L 294.676157 113.689137 
L 288.332254 115.898952 
L 282.063285 118.320516 
L 275.876766 120.952025 
L 269.780233 123.791452 
L 263.781228 126.836521 
L 257.887289 130.084686 
L 252.105936 133.533144 
L 246.444669 137.178807 
L 240.910928 141.018278 
L 235.512091 145.047865 
L 230.25546 149.263566 
L 225.14823 153.661065 
L 220.197481 158.23573 
L 215.410146 162.982605 
L 210.793007 167.896424 
L 206.352659 172.971602 
L 202.095496 178.202246 
L 198.027696 183.582161 
L 194.155205 189.104861 
L 190.483713 194.763578 
L 187.018628 200.551266 
L 183.765078 206.460626 
L 180.727892 212.484119 
L 177.911576 218.613971 
L 175.320317 224.842202 
L 172.957953 231.160634 
L 170.827985 237.56092 
L 168.933549 244.03455 
L 167.277422 250.572878 
L 165.862023 257.16714 
L 164.689384 263.808471 
L 163.761172 270.487923 
L 163.078687 277.196491 
L 162.642844 283.925124 
L 162.454193 290.664745 
L 162.512911 297.406271 
L 162.818812 304.140627 
L 163.371339 310.858767 
L 164.169595 317.551682 
L 165.212322 324.210422 
L 166.497919 330.826108 
L 168.024447 337.389947 
L 169.789637 343.893241 
L 171.790892 350.327405 
L 174.025313 356.683974 
L 176.48969 362.95461 
L 179.180513 369.131124 
L 182.093981 375.205476 
L 185.226019 381.169783 
L 188.572275 387.016336 
L 192.128131 392.737602 
L 195.888725 398.326223 
L 199.848937 403.775045 
L 204.003411 409.077105 
L 208.346566 414.225642 
L 212.872595 419.214106 
L 217.575478 424.036165 
L 222.448988 428.685707 
L 227.4867 433.156847 
L 232.681998 437.443934 
L 238.028083 441.541549 
L 243.517985 445.44452 
L 249.144565 449.147916 
L 254.900527 452.647064 
L 260.77842 455.937543 
L 266.770657 459.015187 
L 272.86951 461.876103 
L 279.067128 464.516665 
L 285.355543 466.933519 
L 291.726673 469.123589 
L 298.172339 471.084077 
L 304.684272 472.812475 
L 311.254116 474.306557 
L 317.873445 475.564387 
L 324.533764 476.584333 
L 331.226529 477.365053 
L 337.943149 477.905507 
L 344.674997 478.204958 
L 351.413426 478.262969 
L 358.149774 478.079413 
L 364.875374 477.654465 
L 371.581564 476.988611 
L 378.259706 476.082644 
L 384.90119 474.937668 
L 391.497442 473.555085 
L 398.039942 471.936613 
L 404.520235 470.084273 
L 410.929937 468.000393 
L 417.260748 465.687601 
L 423.504467 463.14882 
L 429.653 460.387272 
L 435.698364 457.406469 
L 441.632713 454.210218 
L 447.448335 450.802594 
L 453.137673 447.187973 
L 458.693329 443.370989 
L 464.108072 439.356547 
L 464.996332 438.668635 
L 464.996332 438.668635 
" clip-path="url(#pcaf2e9175f)" style="fill: none; stroke: #797979; stroke-opacity: 0.8; stroke-width: 4; stroke-linecap: round"/>
   </g>
   <g id="line2d_15">
    <path d="M 417.231597 411.897045 
L 425.090465 407.455268 
L 430.482381 404.168569 
L 435.627096 400.761975 
L 440.590279 397.193589 
L 445.422066 393.447676 
L 450.738458 389.02008 
L 455.951079 384.370591 
L 461.070677 379.500959 
L 466.092093 374.415109 
L 470.998932 369.118151 
L 475.770869 363.611647 
L 479.881965 358.538524 
L 483.852061 353.294734 
L 487.662301 347.877896 
L 491.292664 342.28648 
L 494.306232 337.248669 
L 497.154616 332.072075 
L 499.82439 326.755773 
L 502.302568 321.298887 
L 504.576039 315.702168 
L 506.631146 309.969259 
L 508.208481 304.951345 
L 509.606843 299.842469 
L 510.818016 294.648337 
L 511.834117 289.375478 
L 512.64767 284.031192 
L 513.251687 278.623481 
L 513.639711 273.161001 
L 513.805886 267.653017 
L 513.744996 262.109323 
L 513.452506 256.539988 
L 512.924584 250.955239 
L 512.158133 245.365861 
L 511.150695 239.782618 
L 509.900308 234.216384 
L 508.405022 228.67617 
L 506.663513 223.172094 
L 504.675539 217.716188 
L 502.441912 212.321364 
L 499.964541 207.000984 
L 497.246773 201.769729 
L 494.292928 196.642756 
L 491.107994 191.634771 
L 487.697668 186.759908 
L 484.068322 182.031586 
L 480.226876 177.462257 
L 476.869228 173.78451 
L 473.374634 170.231975 
L 469.748451 166.810848 
L 465.996387 163.52693 
L 462.124481 160.385592 
L 458.139062 157.391768 
L 454.046708 154.549917 
L 449.004317 151.345871 
L 443.829826 148.372319 
L 438.535589 145.634165 
L 433.134142 143.135273 
L 427.638106 140.87849 
L 422.060069 138.865644 
L 416.412526 137.097585 
L 410.707772 135.574224 
L 404.957832 134.294576 
L 399.174172 133.256784 
L 393.367589 132.458181 
L 387.548466 131.895425 
L 381.72585 131.564488 
L 375.908095 131.460779 
L 370.103643 131.579266 
L 364.320731 131.914494 
L 358.567201 132.460669 
L 352.850357 133.211734 
L 347.177164 134.161432 
L 341.554205 135.303347 
L 335.987567 136.630974 
L 329.571534 138.405941 
L 323.247134 140.414724 
L 317.021245 142.647409 
L 310.900044 145.094403 
L 304.889053 147.746519 
L 298.993217 150.595036 
L 293.216996 153.631748 
L 287.564444 156.849008 
L 282.039302 160.239738 
L 276.645091 163.797443 
L 271.385193 167.516199 
L 266.262891 171.39066 
L 261.281472 175.41601 
L 256.444333 179.587891 
L 251.755046 183.902358 
L 247.217406 188.355826 
L 242.835482 192.945005 
L 238.613653 197.666834 
L 234.556616 202.518428 
L 230.668811 207.497716 
L 226.954736 212.60298 
L 223.419626 217.831883 
L 220.069275 223.18159 
L 216.909935 228.648802 
L 213.948222 234.229768 
L 211.191082 239.920234 
L 208.64572 245.715407 
L 206.319548 251.609909 
L 204.220107 257.597719 
L 202.355003 263.672135 
L 200.731826 269.825726 
L 199.538762 275.157075 
L 198.533542 280.534999 
L 197.720616 285.953466 
L 197.104242 291.406029 
L 196.688434 296.885813 
L 196.476918 302.385557 
L 196.473084 307.897627 
L 196.679939 313.414 
L 197.100071 318.926303 
L 197.735603 324.425822 
L 198.588166 329.903561 
L 199.658855 335.35027 
L 200.948211 340.756493 
L 202.456183 346.112619 
L 204.182184 351.409161 
L 206.125065 356.6367 
L 208.282994 361.785623 
L 210.653422 366.84616 
L 213.23311 371.808549 
L 216.018206 376.663257 
L 219.004265 381.400997 
L 222.186262 386.012778 
L 225.55862 390.489916 
L 229.115225 394.824096 
L 232.849467 399.007405 
L 236.754278 403.032362 
L 240.822172 406.891956 
L 245.045277 410.579679 
L 249.415401 414.089547 
L 253.924057 417.416109 
L 258.562527 420.554471 
L 263.321898 423.500301 
L 268.193111 426.249827 
L 273.167018 428.799843 
L 278.234411 431.147704 
L 283.386073 433.291305 
L 288.612823 435.229075 
L 293.905522 436.959948 
L 299.255011 438.483315 
L 304.652286 439.799057 
L 310.088569 440.907528 
L 315.555311 441.809503 
L 321.044201 442.506153 
L 326.547401 442.999023 
L 332.057402 443.289976 
L 337.566835 443.381154 
L 343.068516 443.274939 
L 348.555546 442.973939 
L 354.021561 442.480938 
L 360.363757 441.667056 
L 366.659214 440.600833 
L 372.89852 439.287456 
L 379.072616 437.732278 
L 385.172821 435.940756 
L 391.190815 433.918407 
L 397.11863 431.670765 
L 402.948618 429.203353 
L 408.673424 426.521651 
L 414.285944 423.631089 
L 419.779289 420.537033 
L 425.146761 417.244785 
L 426.656285 416.268474 
L 426.656285 416.268474 
" clip-path="url(#pcaf2e9175f)" style="fill: none; stroke: #d5bb67; stroke-opacity: 0.8; stroke-width: 4; stroke-linecap: round"/>
   </g>
   <g id="line2d_16">
    <path d="M 417.231352 411.896598 
L 423.601217 408.248479 
L 428.190645 405.368925 
L 433.143313 402.00163 
L 439.149646 397.648141 
L 445.705743 392.636036 
L 451.638385 387.836756 
L 456.909305 383.289122 
L 461.494978 379.046441 
L 465.949865 374.599995 
L 469.715045 370.533131 
L 473.335377 366.297226 
L 476.792494 361.890736 
L 480.069928 357.313042 
L 482.724794 353.254093 
L 485.227511 349.073623 
L 487.569513 344.77636 
L 489.742971 340.368139 
L 491.74097 335.855387 
L 493.557482 331.244931 
L 495.187146 326.544315 
L 496.625308 321.761619 
L 497.868031 316.905292 
L 498.912081 311.983801 
L 499.754504 307.005305 
L 500.392295 301.978717 
L 500.822874 296.913505 
L 501.044331 291.819352 
L 501.055503 286.706009 
L 500.855985 281.583184 
L 500.446093 276.460469 
L 499.826714 271.348136 
L 498.998743 266.257574 
L 497.963125 261.199915 
L 496.720809 256.184414 
L 495.272839 251.219358 
L 493.620873 246.313439 
L 491.767444 241.475739 
L 489.716 236.715507 
L 487.47081 232.041804 
L 485.036857 227.463335 
L 482.419752 222.98831 
L 479.625646 218.624408 
L 476.661301 214.378923 
L 473.533891 210.258516 
L 470.25077 206.269025 
L 466.81942 202.415635 
L 463.247397 198.702976 
L 459.542373 195.135208 
L 455.712127 191.716041 
L 451.095483 187.918961 
L 446.330845 184.332422 
L 441.42997 180.95964 
L 436.404341 177.803098 
L 431.265143 174.864652 
L 426.023242 172.14562 
L 420.689176 169.646867 
L 415.273143 167.368885 
L 409.78501 165.311853 
L 404.234325 163.475708 
L 398.630306 161.860183 
L 392.981643 160.464851 
L 387.296836 159.289309 
L 381.584382 158.333156 
L 375.852705 157.595917 
L 370.11011 157.077014 
L 364.364779 156.775765 
L 358.624761 156.69138 
L 352.898 156.822964 
L 347.192338 157.169525 
L 341.51555 157.729964 
L 335.87535 158.503082 
L 330.279418 159.48756 
L 324.735419 160.681961 
L 319.251022 162.084703 
L 313.8339 163.694045 
L 308.491763 165.508067 
L 303.232345 167.524652 
L 298.063416 169.741449 
L 292.992775 172.155859 
L 288.028252 174.765009 
L 283.17769 177.56572 
L 278.44894 180.554483 
L 273.849833 183.727447 
L 269.38816 187.080387 
L 265.071655 190.608695 
L 260.907962 194.30736 
L 256.904632 198.170968 
L 253.069068 202.193688 
L 249.408483 206.36926 
L 245.929861 210.690994 
L 242.639904 215.151779 
L 239.545012 219.744084 
L 236.651239 224.459983 
L 233.964258 229.291169 
L 231.489334 234.228982 
L 229.231296 239.264432 
L 227.194506 244.388233 
L 225.38285 249.59083 
L 223.799736 254.862433 
L 222.448074 260.193049 
L 221.330255 265.572526 
L 220.448138 270.990578 
L 219.80304 276.436831 
L 219.395739 281.900859 
L 219.226462 287.372215 
L 219.294904 292.840468 
L 219.600229 298.295252 
L 220.141082 303.72628 
L 220.915601 309.123388 
L 221.921435 314.476555 
L 223.155763 319.775936 
L 224.615309 325.011889 
L 226.296369 330.174989 
L 228.194826 335.256052 
L 230.306177 340.246155 
L 232.625559 345.136642 
L 235.147762 349.919147 
L 237.867258 354.585594 
L 240.778226 359.128211 
L 243.874565 363.539535 
L 247.149919 367.812412 
L 250.597703 371.940009 
L 254.211111 375.915806 
L 257.983136 379.733598 
L 261.906591 383.387499 
L 265.974116 386.871938 
L 270.178199 390.181656 
L 274.511181 393.31171 
L 278.965284 396.257466 
L 283.532599 399.014597 
L 288.205104 401.579082 
L 292.974681 403.947204 
L 297.833114 406.115551 
L 302.772102 408.081012 
L 307.783265 409.840779 
L 312.858141 411.392355 
L 317.988208 412.733535 
L 323.164875 413.862429 
L 328.379505 414.777453 
L 333.623409 415.47733 
L 338.887857 415.961105 
L 344.164084 416.228136 
L 349.443298 416.278103 
L 354.716696 416.111013 
L 359.975467 415.727203 
L 365.210795 415.127348 
L 370.413883 414.312453 
L 375.575964 413.283877 
L 380.688297 412.043315 
L 385.742196 410.59282 
L 390.729049 408.934788 
L 395.640314 407.071974 
L 400.467542 405.007488 
L 405.202403 402.744791 
L 409.836685 400.287702 
L 414.362328 397.640389 
L 418.148986 395.223278 
L 418.148986 395.223278 
" clip-path="url(#pcaf2e9175f)" style="fill: none; stroke: #4878d0; stroke-opacity: 0.8; stroke-width: 4; stroke-linecap: round"/>
   </g>
   <g id="line2d_17">
    <path d="M 417.234343 411.891718 
L 421.697251 409.26011 
L 426.921397 405.914177 
L 432.797471 401.866087 
L 438.543633 397.63689 
L 444.153564 393.237031 
L 449.604858 388.665783 
L 454.211779 384.524178 
L 458.638127 380.243927 
L 462.860414 375.815253 
L 466.300044 371.896406 
L 469.561814 367.862228 
L 472.63617 363.713881 
L 475.515319 359.455 
L 478.19309 355.090827 
L 480.664178 350.627411 
L 482.925116 346.070106 
L 484.97574 341.422139 
L 486.815876 336.69003 
L 488.446101 331.880795 
L 489.868019 327.001838 
L 491.083285 322.062716 
L 492.093525 317.074475 
L 492.900794 312.046963 
L 493.507234 306.989017 
L 493.914911 301.908842 
L 494.12577 296.814251 
L 494.141662 291.712807 
L 493.964386 286.611903 
L 493.595727 281.518809 
L 492.92617 275.596302 
L 492.001607 269.705421 
L 490.825235 263.857239 
L 489.400481 258.062666 
L 487.731049 252.332432 
L 485.820932 246.677071 
L 483.674442 241.106909 
L 481.296214 235.632049 
L 478.691212 230.262351 
L 475.864731 225.007419 
L 472.822391 219.876589 
L 469.57014 214.878917 
L 466.11424 210.023163 
L 462.461263 205.317782 
L 458.618075 200.770916 
L 454.591837 196.39038 
L 450.389984 192.183658 
L 446.020217 188.157887 
L 441.490491 184.319859 
L 436.809002 180.676005 
L 431.984171 177.232393 
L 427.024637 173.994718 
L 421.939239 170.968301 
L 416.736999 168.158074 
L 411.427117 165.568588 
L 406.018947 163.203994 
L 400.521988 161.068049 
L 394.945866 159.164107 
L 389.300322 157.495118 
L 383.595192 156.063624 
L 377.840398 154.871753 
L 372.045924 153.921225 
L 366.221809 153.213342 
L 360.378124 152.748993 
L 354.52496 152.528648 
L 348.672411 152.552364 
L 342.830558 152.819782 
L 337.00945 153.330127 
L 331.219092 154.082215 
L 325.469426 155.07445 
L 319.770316 156.304829 
L 314.131532 157.770948 
L 308.562734 159.470001 
L 303.073454 161.39879 
L 297.673083 163.553727 
L 292.370855 165.930842 
L 287.17583 168.525789 
L 282.096881 171.333854 
L 277.142678 174.349961 
L 272.321673 177.568681 
L 267.642086 180.984243 
L 263.111894 184.590544 
L 258.738812 188.381155 
L 254.530284 192.349336 
L 250.493469 196.488045 
L 246.635232 200.789952 
L 242.962124 205.24745 
L 239.48038 209.852667 
L 236.195903 214.597481 
L 233.114256 219.473533 
L 230.24065 224.472241 
L 227.579937 229.584814 
L 225.136601 234.802271 
L 222.91475 240.115449 
L 220.918101 245.515051 
L 219.149973 250.991664 
L 217.613306 256.535711 
L 216.310648 262.137484 
L 215.244146 267.787169 
L 214.41554 273.474865 
L 213.826157 279.190608 
L 213.476907 284.924388 
L 213.368284 290.666164 
L 213.500362 296.405885 
L 213.872796 302.133506 
L 214.484824 307.839007 
L 215.335266 313.512408 
L 216.422529 319.143789 
L 217.744606 324.723305 
L 219.299082 330.241204 
L 221.083139 335.687843 
L 223.093558 341.053707 
L 225.32673 346.329424 
L 227.778655 351.505778 
L 230.444954 356.573732 
L 233.320874 361.524438 
L 236.401299 366.349255 
L 239.680757 371.039762 
L 243.153428 375.587776 
L 246.813157 379.985362 
L 250.653465 384.224849 
L 254.667556 388.298846 
L 258.848333 392.200251 
L 263.188409 395.922263 
L 267.680118 399.458397 
L 272.315532 402.802495 
L 277.086473 405.948734 
L 281.984525 408.891639 
L 287.001052 411.626091 
L 292.127213 414.147335 
L 297.353975 416.450992 
L 302.67213 418.533064 
L 308.07231 420.38994 
L 313.545008 422.018406 
L 319.080587 423.415646 
L 324.669302 424.579252 
L 330.301318 425.507224 
L 335.966724 426.197977 
L 341.65555 426.650339 
L 347.357788 426.863559 
L 353.063406 426.837305 
L 358.762369 426.571662 
L 364.444652 426.067138 
L 370.100261 425.32466 
L 375.719251 424.34557 
L 381.291741 423.131629 
L 386.807932 421.685008 
L 392.258127 420.008285 
L 397.632743 418.104444 
L 402.92233 415.976866 
L 408.117591 413.629326 
L 413.209393 411.065983 
L 418.188787 408.291377 
L 423.047019 405.310419 
L 427.775553 402.12838 
L 432.366078 398.750886 
L 436.810528 395.183904 
L 439.281612 393.062965 
L 439.281612 393.062965 
" clip-path="url(#pcaf2e9175f)" style="fill: none; stroke: #956cb4; stroke-opacity: 0.8; stroke-width: 4; stroke-linecap: round"/>
   </g>
   <g id="patch_3">
    <path d="M 144 497.009521 
L 144 84.750479 
" style="fill: none; stroke: #262626; stroke-width: 1.875; stroke-linejoin: miter; stroke-linecap: square"/>
   </g>
   <g id="patch_4">
    <path d="M 549.818182 497.009521 
L 549.818182 84.750479 
" style="fill: none; stroke: #262626; stroke-width: 1.875; stroke-linejoin: miter; stroke-linecap: square"/>
   </g>
   <g id="patch_5">
    <path d="M 144 497.009521 
L 549.818182 497.009521 
" style="fill: none; stroke: #262626; stroke-width: 1.875; stroke-linejoin: miter; stroke-linecap: square"/>
   </g>
   <g id="patch_6">
    <path d="M 144 84.750479 
L 549.818182 84.750479 
" style="fill: none; stroke: #262626; stroke-width: 1.875; stroke-linejoin: miter; stroke-linecap: square"/>
   </g>
   <g id="legend_1">
    <g id="patch_7">
     <path d="M 288.30831 356.871797 
L 405.509872 356.871797 
Q 408.509872 356.871797 408.509872 353.871797 
L 408.509872 227.888203 
Q 408.509872 224.888203 405.509872 224.888203 
L 288.30831 224.888203 
Q 285.30831 224.888203 285.30831 227.888203 
L 285.30831 353.871797 
Q 285.30831 356.871797 288.30831 356.871797 
z
" style="fill: #ffffff; opacity: 0.8; stroke: #cccccc; stroke-width: 1.5; stroke-linejoin: miter"/>
    </g>
    <g id="line2d_18">
     <path d="M 291.30831 236.374922 
L 306.30831 236.374922 
L 321.30831 236.374922 
" style="fill: none; stroke-dasharray: 4,6.6; stroke-dashoffset: 0; stroke: #000000; stroke-width: 4"/>
    </g>
    <g id="text_15">
     <!-- Reference -->
     <g style="fill: #262626" transform="translate(333.30831 241.624922) scale(0.15 -0.15)">
      <defs>
       <path id="ArialMT-52" d="M 503 0 
L 503 4581 
L 2534 4581 
Q 3147 4581 3465 4457 
Q 3784 4334 3975 4021 
Q 4166 3709 4166 3331 
Q 4166 2844 3850 2509 
Q 3534 2175 2875 2084 
Q 3116 1969 3241 1856 
Q 3506 1613 3744 1247 
L 4541 0 
L 3778 0 
L 3172 953 
Q 2906 1366 2734 1584 
Q 2563 1803 2427 1890 
Q 2291 1978 2150 2013 
Q 2047 2034 1813 2034 
L 1109 2034 
L 1109 0 
L 503 0 
z
M 1109 2559 
L 2413 2559 
Q 2828 2559 3062 2645 
Q 3297 2731 3419 2920 
Q 3541 3109 3541 3331 
Q 3541 3656 3305 3865 
Q 3069 4075 2559 4075 
L 1109 4075 
L 1109 2559 
z
" transform="scale(0.015625)"/>
       <path id="ArialMT-65" d="M 2694 1069 
L 3275 997 
Q 3138 488 2766 206 
Q 2394 -75 1816 -75 
Q 1088 -75 661 373 
Q 234 822 234 1631 
Q 234 2469 665 2931 
Q 1097 3394 1784 3394 
Q 2450 3394 2872 2941 
Q 3294 2488 3294 1666 
Q 3294 1616 3291 1516 
L 816 1516 
Q 847 969 1125 678 
Q 1403 388 1819 388 
Q 2128 388 2347 550 
Q 2566 713 2694 1069 
z
M 847 1978 
L 2700 1978 
Q 2663 2397 2488 2606 
Q 2219 2931 1791 2931 
Q 1403 2931 1139 2672 
Q 875 2413 847 1978 
z
" transform="scale(0.015625)"/>
       <path id="ArialMT-66" d="M 556 0 
L 556 2881 
L 59 2881 
L 59 3319 
L 556 3319 
L 556 3672 
Q 556 4006 616 4169 
Q 697 4388 901 4523 
Q 1106 4659 1475 4659 
Q 1713 4659 2000 4603 
L 1916 4113 
Q 1741 4144 1584 4144 
Q 1328 4144 1222 4034 
Q 1116 3925 1116 3625 
L 1116 3319 
L 1763 3319 
L 1763 2881 
L 1116 2881 
L 1116 0 
L 556 0 
z
" transform="scale(0.015625)"/>
       <path id="ArialMT-72" d="M 416 0 
L 416 3319 
L 922 3319 
L 922 2816 
Q 1116 3169 1280 3281 
Q 1444 3394 1641 3394 
Q 1925 3394 2219 3213 
L 2025 2691 
Q 1819 2813 1613 2813 
Q 1428 2813 1281 2702 
Q 1134 2591 1072 2394 
Q 978 2094 978 1738 
L 978 0 
L 416 0 
z
" transform="scale(0.015625)"/>
       <path id="ArialMT-6e" d="M 422 0 
L 422 3319 
L 928 3319 
L 928 2847 
Q 1294 3394 1984 3394 
Q 2284 3394 2536 3286 
Q 2788 3178 2913 3003 
Q 3038 2828 3088 2588 
Q 3119 2431 3119 2041 
L 3119 0 
L 2556 0 
L 2556 2019 
Q 2556 2363 2490 2533 
Q 2425 2703 2258 2804 
Q 2091 2906 1866 2906 
Q 1506 2906 1245 2678 
Q 984 2450 984 1813 
L 984 0 
L 422 0 
z
" transform="scale(0.015625)"/>
       <path id="ArialMT-63" d="M 2588 1216 
L 3141 1144 
Q 3050 572 2676 248 
Q 2303 -75 1759 -75 
Q 1078 -75 664 370 
Q 250 816 250 1647 
Q 250 2184 428 2587 
Q 606 2991 970 3192 
Q 1334 3394 1763 3394 
Q 2303 3394 2647 3120 
Q 2991 2847 3088 2344 
L 2541 2259 
Q 2463 2594 2264 2762 
Q 2066 2931 1784 2931 
Q 1359 2931 1093 2626 
Q 828 2322 828 1663 
Q 828 994 1084 691 
Q 1341 388 1753 388 
Q 2084 388 2306 591 
Q 2528 794 2588 1216 
z
" transform="scale(0.015625)"/>
      </defs>
      <use xlink:href="#ArialMT-52"/>
      <use xlink:href="#ArialMT-65" x="72.216797"/>
      <use xlink:href="#ArialMT-66" x="127.832031"/>
      <use xlink:href="#ArialMT-65" x="155.615234"/>
      <use xlink:href="#ArialMT-72" x="211.230469"/>
      <use xlink:href="#ArialMT-65" x="244.53125"/>
      <use xlink:href="#ArialMT-6e" x="300.146484"/>
      <use xlink:href="#ArialMT-63" x="355.761719"/>
      <use xlink:href="#ArialMT-65" x="405.761719"/>
     </g>
    </g>
    <g id="line2d_19">
     <path d="M 291.30831 257.592891 
L 306.30831 257.592891 
L 321.30831 257.592891 
" style="fill: none; stroke: #797979; stroke-opacity: 0.8; stroke-width: 4; stroke-linecap: round"/>
    </g>
    <g id="text_16">
     <!-- Baseline -->
     <g style="fill: #262626" transform="translate(333.30831 262.842891) scale(0.15 -0.15)">
      <defs>
       <path id="ArialMT-42" d="M 469 0 
L 469 4581 
L 2188 4581 
Q 2713 4581 3030 4442 
Q 3347 4303 3526 4014 
Q 3706 3725 3706 3409 
Q 3706 3116 3547 2856 
Q 3388 2597 3066 2438 
Q 3481 2316 3704 2022 
Q 3928 1728 3928 1328 
Q 3928 1006 3792 729 
Q 3656 453 3456 303 
Q 3256 153 2954 76 
Q 2653 0 2216 0 
L 469 0 
z
M 1075 2656 
L 2066 2656 
Q 2469 2656 2644 2709 
Q 2875 2778 2992 2937 
Q 3109 3097 3109 3338 
Q 3109 3566 3000 3739 
Q 2891 3913 2687 3977 
Q 2484 4041 1991 4041 
L 1075 4041 
L 1075 2656 
z
M 1075 541 
L 2216 541 
Q 2509 541 2628 563 
Q 2838 600 2978 687 
Q 3119 775 3209 942 
Q 3300 1109 3300 1328 
Q 3300 1584 3169 1773 
Q 3038 1963 2805 2039 
Q 2572 2116 2134 2116 
L 1075 2116 
L 1075 541 
z
" transform="scale(0.015625)"/>
       <path id="ArialMT-61" d="M 2588 409 
Q 2275 144 1986 34 
Q 1697 -75 1366 -75 
Q 819 -75 525 192 
Q 231 459 231 875 
Q 231 1119 342 1320 
Q 453 1522 633 1644 
Q 813 1766 1038 1828 
Q 1203 1872 1538 1913 
Q 2219 1994 2541 2106 
Q 2544 2222 2544 2253 
Q 2544 2597 2384 2738 
Q 2169 2928 1744 2928 
Q 1347 2928 1158 2789 
Q 969 2650 878 2297 
L 328 2372 
Q 403 2725 575 2942 
Q 747 3159 1072 3276 
Q 1397 3394 1825 3394 
Q 2250 3394 2515 3294 
Q 2781 3194 2906 3042 
Q 3031 2891 3081 2659 
Q 3109 2516 3109 2141 
L 3109 1391 
Q 3109 606 3145 398 
Q 3181 191 3288 0 
L 2700 0 
Q 2613 175 2588 409 
z
M 2541 1666 
Q 2234 1541 1622 1453 
Q 1275 1403 1131 1340 
Q 988 1278 909 1158 
Q 831 1038 831 891 
Q 831 666 1001 516 
Q 1172 366 1500 366 
Q 1825 366 2078 508 
Q 2331 650 2450 897 
Q 2541 1088 2541 1459 
L 2541 1666 
z
" transform="scale(0.015625)"/>
       <path id="ArialMT-73" d="M 197 991 
L 753 1078 
Q 800 744 1014 566 
Q 1228 388 1613 388 
Q 2000 388 2187 545 
Q 2375 703 2375 916 
Q 2375 1106 2209 1216 
Q 2094 1291 1634 1406 
Q 1016 1563 777 1677 
Q 538 1791 414 1992 
Q 291 2194 291 2438 
Q 291 2659 392 2848 
Q 494 3038 669 3163 
Q 800 3259 1026 3326 
Q 1253 3394 1513 3394 
Q 1903 3394 2198 3281 
Q 2494 3169 2634 2976 
Q 2775 2784 2828 2463 
L 2278 2388 
Q 2241 2644 2061 2787 
Q 1881 2931 1553 2931 
Q 1166 2931 1000 2803 
Q 834 2675 834 2503 
Q 834 2394 903 2306 
Q 972 2216 1119 2156 
Q 1203 2125 1616 2013 
Q 2213 1853 2448 1751 
Q 2684 1650 2818 1456 
Q 2953 1263 2953 975 
Q 2953 694 2789 445 
Q 2625 197 2315 61 
Q 2006 -75 1616 -75 
Q 969 -75 630 194 
Q 291 463 197 991 
z
" transform="scale(0.015625)"/>
       <path id="ArialMT-6c" d="M 409 0 
L 409 4581 
L 972 4581 
L 972 0 
L 409 0 
z
" transform="scale(0.015625)"/>
       <path id="ArialMT-69" d="M 425 3934 
L 425 4581 
L 988 4581 
L 988 3934 
L 425 3934 
z
M 425 0 
L 425 3319 
L 988 3319 
L 988 0 
L 425 0 
z
" transform="scale(0.015625)"/>
      </defs>
      <use xlink:href="#ArialMT-42"/>
      <use xlink:href="#ArialMT-61" x="66.699219"/>
      <use xlink:href="#ArialMT-73" x="122.314453"/>
      <use xlink:href="#ArialMT-65" x="172.314453"/>
      <use xlink:href="#ArialMT-6c" x="227.929688"/>
      <use xlink:href="#ArialMT-69" x="250.146484"/>
      <use xlink:href="#ArialMT-6e" x="272.363281"/>
      <use xlink:href="#ArialMT-65" x="327.978516"/>
     </g>
    </g>
    <g id="line2d_20">
     <path d="M 291.30831 278.810859 
L 306.30831 278.810859 
L 321.30831 278.810859 
" style="fill: none; stroke: #d5bb67; stroke-opacity: 0.8; stroke-width: 4; stroke-linecap: round"/>
    </g>
    <g id="text_17">
     <!-- DDPG -->
     <g style="fill: #262626" transform="translate(333.30831 284.060859) scale(0.15 -0.15)">
      <defs>
       <path id="ArialMT-44" d="M 494 0 
L 494 4581 
L 2072 4581 
Q 2606 4581 2888 4516 
Q 3281 4425 3559 4188 
Q 3922 3881 4101 3404 
Q 4281 2928 4281 2316 
Q 4281 1794 4159 1391 
Q 4038 988 3847 723 
Q 3656 459 3429 307 
Q 3203 156 2883 78 
Q 2563 0 2147 0 
L 494 0 
z
M 1100 541 
L 2078 541 
Q 2531 541 2789 625 
Q 3047 709 3200 863 
Q 3416 1078 3536 1442 
Q 3656 1806 3656 2325 
Q 3656 3044 3420 3430 
Q 3184 3816 2847 3947 
Q 2603 4041 2063 4041 
L 1100 4041 
L 1100 541 
z
" transform="scale(0.015625)"/>
       <path id="ArialMT-50" d="M 494 0 
L 494 4581 
L 2222 4581 
Q 2678 4581 2919 4538 
Q 3256 4481 3484 4323 
Q 3713 4166 3852 3881 
Q 3991 3597 3991 3256 
Q 3991 2672 3619 2267 
Q 3247 1863 2275 1863 
L 1100 1863 
L 1100 0 
L 494 0 
z
M 1100 2403 
L 2284 2403 
Q 2872 2403 3119 2622 
Q 3366 2841 3366 3238 
Q 3366 3525 3220 3729 
Q 3075 3934 2838 4000 
Q 2684 4041 2272 4041 
L 1100 4041 
L 1100 2403 
z
" transform="scale(0.015625)"/>
       <path id="ArialMT-47" d="M 2638 1797 
L 2638 2334 
L 4578 2338 
L 4578 638 
Q 4131 281 3656 101 
Q 3181 -78 2681 -78 
Q 2006 -78 1454 211 
Q 903 500 622 1047 
Q 341 1594 341 2269 
Q 341 2938 620 3517 
Q 900 4097 1425 4378 
Q 1950 4659 2634 4659 
Q 3131 4659 3532 4498 
Q 3934 4338 4162 4050 
Q 4391 3763 4509 3300 
L 3963 3150 
Q 3859 3500 3706 3700 
Q 3553 3900 3268 4020 
Q 2984 4141 2638 4141 
Q 2222 4141 1919 4014 
Q 1616 3888 1430 3681 
Q 1244 3475 1141 3228 
Q 966 2803 966 2306 
Q 966 1694 1177 1281 
Q 1388 869 1791 669 
Q 2194 469 2647 469 
Q 3041 469 3416 620 
Q 3791 772 3984 944 
L 3984 1797 
L 2638 1797 
z
" transform="scale(0.015625)"/>
      </defs>
      <use xlink:href="#ArialMT-44"/>
      <use xlink:href="#ArialMT-44" x="72.216797"/>
      <use xlink:href="#ArialMT-50" x="144.433594"/>
      <use xlink:href="#ArialMT-47" x="211.132812"/>
     </g>
    </g>
    <g id="line2d_21">
     <path d="M 291.30831 300.028828 
L 306.30831 300.028828 
L 321.30831 300.028828 
" style="fill: none; stroke: #4878d0; stroke-opacity: 0.8; stroke-width: 4; stroke-linecap: round"/>
    </g>
    <g id="text_18">
     <!-- D-learning -->
     <g style="fill: #262626" transform="translate(333.30831 305.278828) scale(0.15 -0.15)">
      <defs>
       <path id="ArialMT-2d" d="M 203 1375 
L 203 1941 
L 1931 1941 
L 1931 1375 
L 203 1375 
z
" transform="scale(0.015625)"/>
       <path id="ArialMT-67" d="M 319 -275 
L 866 -356 
Q 900 -609 1056 -725 
Q 1266 -881 1628 -881 
Q 2019 -881 2231 -725 
Q 2444 -569 2519 -288 
Q 2563 -116 2559 434 
Q 2191 0 1641 0 
Q 956 0 581 494 
Q 206 988 206 1678 
Q 206 2153 378 2554 
Q 550 2956 876 3175 
Q 1203 3394 1644 3394 
Q 2231 3394 2613 2919 
L 2613 3319 
L 3131 3319 
L 3131 450 
Q 3131 -325 2973 -648 
Q 2816 -972 2473 -1159 
Q 2131 -1347 1631 -1347 
Q 1038 -1347 672 -1080 
Q 306 -813 319 -275 
z
M 784 1719 
Q 784 1066 1043 766 
Q 1303 466 1694 466 
Q 2081 466 2343 764 
Q 2606 1063 2606 1700 
Q 2606 2309 2336 2618 
Q 2066 2928 1684 2928 
Q 1309 2928 1046 2623 
Q 784 2319 784 1719 
z
" transform="scale(0.015625)"/>
      </defs>
      <use xlink:href="#ArialMT-44"/>
      <use xlink:href="#ArialMT-2d" x="72.216797"/>
      <use xlink:href="#ArialMT-6c" x="105.517578"/>
      <use xlink:href="#ArialMT-65" x="127.734375"/>
      <use xlink:href="#ArialMT-61" x="183.349609"/>
      <use xlink:href="#ArialMT-72" x="238.964844"/>
      <use xlink:href="#ArialMT-6e" x="272.265625"/>
      <use xlink:href="#ArialMT-69" x="327.880859"/>
      <use xlink:href="#ArialMT-6e" x="350.097656"/>
      <use xlink:href="#ArialMT-67" x="405.712891"/>
     </g>
    </g>
    <g id="line2d_22">
     <path d="M 291.30831 321.422578 
L 306.30831 321.422578 
L 321.30831 321.422578 
" style="fill: none; stroke: #956cb4; stroke-opacity: 0.8; stroke-width: 4; stroke-linecap: round"/>
    </g>
    <g id="text_19">
     <!-- DOPT -->
     <g style="fill: #262626" transform="translate(333.30831 326.672578) scale(0.15 -0.15)">
      <defs>
       <path id="ArialMT-4f" d="M 309 2231 
Q 309 3372 921 4017 
Q 1534 4663 2503 4663 
Q 3138 4663 3647 4359 
Q 4156 4056 4423 3514 
Q 4691 2972 4691 2284 
Q 4691 1588 4409 1038 
Q 4128 488 3612 205 
Q 3097 -78 2500 -78 
Q 1853 -78 1343 234 
Q 834 547 571 1087 
Q 309 1628 309 2231 
z
M 934 2222 
Q 934 1394 1379 917 
Q 1825 441 2497 441 
Q 3181 441 3623 922 
Q 4066 1403 4066 2288 
Q 4066 2847 3877 3264 
Q 3688 3681 3323 3911 
Q 2959 4141 2506 4141 
Q 1863 4141 1398 3698 
Q 934 3256 934 2222 
z
" transform="scale(0.015625)"/>
       <path id="ArialMT-54" d="M 1659 0 
L 1659 4041 
L 150 4041 
L 150 4581 
L 3781 4581 
L 3781 4041 
L 2266 4041 
L 2266 0 
L 1659 0 
z
" transform="scale(0.015625)"/>
      </defs>
      <use xlink:href="#ArialMT-44"/>
      <use xlink:href="#ArialMT-4f" x="72.216797"/>
      <use xlink:href="#ArialMT-50" x="150"/>
      <use xlink:href="#ArialMT-54" x="216.699219"/>
     </g>
    </g>
    <g id="PathCollection_2">
     <g>
      <use xlink:href="#m70f5a462a8" x="306.30831" y="343.953047" style="fill: #d65f5f; stroke: #d65f5f; stroke-width: 1.5"/>
     </g>
    </g>
    <g id="text_20">
     <!-- Start -->
     <g style="fill: #262626" transform="translate(333.30831 347.890547) scale(0.15 -0.15)">
      <defs>
       <path id="ArialMT-53" d="M 288 1472 
L 859 1522 
Q 900 1178 1048 958 
Q 1197 738 1509 602 
Q 1822 466 2213 466 
Q 2559 466 2825 569 
Q 3091 672 3220 851 
Q 3350 1031 3350 1244 
Q 3350 1459 3225 1620 
Q 3100 1781 2813 1891 
Q 2628 1963 1997 2114 
Q 1366 2266 1113 2400 
Q 784 2572 623 2826 
Q 463 3081 463 3397 
Q 463 3744 659 4045 
Q 856 4347 1234 4503 
Q 1613 4659 2075 4659 
Q 2584 4659 2973 4495 
Q 3363 4331 3572 4012 
Q 3781 3694 3797 3291 
L 3216 3247 
Q 3169 3681 2898 3903 
Q 2628 4125 2100 4125 
Q 1550 4125 1298 3923 
Q 1047 3722 1047 3438 
Q 1047 3191 1225 3031 
Q 1400 2872 2139 2705 
Q 2878 2538 3153 2413 
Q 3553 2228 3743 1945 
Q 3934 1663 3934 1294 
Q 3934 928 3725 604 
Q 3516 281 3123 101 
Q 2731 -78 2241 -78 
Q 1619 -78 1198 103 
Q 778 284 539 648 
Q 300 1013 288 1472 
z
" transform="scale(0.015625)"/>
       <path id="ArialMT-74" d="M 1650 503 
L 1731 6 
Q 1494 -44 1306 -44 
Q 1000 -44 831 53 
Q 663 150 594 308 
Q 525 466 525 972 
L 525 2881 
L 113 2881 
L 113 3319 
L 525 3319 
L 525 4141 
L 1084 4478 
L 1084 3319 
L 1650 3319 
L 1650 2881 
L 1084 2881 
L 1084 941 
Q 1084 700 1114 631 
Q 1144 563 1211 522 
Q 1278 481 1403 481 
Q 1497 481 1650 503 
z
" transform="scale(0.015625)"/>
      </defs>
      <use xlink:href="#ArialMT-53"/>
      <use xlink:href="#ArialMT-74" x="66.699219"/>
      <use xlink:href="#ArialMT-61" x="94.482422"/>
      <use xlink:href="#ArialMT-72" x="150.097656"/>
      <use xlink:href="#ArialMT-74" x="183.398438"/>
     </g>
    </g>
   </g>
  </g>
  <g id="axes_2">
   <g id="patch_8">
    <path d="M 630.981818 512.64 
L 1036.8 512.64 
L 1036.8 69.12 
L 630.981818 69.12 
z
" style="fill: #ffffff"/>
   </g>
   <g id="matplotlib.axis_3">
    <g id="xtick_5">
     <g id="line2d_23">
      <path d="M 630.981818 512.64 
L 630.981818 69.12 
" clip-path="url(#pa023e7afb5)" style="fill: none; stroke: #cccccc; stroke-width: 1.5; stroke-linecap: round"/>
     </g>
     <g id="text_21">
      <!-- 0 -->
      <g style="fill: #262626" transform="translate(625.420881 539.455625) scale(0.2 -0.2)">
       <use xlink:href="#ArialMT-30"/>
      </g>
     </g>
    </g>
    <g id="xtick_6">
     <g id="line2d_24">
      <path d="M 702.808045 512.64 
L 702.808045 69.12 
" clip-path="url(#pa023e7afb5)" style="fill: none; stroke: #cccccc; stroke-width: 1.5; stroke-linecap: round"/>
     </g>
     <g id="text_22">
      <!-- 2 -->
      <g style="fill: #262626" transform="translate(697.247108 539.455625) scale(0.2 -0.2)">
       <use xlink:href="#ArialMT-32"/>
      </g>
     </g>
    </g>
    <g id="xtick_7">
     <g id="line2d_25">
      <path d="M 774.634272 512.64 
L 774.634272 69.12 
" clip-path="url(#pa023e7afb5)" style="fill: none; stroke: #cccccc; stroke-width: 1.5; stroke-linecap: round"/>
     </g>
     <g id="text_23">
      <!-- 4 -->
      <g style="fill: #262626" transform="translate(769.073334 539.455625) scale(0.2 -0.2)">
       <defs>
        <path id="ArialMT-34" d="M 2069 0 
L 2069 1097 
L 81 1097 
L 81 1613 
L 2172 4581 
L 2631 4581 
L 2631 1613 
L 3250 1613 
L 3250 1097 
L 2631 1097 
L 2631 0 
L 2069 0 
z
M 2069 1613 
L 2069 3678 
L 634 1613 
L 2069 1613 
z
" transform="scale(0.015625)"/>
       </defs>
       <use xlink:href="#ArialMT-34"/>
      </g>
     </g>
    </g>
    <g id="xtick_8">
     <g id="line2d_26">
      <path d="M 846.460499 512.64 
L 846.460499 69.12 
" clip-path="url(#pa023e7afb5)" style="fill: none; stroke: #cccccc; stroke-width: 1.5; stroke-linecap: round"/>
     </g>
     <g id="text_24">
      <!-- 6 -->
      <g style="fill: #262626" transform="translate(840.899561 539.455625) scale(0.2 -0.2)">
       <defs>
        <path id="ArialMT-36" d="M 3184 3459 
L 2625 3416 
Q 2550 3747 2413 3897 
Q 2184 4138 1850 4138 
Q 1581 4138 1378 3988 
Q 1113 3794 959 3422 
Q 806 3050 800 2363 
Q 1003 2672 1297 2822 
Q 1591 2972 1913 2972 
Q 2475 2972 2870 2558 
Q 3266 2144 3266 1488 
Q 3266 1056 3080 686 
Q 2894 316 2569 119 
Q 2244 -78 1831 -78 
Q 1128 -78 684 439 
Q 241 956 241 2144 
Q 241 3472 731 4075 
Q 1159 4600 1884 4600 
Q 2425 4600 2770 4297 
Q 3116 3994 3184 3459 
z
M 888 1484 
Q 888 1194 1011 928 
Q 1134 663 1356 523 
Q 1578 384 1822 384 
Q 2178 384 2434 671 
Q 2691 959 2691 1453 
Q 2691 1928 2437 2201 
Q 2184 2475 1800 2475 
Q 1419 2475 1153 2201 
Q 888 1928 888 1484 
z
" transform="scale(0.015625)"/>
       </defs>
       <use xlink:href="#ArialMT-36"/>
      </g>
     </g>
    </g>
    <g id="xtick_9">
     <g id="line2d_27">
      <path d="M 918.286726 512.64 
L 918.286726 69.12 
" clip-path="url(#pa023e7afb5)" style="fill: none; stroke: #cccccc; stroke-width: 1.5; stroke-linecap: round"/>
     </g>
     <g id="text_25">
      <!-- 8 -->
      <g style="fill: #262626" transform="translate(912.725788 539.455625) scale(0.2 -0.2)">
       <defs>
        <path id="ArialMT-38" d="M 1131 2484 
Q 781 2613 612 2850 
Q 444 3088 444 3419 
Q 444 3919 803 4259 
Q 1163 4600 1759 4600 
Q 2359 4600 2725 4251 
Q 3091 3903 3091 3403 
Q 3091 3084 2923 2848 
Q 2756 2613 2416 2484 
Q 2838 2347 3058 2040 
Q 3278 1734 3278 1309 
Q 3278 722 2862 322 
Q 2447 -78 1769 -78 
Q 1091 -78 675 323 
Q 259 725 259 1325 
Q 259 1772 486 2073 
Q 713 2375 1131 2484 
z
M 1019 3438 
Q 1019 3113 1228 2906 
Q 1438 2700 1772 2700 
Q 2097 2700 2305 2904 
Q 2513 3109 2513 3406 
Q 2513 3716 2298 3927 
Q 2084 4138 1766 4138 
Q 1444 4138 1231 3931 
Q 1019 3725 1019 3438 
z
M 838 1322 
Q 838 1081 952 856 
Q 1066 631 1291 507 
Q 1516 384 1775 384 
Q 2178 384 2440 643 
Q 2703 903 2703 1303 
Q 2703 1709 2433 1975 
Q 2163 2241 1756 2241 
Q 1359 2241 1098 1978 
Q 838 1716 838 1322 
z
" transform="scale(0.015625)"/>
       </defs>
       <use xlink:href="#ArialMT-38"/>
      </g>
     </g>
    </g>
    <g id="xtick_10">
     <g id="line2d_28">
      <path d="M 990.112953 512.64 
L 990.112953 69.12 
" clip-path="url(#pa023e7afb5)" style="fill: none; stroke: #cccccc; stroke-width: 1.5; stroke-linecap: round"/>
     </g>
     <g id="text_26">
      <!-- 10 -->
      <g style="fill: #262626" transform="translate(978.991078 539.455625) scale(0.2 -0.2)">
       <use xlink:href="#ArialMT-31"/>
       <use xlink:href="#ArialMT-30" x="55.615234"/>
      </g>
     </g>
    </g>
    <g id="text_27">
     <!-- $t (s)$ -->
     <g style="fill: #262626" transform="translate(816.890909 561.74625) scale(0.2 -0.2)">
      <defs>
       <path id="DejaVuSans-Oblique-74" d="M 2706 3500 
L 2619 3053 
L 1472 3053 
L 1100 1153 
Q 1081 1047 1072 975 
Q 1063 903 1063 863 
Q 1063 663 1183 572 
Q 1303 481 1569 481 
L 2150 481 
L 2053 0 
L 1503 0 
Q 991 0 739 200 
Q 488 400 488 806 
Q 488 878 497 964 
Q 506 1050 525 1153 
L 897 3053 
L 409 3053 
L 500 3500 
L 978 3500 
L 1172 4494 
L 1747 4494 
L 1556 3500 
L 2706 3500 
z
" transform="scale(0.015625)"/>
       <path id="DejaVuSans-Oblique-73" d="M 3200 3397 
L 3091 2853 
Q 2863 2978 2609 3040 
Q 2356 3103 2088 3103 
Q 1634 3103 1373 2948 
Q 1113 2794 1113 2528 
Q 1113 2219 1719 2053 
Q 1766 2041 1788 2034 
L 1972 1978 
Q 2547 1819 2739 1644 
Q 2931 1469 2931 1166 
Q 2931 609 2489 259 
Q 2047 -91 1331 -91 
Q 1053 -91 747 -37 
Q 441 16 72 128 
L 184 722 
Q 500 559 806 475 
Q 1113 391 1394 391 
Q 1816 391 2080 572 
Q 2344 753 2344 1031 
Q 2344 1331 1650 1516 
L 1591 1531 
L 1394 1581 
Q 956 1697 753 1886 
Q 550 2075 550 2369 
Q 550 2928 970 3256 
Q 1391 3584 2113 3584 
Q 2397 3584 2667 3537 
Q 2938 3491 3200 3397 
z
" transform="scale(0.015625)"/>
      </defs>
      <use xlink:href="#DejaVuSans-Oblique-74" transform="translate(0 0.125)"/>
      <use xlink:href="#DejaVuSans-28" transform="translate(39.208984 0.125)"/>
      <use xlink:href="#DejaVuSans-Oblique-73" transform="translate(78.222656 0.125)"/>
      <use xlink:href="#DejaVuSans-29" transform="translate(130.322266 0.125)"/>
     </g>
    </g>
   </g>
   <g id="matplotlib.axis_4">
    <g id="ytick_9">
     <g id="line2d_29">
      <path d="M 630.981818 512.64 
L 1036.8 512.64 
" clip-path="url(#pa023e7afb5)" style="fill: none; stroke: #cccccc; stroke-width: 1.5; stroke-linecap: round"/>
     </g>
     <g id="text_28">
      <!-- 0.0 -->
      <g style="fill: #262626" transform="translate(590.681818 519.797812) scale(0.2 -0.2)">
       <use xlink:href="#ArialMT-30"/>
       <use xlink:href="#ArialMT-2e" x="55.615234"/>
       <use xlink:href="#ArialMT-30" x="83.398438"/>
      </g>
     </g>
    </g>
    <g id="ytick_10">
     <g id="line2d_30">
      <path d="M 630.981818 434.440135 
L 1036.8 434.440135 
" clip-path="url(#pa023e7afb5)" style="fill: none; stroke: #cccccc; stroke-width: 1.5; stroke-linecap: round"/>
     </g>
     <g id="text_29">
      <!-- 0.1 -->
      <g style="fill: #262626" transform="translate(590.681818 441.597947) scale(0.2 -0.2)">
       <use xlink:href="#ArialMT-30"/>
       <use xlink:href="#ArialMT-2e" x="55.615234"/>
       <use xlink:href="#ArialMT-31" x="83.398438"/>
      </g>
     </g>
    </g>
    <g id="ytick_11">
     <g id="line2d_31">
      <path d="M 630.981818 356.24027 
L 1036.8 356.24027 
" clip-path="url(#pa023e7afb5)" style="fill: none; stroke: #cccccc; stroke-width: 1.5; stroke-linecap: round"/>
     </g>
     <g id="text_30">
      <!-- 0.2 -->
      <g style="fill: #262626" transform="translate(590.681818 363.398082) scale(0.2 -0.2)">
       <use xlink:href="#ArialMT-30"/>
       <use xlink:href="#ArialMT-2e" x="55.615234"/>
       <use xlink:href="#ArialMT-32" x="83.398438"/>
      </g>
     </g>
    </g>
    <g id="ytick_12">
     <g id="line2d_32">
      <path d="M 630.981818 278.040405 
L 1036.8 278.040405 
" clip-path="url(#pa023e7afb5)" style="fill: none; stroke: #cccccc; stroke-width: 1.5; stroke-linecap: round"/>
     </g>
     <g id="text_31">
      <!-- 0.3 -->
      <g style="fill: #262626" transform="translate(590.681818 285.198217) scale(0.2 -0.2)">
       <use xlink:href="#ArialMT-30"/>
       <use xlink:href="#ArialMT-2e" x="55.615234"/>
       <use xlink:href="#ArialMT-33" x="83.398438"/>
      </g>
     </g>
    </g>
    <g id="ytick_13">
     <g id="line2d_33">
      <path d="M 630.981818 199.84054 
L 1036.8 199.84054 
" clip-path="url(#pa023e7afb5)" style="fill: none; stroke: #cccccc; stroke-width: 1.5; stroke-linecap: round"/>
     </g>
     <g id="text_32">
      <!-- 0.4 -->
      <g style="fill: #262626" transform="translate(590.681818 206.998352) scale(0.2 -0.2)">
       <use xlink:href="#ArialMT-30"/>
       <use xlink:href="#ArialMT-2e" x="55.615234"/>
       <use xlink:href="#ArialMT-34" x="83.398438"/>
      </g>
     </g>
    </g>
    <g id="ytick_14">
     <g id="line2d_34">
      <path d="M 630.981818 121.640675 
L 1036.8 121.640675 
" clip-path="url(#pa023e7afb5)" style="fill: none; stroke: #cccccc; stroke-width: 1.5; stroke-linecap: round"/>
     </g>
     <g id="text_33">
      <!-- 0.5 -->
      <g style="fill: #262626" transform="translate(590.681818 128.798487) scale(0.2 -0.2)">
       <use xlink:href="#ArialMT-30"/>
       <use xlink:href="#ArialMT-2e" x="55.615234"/>
       <use xlink:href="#ArialMT-35" x="83.398438"/>
      </g>
     </g>
    </g>
    <g id="text_34">
     <!-- error -->
     <g style="fill: #262626" transform="translate(582.706818 311.990937) rotate(-90) scale(0.2 -0.2)">
      <defs>
       <path id="ArialMT-6f" d="M 213 1659 
Q 213 2581 725 3025 
Q 1153 3394 1769 3394 
Q 2453 3394 2887 2945 
Q 3322 2497 3322 1706 
Q 3322 1066 3130 698 
Q 2938 331 2570 128 
Q 2203 -75 1769 -75 
Q 1072 -75 642 372 
Q 213 819 213 1659 
z
M 791 1659 
Q 791 1022 1069 705 
Q 1347 388 1769 388 
Q 2188 388 2466 706 
Q 2744 1025 2744 1678 
Q 2744 2294 2464 2611 
Q 2184 2928 1769 2928 
Q 1347 2928 1069 2612 
Q 791 2297 791 1659 
z
" transform="scale(0.015625)"/>
      </defs>
      <use xlink:href="#ArialMT-65"/>
      <use xlink:href="#ArialMT-72" x="55.615234"/>
      <use xlink:href="#ArialMT-72" x="88.916016"/>
      <use xlink:href="#ArialMT-6f" x="122.216797"/>
      <use xlink:href="#ArialMT-72" x="177.832031"/>
     </g>
    </g>
   </g>
   <g id="line2d_35">
    <path d="M 630.981818 512.621886 
L 632.059212 512.370159 
L 633.136605 511.861771 
L 634.213998 511.128668 
L 635.650523 509.827769 
L 637.087047 508.166285 
L 638.523572 506.139148 
L 639.960097 503.734559 
L 641.396621 500.939742 
L 643.192277 496.88153 
L 644.987932 492.184301 
L 646.783588 486.845023 
L 648.579244 480.870047 
L 650.734031 472.881922 
L 652.888817 464.037515 
L 655.402735 452.702331 
L 657.916653 440.359671 
L 660.789702 425.151445 
L 664.021883 406.833262 
L 667.972325 383.051327 
L 673.000161 351.248801 
L 689.161062 247.704895 
L 693.470636 222.195447 
L 697.061947 202.23695 
L 700.294127 185.456899 
L 703.167176 171.580304 
L 706.040225 158.750014 
L 708.554143 148.421282 
L 711.068061 138.955454 
L 713.581979 130.367146 
L 715.736766 123.708866 
L 717.891553 117.698555 
L 720.04634 112.330847 
L 722.201126 107.596048 
L 723.996782 104.124485 
L 725.792438 101.073845 
L 727.588093 98.433087 
L 729.383749 96.189808 
L 731.179405 94.330313 
L 732.97506 92.839803 
L 734.411585 91.902473 
L 735.848109 91.182808 
L 737.284634 90.672102 
L 738.721158 90.361322 
L 740.157683 90.241296 
L 741.953339 90.345339 
L 743.748994 90.714355 
L 745.54465 91.329726 
L 747.340306 92.172728 
L 749.495093 93.458508 
L 751.649879 95.01327 
L 754.163797 97.125212 
L 757.036846 99.872321 
L 760.269027 103.304475 
L 764.219469 107.857947 
L 769.965567 114.878751 
L 779.302977 126.312725 
L 783.971681 131.65747 
L 787.922124 135.846298 
L 791.513435 139.333455 
L 794.745615 142.180651 
L 797.977796 144.733059 
L 801.209976 146.978914 
L 804.083025 148.713009 
L 806.956074 150.199836 
L 809.829123 151.442017 
L 812.702172 152.445239 
L 815.575221 153.21762 
L 818.44827 153.769661 
L 821.321319 154.113698 
L 824.5535 154.269603 
L 827.78568 154.20202 
L 831.376991 153.893276 
L 835.327434 153.308455 
L 839.637007 152.429559 
L 844.664843 151.162599 
L 851.129204 149.288009 
L 870.522285 143.512991 
L 876.627514 142.003517 
L 882.373612 140.809815 
L 887.760579 139.90865 
L 893.147546 139.222127 
L 898.893644 138.718937 
L 904.639743 138.434389 
L 911.104103 138.343435 
L 918.286726 138.475085 
L 926.905873 138.867264 
L 939.834594 139.707648 
L 959.586806 140.972483 
L 971.438134 141.48937 
L 982.93033 141.763398 
L 995.49992 141.831984 
L 1011.301689 141.679048 
L 1018.484312 141.561624 
L 1018.484312 141.561624 
" clip-path="url(#pa023e7afb5)" style="fill: none; stroke: #797979; stroke-width: 4; stroke-linecap: round"/>
   </g>
   <g id="line2d_36">
    <path d="M 630.981818 512.622364 
L 632.059212 512.387201 
L 633.136605 511.915153 
L 634.213998 511.204816 
L 635.291392 510.249333 
L 636.727916 508.619545 
L 638.164441 506.64415 
L 639.960097 503.802376 
L 642.474014 499.352527 
L 645.706195 493.147297 
L 649.656637 485.053639 
L 653.247949 477.166404 
L 656.480129 469.504121 
L 659.353178 462.107091 
L 662.226227 454.051571 
L 665.099276 445.285802 
L 667.972325 435.814225 
L 671.204505 424.36677 
L 674.795817 410.781515 
L 679.10539 393.523395 
L 685.210619 368.011283 
L 695.984553 322.897115 
L 701.012389 302.863762 
L 705.321963 286.597451 
L 709.272405 272.590485 
L 712.863717 260.713619 
L 716.095897 250.790052 
L 718.968946 242.618304 
L 721.841995 235.088612 
L 724.355913 229.054816 
L 726.869831 223.565096 
L 729.383749 218.633096 
L 731.538536 214.854793 
L 733.693323 211.492059 
L 735.848109 208.541241 
L 738.002896 205.999644 
L 739.798552 204.193803 
L 741.594208 202.672186 
L 743.389863 201.435679 
L 745.185519 200.485767 
L 746.981175 199.823533 
L 748.77683 199.449064 
L 750.213355 199.356016 
L 751.649879 199.445506 
L 753.086404 199.716154 
L 754.88206 200.306264 
L 756.677715 201.171766 
L 758.473371 202.306935 
L 760.269027 203.704882 
L 762.064682 205.357599 
L 764.219469 207.664377 
L 766.374256 210.307323 
L 768.888174 213.789297 
L 771.402092 217.667624 
L 774.275141 222.537197 
L 777.507321 228.501036 
L 781.098632 235.62682 
L 785.408206 244.711138 
L 790.795173 256.625665 
L 805.519549 289.518643 
L 810.188254 299.2232 
L 814.138697 306.952192 
L 818.089139 314.178412 
L 821.680451 320.280375 
L 825.271762 325.919484 
L 828.503942 330.58978 
L 831.736122 334.869597 
L 834.968302 338.751877 
L 837.841352 341.861401 
L 840.714401 344.639576 
L 843.228319 346.788721 
L 845.742237 348.664246 
L 848.256154 350.254689 
L 850.410941 351.381832 
L 852.565728 352.284083 
L 854.720515 352.9605 
L 856.875302 353.40945 
L 859.030088 353.627448 
L 861.184875 353.610615 
L 863.339662 353.355576 
L 865.494449 352.860155 
L 867.649236 352.12396 
L 869.804023 351.148662 
L 871.958809 349.938327 
L 874.113596 348.499573 
L 876.627514 346.544718 
L 879.141432 344.310473 
L 882.014481 341.444981 
L 885.246661 337.872863 
L 888.837973 333.549547 
L 893.506677 327.532383 
L 909.308447 306.791743 
L 912.899759 302.590465 
L 916.131939 299.124978 
L 919.004988 296.337811 
L 921.878037 293.854045 
L 924.391955 291.945299 
L 926.905873 290.294629 
L 929.419791 288.909936 
L 931.933709 287.796369 
L 934.447627 286.956282 
L 936.602414 286.453734 
L 938.7572 286.150284 
L 940.911987 286.042926 
L 943.425905 286.159809 
L 945.939823 286.529104 
L 948.453741 287.140174 
L 950.967659 287.980594 
L 953.481577 289.036407 
L 956.354626 290.487186 
L 959.227675 292.174797 
L 962.459855 294.324212 
L 966.051167 296.97773 
L 970.36074 300.453116 
L 975.747707 305.11005 
L 984.007723 312.600329 
L 995.140788 322.66165 
L 1000.886887 327.563564 
L 1005.914722 331.565784 
L 1010.224296 334.730551 
L 1014.53387 337.612447 
L 1018.484312 339.978708 
L 1018.484312 339.978708 
" clip-path="url(#pa023e7afb5)" style="fill: none; stroke: #d5bb67; stroke-width: 4; stroke-linecap: round"/>
   </g>
   <g id="line2d_37">
    <path d="M 630.981818 512.62597 
L 632.059212 512.455278 
L 633.136605 512.056837 
L 634.213998 511.326158 
L 635.291392 510.236635 
L 636.368785 508.818437 
L 637.80531 506.508763 
L 639.600965 503.166255 
L 642.833146 496.565496 
L 647.860981 485.751609 
L 651.452293 477.492018 
L 654.684473 469.496188 
L 658.634916 459.046704 
L 665.458407 440.150827 
L 670.845374 425.493197 
L 674.795817 415.376169 
L 678.387128 406.812278 
L 681.619308 399.688144 
L 684.492357 393.850949 
L 687.365406 388.492086 
L 690.238455 383.612972 
L 692.752373 379.737934 
L 695.266291 376.23252 
L 697.780209 373.093485 
L 700.294127 370.313751 
L 702.808045 367.883012 
L 705.321963 365.788166 
L 707.835881 364.012191 
L 710.349799 362.529372 
L 712.863717 361.317984 
L 715.377635 360.373424 
L 717.532422 359.780464 
L 719.687208 359.386958 
L 722.201126 359.171154 
L 724.715044 359.200218 
L 727.228962 359.451252 
L 730.102011 359.97625 
L 733.334191 360.819073 
L 737.284634 362.114849 
L 742.671601 364.15152 
L 752.00901 367.714422 
L 756.677715 369.244104 
L 760.987289 370.422151 
L 765.296862 371.35678 
L 769.606436 372.055774 
L 774.275141 372.580084 
L 780.021239 372.97966 
L 788.640386 373.317217 
L 801.928238 373.840634 
L 809.829123 374.392116 
L 817.730008 375.16698 
L 828.503942 376.469451 
L 842.150925 378.093901 
L 849.333548 378.728304 
L 855.797908 379.07952 
L 861.903138 379.184316 
L 867.649236 379.066305 
L 873.395334 378.734656 
L 879.500563 378.151648 
L 885.605792 377.341415 
L 892.070153 376.255306 
L 898.893644 374.884784 
L 906.794529 373.06355 
L 916.850201 370.495481 
L 943.066774 363.669025 
L 951.32679 361.812215 
L 958.868544 360.336317 
L 966.051167 359.147391 
L 973.233789 358.174412 
L 980.775543 357.374317 
L 989.035559 356.728038 
L 998.372969 356.226989 
L 1010.942558 355.793159 
L 1018.484312 355.586265 
L 1018.484312 355.586265 
" clip-path="url(#pa023e7afb5)" style="fill: none; stroke: #4878d0; stroke-width: 4; stroke-linecap: round"/>
   </g>
   <g id="line2d_38">
    <path d="M 630.981818 512.596251 
L 631.70008 512.28205 
L 632.777474 511.417568 
L 634.213998 509.852713 
L 636.727916 506.693468 
L 641.755752 499.975461 
L 644.987932 495.286108 
L 649.297506 488.545977 
L 655.402735 478.999543 
L 658.275784 474.900121 
L 660.789702 471.675507 
L 662.944489 469.233983 
L 665.099276 467.11943 
L 667.254063 465.351523 
L 669.049718 464.150338 
L 670.845374 463.184514 
L 672.64103 462.441542 
L 674.436685 461.909963 
L 676.591472 461.528333 
L 678.746259 461.395962 
L 680.901046 461.485208 
L 683.414964 461.836485 
L 685.928882 462.414876 
L 688.801931 463.305077 
L 692.034111 464.540082 
L 695.984553 466.304489 
L 700.653258 468.644949 
L 707.117619 472.160356 
L 729.383749 484.5027 
L 735.848109 487.720122 
L 741.594208 490.329976 
L 746.981175 492.524237 
L 752.00901 494.322962 
L 756.677715 495.756382 
L 761.34642 496.94518 
L 765.655994 497.815787 
L 769.965567 498.465815 
L 774.275141 498.900085 
L 778.943846 499.142377 
L 783.971681 499.167685 
L 789.358648 498.969833 
L 795.823009 498.499916 
L 804.083025 497.657741 
L 817.370877 496.040012 
L 842.869187 492.928791 
L 858.670957 491.248859 
L 875.19099 489.724419 
L 892.070153 488.39106 
L 909.667578 487.226875 
L 928.701529 486.194292 
L 949.890265 485.274631 
L 973.59292 484.474411 
L 1000.886887 483.782061 
L 1018.484312 483.436093 
L 1018.484312 483.436093 
" clip-path="url(#pa023e7afb5)" style="fill: none; stroke: #956cb4; stroke-width: 4; stroke-linecap: round"/>
   </g>
   <g id="patch_9">
    <path d="M 630.981818 512.64 
L 630.981818 69.12 
" style="fill: none; stroke: #262626; stroke-width: 1.875; stroke-linejoin: miter; stroke-linecap: square"/>
   </g>
   <g id="patch_10">
    <path d="M 1036.8 512.64 
L 1036.8 69.12 
" style="fill: none; stroke: #262626; stroke-width: 1.875; stroke-linejoin: miter; stroke-linecap: square"/>
   </g>
   <g id="patch_11">
    <path d="M 630.981818 512.64 
L 1036.8 512.64 
" style="fill: none; stroke: #262626; stroke-width: 1.875; stroke-linejoin: miter; stroke-linecap: square"/>
   </g>
   <g id="patch_12">
    <path d="M 630.981818 69.12 
L 1036.8 69.12 
" style="fill: none; stroke: #262626; stroke-width: 1.875; stroke-linejoin: miter; stroke-linecap: square"/>
   </g>
   <g id="legend_2">
    <g id="patch_13">
     <path d="M 909.105469 166.167656 
L 1026.3 166.167656 
Q 1029.3 166.167656 1029.3 163.167656 
L 1029.3 79.62 
Q 1029.3 76.62 1026.3 76.62 
L 909.105469 76.62 
Q 906.105469 76.62 906.105469 79.62 
L 906.105469 163.167656 
Q 906.105469 166.167656 909.105469 166.167656 
z
" style="fill: #ffffff; opacity: 0.8; stroke: #cccccc; stroke-width: 1.5; stroke-linejoin: miter"/>
    </g>
    <g id="line2d_39">
     <path d="M 912.105469 88.106719 
L 927.105469 88.106719 
L 942.105469 88.106719 
" style="fill: none; stroke: #797979; stroke-width: 4; stroke-linecap: round"/>
    </g>
    <g id="text_35">
     <!-- Baseline -->
     <g style="fill: #262626" transform="translate(954.105469 93.356719) scale(0.15 -0.15)">
      <use xlink:href="#ArialMT-42"/>
      <use xlink:href="#ArialMT-61" x="66.699219"/>
      <use xlink:href="#ArialMT-73" x="122.314453"/>
      <use xlink:href="#ArialMT-65" x="172.314453"/>
      <use xlink:href="#ArialMT-6c" x="227.929688"/>
      <use xlink:href="#ArialMT-69" x="250.146484"/>
      <use xlink:href="#ArialMT-6e" x="272.363281"/>
      <use xlink:href="#ArialMT-65" x="327.978516"/>
     </g>
    </g>
    <g id="line2d_40">
     <path d="M 912.105469 109.324688 
L 927.105469 109.324688 
L 942.105469 109.324688 
" style="fill: none; stroke: #d5bb67; stroke-width: 4; stroke-linecap: round"/>
    </g>
    <g id="text_36">
     <!-- DDPG -->
     <g style="fill: #262626" transform="translate(954.105469 114.574688) scale(0.15 -0.15)">
      <use xlink:href="#ArialMT-44"/>
      <use xlink:href="#ArialMT-44" x="72.216797"/>
      <use xlink:href="#ArialMT-50" x="144.433594"/>
      <use xlink:href="#ArialMT-47" x="211.132812"/>
     </g>
    </g>
    <g id="line2d_41">
     <path d="M 912.105469 130.542656 
L 927.105469 130.542656 
L 942.105469 130.542656 
" style="fill: none; stroke: #4878d0; stroke-width: 4; stroke-linecap: round"/>
    </g>
    <g id="text_37">
     <!-- D-learning -->
     <g style="fill: #262626" transform="translate(954.105469 135.792656) scale(0.15 -0.15)">
      <use xlink:href="#ArialMT-44"/>
      <use xlink:href="#ArialMT-2d" x="72.216797"/>
      <use xlink:href="#ArialMT-6c" x="105.517578"/>
      <use xlink:href="#ArialMT-65" x="127.734375"/>
      <use xlink:href="#ArialMT-61" x="183.349609"/>
      <use xlink:href="#ArialMT-72" x="238.964844"/>
      <use xlink:href="#ArialMT-6e" x="272.265625"/>
      <use xlink:href="#ArialMT-69" x="327.880859"/>
      <use xlink:href="#ArialMT-6e" x="350.097656"/>
      <use xlink:href="#ArialMT-67" x="405.712891"/>
     </g>
    </g>
    <g id="line2d_42">
     <path d="M 912.105469 151.936406 
L 927.105469 151.936406 
L 942.105469 151.936406 
" style="fill: none; stroke: #956cb4; stroke-width: 4; stroke-linecap: round"/>
    </g>
    <g id="text_38">
     <!-- DOPT -->
     <g style="fill: #262626" transform="translate(954.105469 157.186406) scale(0.15 -0.15)">
      <use xlink:href="#ArialMT-44"/>
      <use xlink:href="#ArialMT-4f" x="72.216797"/>
      <use xlink:href="#ArialMT-50" x="150"/>
      <use xlink:href="#ArialMT-54" x="216.699219"/>
     </g>
    </g>
   </g>
  </g>
 </g>
 <defs>
  <clipPath id="pcaf2e9175f">
   <rect x="144" y="84.750479" width="405.818182" height="412.259042"/>
  </clipPath>
  <clipPath id="pa023e7afb5">
   <rect x="630.981818" y="69.12" width="405.818182" height="443.52"/>
  </clipPath>
 </defs>
</svg>
